<svg xmlns="http://www.w3.org/2000/svg" width="24" height="24" viewBox="0 0 24 24" fill="none">
  <path d="M19.3917 18.6667C18.4622 18.6667 17.7087 19.4129 17.7087 20.3333C17.7087 21.2538 18.4622 22 19.3917 22C20.3213 22 21.0748 21.2538 21.0748 20.3333C21.0748 19.4129 20.3213 18.6667 19.3917 18.6667ZM19.3917 18.6667H9.08379C8.24023 18.6667 7.52697 18.0483 7.41548 17.2203L5.56089 3.44639C5.4494 2.61838 4.73614 2 3.89258 2H2M5.92716 5.88889L20.1435 4.43256C21.2036 4.32396 22.0975 5.20607 21.9914 6.25622L21.3274 12.832C21.184 14.252 19.9773 15.3333 18.5362 15.3333H7.61023M13.2205 9.22222L18.2697 8.66667M9.85433 20.3333C9.85433 21.2538 9.10079 22 8.17126 22C7.24172 22 6.48819 21.2538 6.48819 20.3333C6.48819 19.4129 7.24172 18.6667 8.17126 18.6667C9.10079 18.6667 9.85433 19.4129 9.85433 20.3333Z" stroke="currentColor" stroke-width="1.5" stroke-linecap="round"/>
</svg>