<svg width="49" height="38" viewBox="0 0 49 38" fill="none" xmlns="http://www.w3.org/2000/svg">
<g clip-path="url(#clip0_3223_5708)">
<path d="M26.4445 35.7622C26.444 36.281 26.2625 36.7836 25.9311 37.1843C25.5996 37.585 25.1386 37.859 24.6266 37.9596C24.1147 38.0603 23.5835 37.9813 23.1236 37.7362C22.6636 37.491 22.3034 37.0949 22.1044 36.6154C21.9053 36.1358 21.8797 35.6024 22.0319 35.1062C22.1841 34.6099 22.5047 34.1815 22.939 33.8939C23.3734 33.6063 23.8946 33.4774 24.4139 33.5291C24.9331 33.5808 25.4183 33.8099 25.7866 34.1773C25.9965 34.385 26.1627 34.632 26.2757 34.9041C26.3886 35.1762 26.446 35.4679 26.4445 35.7622Z" fill="#FA5A2A"/>
<path d="M37.708 35.7622C37.7075 36.281 37.526 36.7836 37.1945 37.1843C36.8631 37.585 36.4021 37.859 35.8901 37.9596C35.3782 38.0603 34.847 37.9813 34.387 37.7362C33.9271 37.491 33.5669 37.0949 33.3679 36.6154C33.1688 36.1358 33.1432 35.6024 33.2954 35.1062C33.4476 34.6099 33.7682 34.1815 34.2025 33.8939C34.6369 33.6063 35.1581 33.4774 35.6773 33.5291C36.1966 33.5808 36.6818 33.8099 37.0501 34.1773C37.26 34.385 37.4262 34.632 37.5391 34.9041C37.6521 35.1762 37.7095 35.4679 37.708 35.7622Z" fill="#FA5A2A"/>
<path d="M48.0823 14.229L44.178 8.63943H40.2923L45.1998 15.6657C45.4371 16.0024 45.5511 16.4099 45.5228 16.8201C45.4945 17.2303 45.3255 17.6184 45.0441 17.9198C44.7511 18.2416 44.349 18.4446 43.9148 18.4899L13.9454 18.5019L10.6353 13.7342H6.53247L19.2257 32.0213H36.3254C40.4326 32.0213 42.8458 27.4323 40.5017 24.0795L39.1651 22.1708H43.905C48.0121 22.1708 50.4265 17.5808 48.0823 14.229ZM36.3353 28.3458C36.3002 28.3458 20.7475 28.3578 20.7475 28.3578L16.5044 22.221H35.3145L37.617 25.5205C37.796 25.7768 37.9051 26.0749 37.9338 26.3857C37.9625 26.6965 37.9097 27.0093 37.7807 27.2938C37.6516 27.5783 37.4507 27.8247 37.1974 28.0091C36.9441 28.1934 36.6471 28.3094 36.3353 28.3458Z" fill="#FA5A2A"/>
<path d="M32.3176 12.3662L35.6408 17.1295H31.7573L30.1269 14.7947C29.6028 14.0453 28.904 13.433 28.0903 13.0101C27.2766 12.5873 26.3721 12.3663 25.454 12.3662H5.57593L5.53865 12.3117L2.97852 8.64707C11.2334 8.64707 36.5508 8.64053 38.6187 8.64707L41.2248 12.3662H32.3176Z" fill="#FA5A2A"/>
<path d="M6.18811 7.27474H2.08313L0.877068 5.54707C-1.22476 2.31846 1.10622 0 1.10622 0L6.18811 7.27474Z" fill="#FA5A2A"/>
</g>
<defs>
<clipPath id="clip0_3223_5708">
<rect width="49" height="38" fill="white"/>
</clipPath>
</defs>
</svg>
