<svg width="24" height="24" viewBox="0 0 24 24" fill="none" xmlns="http://www.w3.org/2000/svg">
<path d="M18.4 22H5.6C4.71634 22 4 21.2538 4 20.3333M4 20.3333C4 19.4129 4.71634 18.6667 5.6 18.6667H19.4667C19.7612 18.6667 20 18.4179 20 18.1111V2.55556C20 2.24873 19.7612 2 19.4667 2H6.66667C5.19391 2 4 3.24366 4 4.77778V20.3333ZM16.8 2.00001V9.58538C16.8 9.75278 16.5871 9.84002 16.4557 9.72648L14.6899 8.20058C14.3756 7.92899 13.8911 7.92899 13.5768 8.20058L11.8109 9.72648C11.6795 9.84002 11.4667 9.75278 11.4667 9.58538V2" stroke="white" stroke-width="1.5" stroke-linecap="round"/>
</svg>
