<svg width="24" height="24" viewBox="0 0 24 24" fill="none" xmlns="http://www.w3.org/2000/svg">
<path d="M10 22H14C19 22 21 20 21 15V9C21 4 19 2 14 2H10C5 2 3 4 3 9V15C3 20 5 22 10 22Z" stroke="#FA5A2A" stroke-width="1.5" stroke-linecap="round" stroke-linejoin="round"/>
<path d="M16.5 7.58V8.58C16.5 9.4 15.83 10.08 15 10.08H9C8.18 10.08 7.5 9.41 7.5 8.58V7.58C7.5 6.76 8.17 6.08 9 6.08H15C15.83 6.08 16.5 6.75 16.5 7.58Z" stroke="#FA5A2A" stroke-width="1.5" stroke-linecap="round" stroke-linejoin="round"/>
<path d="M8.13612 14H8.14767" stroke="#FA5A2A" stroke-width="2" stroke-linecap="round" stroke-linejoin="round"/>
<path d="M11.9952 14H12.0068" stroke="#FA5A2A" stroke-width="2" stroke-linecap="round" stroke-linejoin="round"/>
<path d="M15.8543 14H15.8659" stroke="#FA5A2A" stroke-width="2" stroke-linecap="round" stroke-linejoin="round"/>
<path d="M8.13612 17.5H8.14767" stroke="#FA5A2A" stroke-width="2" stroke-linecap="round" stroke-linejoin="round"/>
<path d="M11.9952 17.5H12.0068" stroke="#FA5A2A" stroke-width="2" stroke-linecap="round" stroke-linejoin="round"/>
<path d="M15.8543 17.5H15.8659" stroke="#FA5A2A" stroke-width="2" stroke-linecap="round" stroke-linejoin="round"/>
</svg>
