<svg width="289" height="357" viewBox="0 0 289 357" fill="none" xmlns="http://www.w3.org/2000/svg">
<g clip-path="url(#clip0_681_4321)">
<path d="M57.5948 306.032L146.066 357L234.526 306.032L146.066 255.064L57.5948 306.032Z" fill="#E2E2E2"/>
<path d="M57.5948 189.468L146.066 240.436L234.526 189.468L146.066 138.489L57.5948 189.468Z" fill="white"/>
<path d="M57.6729 189.49L57.4388 291.415L146.066 342.361V240.436L57.6729 189.49Z" fill="white"/>
<path d="M146.066 342.361L234.537 291.393V189.457L146.066 240.425V342.361Z" fill="#F4F4F4"/>
<path d="M145.709 342.995V240.269L145.888 240.169L234.894 188.889V291.66L234.716 291.76L145.709 342.995ZM146.434 240.659V341.761L234.17 291.204V190.08L146.434 240.659Z" fill="#022F5B"/>
<path d="M113.852 314.63L139.902 329.647V316.933L113.852 301.916V314.63Z" fill="#4D4D4D"/>
<path d="M146.066 138.088L56.9038 189.468L93.6433 210.636L94 210.035L58.2971 189.468L146.066 138.9L233.824 189.468L146.066 240.036L109.572 219.012L109.226 219.613L146.066 240.837L235.228 189.468L146.233 138.188L146.066 138.088Z" fill="#4D4D4D"/>
<path d="M104.411 216.031L104.054 216.632L145.709 240.636L145.721 341.761L57.7955 291.204L58.0184 190.091L95.605 211.759L95.9506 211.159L57.3162 188.889L57.0933 291.404V291.616L146.412 342.973V240.236L104.411 216.031Z" fill="#4D4D4D"/>
<path d="M145.721 240.269V343.018L234.704 291.738L234.883 291.638V188.856L145.899 240.125L145.721 240.269ZM146.423 240.67L234.181 190.102V291.237L146.423 341.805V240.67ZM113.495 314.797L140.248 330.214V316.722L113.495 301.315V314.797ZM114.198 302.483L139.556 317.133V329.046L114.198 314.43V302.483Z" fill="#4D4D4D"/>
<path d="M94.1561 210.08L94.0557 210.024V210.135L94.0334 210.147L94.0557 210.158V248.49L109.449 257.355V219.001L189.449 172.916L174.055 164.05L94.1561 210.08Z" fill="#FA5A2A"/>
<path d="M109.237 218.701L109.059 218.801V256.754L94.3566 248.289V210.336L174.011 164.451L188.702 172.916L109.237 218.701ZM93.8439 209.802L93.6655 209.902V248.656L109.761 257.922V219.201L190.095 172.916L174.011 163.639L93.8439 209.802Z" fill="#4D4D4D"/>
<path d="M198.322 122.359C170.232 109.389 125.155 110.023 97.6226 123.794C77.9376 133.639 72.6317 147.521 81.4488 159.39C84.4584 153.739 90.4219 148.344 99.4841 143.817C127.016 130.046 172.094 129.356 200.172 142.393C208.164 146.086 213.838 150.491 217.349 155.218C223.491 143.683 217.16 131.058 198.322 122.359Z" fill="#E5742E"/>
<path d="M198.299 122.359C170.232 109.4 125.166 110.034 97.6226 123.794C74.6828 135.229 71.1381 152.237 86.9441 165.129C90.5314 167.956 94.4505 170.335 98.6147 172.215C126.727 185.185 171.793 184.54 199.336 170.78C203.023 168.979 206.493 166.766 209.68 164.184C226.11 150.769 222.254 133.394 198.299 122.359Z" fill="url(#paint0_linear_681_4321)"/>
<path d="M180.44 192.251C223.362 174.185 243.48 124.816 225.376 81.9835C207.271 39.1509 157.8 19.0742 114.879 37.141C71.9571 55.2078 51.8388 104.576 69.9431 147.409C88.0474 190.242 137.519 210.318 180.44 192.251Z" fill="#F4F4F4"/>
<path d="M147.66 199.223C130.905 199.223 114.526 194.265 100.595 184.976C86.6639 175.687 75.8057 162.483 69.3939 147.036C62.982 131.588 61.3044 114.59 64.5731 98.1913C67.8419 81.7923 75.9102 66.7288 87.7577 54.9058C99.6053 43.0828 114.7 35.0312 131.133 31.7693C147.566 28.5073 164.599 30.1815 180.079 36.58C195.559 42.9786 208.789 53.8142 218.098 67.7166C227.406 81.619 232.375 97.9638 232.375 114.684C232.351 137.098 223.418 158.587 207.536 174.436C191.654 190.285 170.121 199.2 147.66 199.223ZM147.66 30.879C131.048 30.879 114.81 35.7948 100.998 45.0046C87.1855 54.2144 76.4203 67.3047 70.0633 82.6201C63.7062 97.9355 62.043 114.788 65.2837 131.047C68.5245 147.306 76.5238 162.24 88.2701 173.962C100.016 185.684 114.982 193.667 131.274 196.901C147.567 200.135 164.455 198.475 179.802 192.131C195.149 185.787 208.266 175.044 217.495 161.261C226.724 147.477 231.65 131.272 231.65 114.695C231.627 92.473 222.77 71.1677 207.024 55.4542C191.278 39.7408 169.928 30.9026 147.66 30.879Z" fill="#4D4D4D"/>
<path d="M187.877 126.319C187.298 125.797 186.963 126.597 186.372 126.175C185.782 125.752 184.812 125.463 184.399 125.974C183.987 126.486 183.485 126.475 183.742 125.574C183.998 124.673 182.716 124.784 182.27 124.172C181.825 123.561 181.412 123.538 180.041 123.238C178.67 122.938 178.313 122.604 177.711 122.526C177.11 122.448 176.875 123.861 176.173 124.217C175.471 124.573 176.875 122.504 176.563 122.137C176.251 121.77 174.267 121.925 173.587 121.325C172.907 120.724 172.395 122.026 171.291 123.349C170.187 124.673 170.578 123.472 171.681 122.237C172.484 121.473 173.229 120.652 173.91 119.779C174.39 119.022 173.543 118.867 172.662 118.188C171.781 117.509 171.993 116.186 171.391 115.374C170.789 114.562 170.488 115.374 170.054 114.384C169.619 113.394 167.824 112.938 166.464 112.159C165.105 111.38 164.67 111.881 163.89 112.415C163.109 112.949 160.88 112.47 160.746 111.959C160.612 111.447 160.523 111.647 159.431 111.436C158.339 111.225 158.55 111.436 158.506 110.435C158.461 109.434 157.391 109.111 156.41 108.8C155.429 108.488 155.385 108.488 155.151 107.565C154.917 106.642 154.705 106.597 152.721 106.197C150.737 105.796 151.338 104.428 149.232 104.195C147.125 103.961 148.117 104.84 147.214 105.563C146.311 106.286 145.13 105.296 144.316 104.45C143.502 103.605 143.491 104.562 141.919 104.829C140.348 105.096 140.738 105.051 140.994 104.005C141.251 102.96 140.125 103.082 139.066 102.893C137.872 102.73 136.657 102.964 135.61 103.56C134.986 104.039 135.833 106.141 135.689 106.964C135.544 107.787 133.459 106.597 134.251 105.54C135.042 104.484 134.819 104.272 134.496 103.26C134.173 102.248 135.61 102.148 135.789 101.391C135.967 100.635 134.518 101.314 133.794 102.014C133.069 102.715 132.188 102.582 131.731 102.826C131.07 103.022 130.372 103.064 129.692 102.949C129.466 102.938 129.24 102.974 129.028 103.053C128.816 103.132 128.622 103.253 128.459 103.409C128.295 103.565 128.165 103.753 128.076 103.96C127.987 104.168 127.941 104.391 127.942 104.617C128.02 105.663 127.942 106.252 127.195 106.275C126.824 106.284 126.47 106.428 126.199 106.68C125.928 106.932 125.759 107.275 125.723 107.643C125.578 108.522 124.285 106.286 122.981 105.707C121.677 105.129 120.752 105.774 119.637 106.23C119.197 106.429 118.717 106.525 118.234 106.51C117.75 106.494 117.277 106.368 116.851 106.141C116.25 105.825 115.731 105.375 115.331 104.828C114.931 104.281 114.661 103.649 114.543 102.982C114.298 101.725 115.39 100.846 115.335 99.8007C115.279 98.7551 115.87 98.1656 115.925 97.1867C115.981 96.2078 115.736 96.5304 116.293 95.8852C116.851 95.24 114.655 95.1066 113.551 94.6616C112.448 94.2167 110.386 94.7729 108.858 94.7617C107.331 94.7506 107.376 94.7617 108.167 94.1166C108.959 93.4714 109.694 91.3468 110.397 89.8896C111.099 88.4324 111.511 87.3423 112.403 85.6515C113.295 83.9607 111.511 85.1843 110.865 85.4179C110.218 85.6515 108.836 84.9396 107.688 85.1621C106.54 85.3846 106.116 88.2656 104.233 89.6115C102.349 90.9575 102.627 89.5003 100.889 89.6115C99.1497 89.7227 98.5366 88.1543 98.035 87.0753C97.7137 86.081 97.5703 85.038 97.6114 83.9941C97.6114 82.1587 100.409 75.9629 101.045 75.5402C102.22 75.0136 103.431 74.5676 104.667 74.2054C106.785 73.4156 106.897 73.8494 108.479 74.2054C110.062 74.5613 109.594 74.2054 110.709 73.3822C111.823 72.5591 111.422 72.9818 113.351 72.5035C115.279 72.0251 114.71 72.9262 116.171 73.4267C117.631 73.9273 117.765 73.5491 118.645 74.2054C119.526 74.8617 118.645 77.2532 119.035 77.8761C119.489 78.9321 120.314 79.7865 121.354 80.2788C122.781 80.8684 122.926 78.2655 123.026 77.4868C123.072 76.346 122.874 75.2085 122.446 74.1497C121.914 73.2281 121.721 72.1503 121.9 71.1019C122.168 69.8227 125.746 67.6202 128.387 66.9528C131.029 66.2854 131.653 65.1841 131.274 64.3388C130.895 63.4934 131.33 62.114 131.33 61.7247C131.33 61.3354 131.419 61.0573 131.843 61.2575C132.266 61.4577 132.958 60.5901 133.994 60.3009C135.031 60.0117 134.763 58.8882 135.689 58.4655C136.699 58.1628 137.757 58.0496 138.81 58.1318C140.114 58.0651 137.338 55.9071 140.292 55.0951C143.246 54.283 144.416 54.9616 144.539 54.1162C144.662 53.2708 144.929 53.4599 145.81 53.4043C146.69 53.3487 145.81 53.738 144.896 54.5166C143.982 55.2953 145.208 55.9071 146.623 55.629C147.837 55.3028 148.994 54.7965 150.057 54.1273C150.792 53.7046 151.807 54.1941 151.751 53.3709C151.695 52.5478 150.28 52.6479 149.522 52.5811C148.764 52.5144 149.098 52.3809 148.407 52.1251C147.716 51.8692 147.905 51.4688 147.393 51.1351C146.88 50.8014 147.393 50.6011 147.303 50.0895C147.214 49.5778 147.939 49.8114 148.518 49.2218C149.098 48.6323 147.114 48.3653 145.765 48.521C144.503 48.6519 143.268 48.9667 142.098 49.4554C141.273 49.8781 140.783 50.0116 140.861 49.7335C141.437 49.0962 142.233 48.6991 143.09 48.6211C143.848 48.699 144.127 48.6211 144.561 48.2986C144.996 47.976 144.673 47.5088 146.857 47.5644C149.042 47.62 151.383 48.2207 152.799 47.2307C154.214 46.2407 154.437 46.4965 155.875 46.1851C157.313 45.8736 157.079 44.8614 156.99 44.5165C156.901 44.1717 156.109 43.8603 155.875 43.6044C155.641 43.3486 155.34 43.4376 154.883 43.4487C154.426 43.4598 155.073 43.3263 154.348 42.6478C153.624 41.9692 152.119 42.2251 151.684 41.947C151.526 41.8312 151.342 41.7547 151.148 41.7238C150.954 41.6928 150.756 41.7083 150.569 41.769C150.09 41.8803 150.324 41.3463 150.659 40.9125C150.993 40.4787 148.786 39.5888 147.593 38.6878C146.4 37.7868 146.545 38.6878 146.478 39.2885C146.412 39.8891 145.152 39.8669 144.728 40.1005C144.305 40.3341 143.77 39.9559 143.369 39.5777C143.184 39.3927 143.063 39.1542 143.023 38.8964C142.983 38.6386 143.026 38.3748 143.146 38.1427C143.357 37.5087 142.689 37.8424 142.254 38.1427C141.819 38.4431 140.983 37.3863 140.392 37.0304C139.802 36.6744 137.271 36.9191 136.736 36.8969C136.201 36.8746 135.744 37.1416 135.711 38.1539C135.677 39.1661 135.042 38.7545 134.719 39.6778C134.395 40.601 135.633 40.6455 135.722 41.2017C135.811 41.7579 134.284 42.6144 132.779 42.7368C131.274 42.8591 131.665 45.729 131.587 46.4743C131.581 46.6754 131.533 46.873 131.445 47.054C131.356 47.2349 131.231 47.395 131.075 47.5235C130.92 47.6519 130.74 47.7459 130.545 47.799C130.351 47.8521 130.147 47.8631 129.948 47.8314C129.201 47.7201 128.755 45.6067 128.833 44.4053C128.911 43.204 128.833 42.7479 127.93 42.8591C127.208 42.9453 126.477 42.7845 125.857 42.4031C125.144 42.0694 124.921 42.4031 124.274 41.5243C123.628 40.6455 122.379 40.9904 121.599 41.3686C120.819 41.7468 120.719 41.6244 120.964 40.7679C121.209 39.9114 120.529 40.2451 120.964 39.5443C121.398 38.8435 123.461 38.1316 124.709 37.8535C125.594 37.7116 126.447 37.4141 127.228 36.9748C128.131 36.5076 129.279 36.9748 129.77 36.6744C130.26 36.3741 131.308 35.6733 131.743 35.462C132.177 35.2506 132.701 35.5732 133.292 35.3062C133.883 35.0393 135.432 35.0949 135.845 34.7389C136.257 34.383 135.343 33.9825 135.711 33.5487C136.079 33.1149 137.126 33.76 137.728 33.9603C138.33 34.1605 138.23 33.5709 138.553 33.126C138.876 32.6811 138.91 33.5932 139.668 34.0826C140.426 34.5721 137.918 34.0826 138.453 34.7056C138.988 35.3285 140.994 33.8045 141.474 34.2606C141.953 34.7167 137.45 35.5064 136.725 35.7845C136.001 36.0626 136.536 36.3852 138.13 36.3407C139.292 36.2591 140.453 36.5141 141.474 37.0749C142.22 37.4976 145.174 37.8424 145.665 37.2862C146.155 36.73 143.435 36.73 143.435 36.4297C143.435 36.1294 145.576 36.6744 146.077 36.3073C146.579 35.9403 145.241 35.9625 144.606 35.4063C143.97 34.8502 145.977 35.0281 147.125 35.4063C148.273 35.7845 147.838 35.2729 148.05 34.8835C148.262 34.4942 147.114 34.4608 145.609 34.1605C144.104 33.8602 145.13 33.7934 145.308 33.4597C145.486 33.126 143.915 33.0593 142.845 32.9703C141.775 32.8813 141.73 32.5031 142.042 32.0136C142.354 31.5242 140.626 31.8802 139.98 32.1471C139.333 32.4141 139.267 32.4475 138.163 32.1471C137.06 31.8468 135.488 33.4041 135.22 32.9035C134.953 32.403 134.251 32.6811 133.515 32.9035C132.779 33.126 133.649 33.5487 134.173 34.0159C134.696 34.4831 132.813 34.7389 132.523 35.0726C132.233 35.4063 131.575 35.0726 132.088 34.7389C132.601 34.4052 132.423 33.9491 131.609 33.8824C130.795 33.8157 129.948 34.7612 129.547 34.8279C129.145 34.8946 129.636 34.5387 129.547 33.8713C129.458 33.2039 128.131 34.7945 127.585 35.2506C127.039 35.7067 125.824 35.3396 124.876 35.6288C123.946 35.9539 122.947 36.0306 121.978 35.8513C121.476 35.6177 121.978 35.4063 123.338 35.0949C124.698 34.7834 123.227 34.5387 121.855 35.0949C120.484 35.6511 120.551 35.7067 120.574 36.2962C120.596 36.8858 119.715 36.7078 118.868 36.2962C118.021 35.8846 117.43 37.1861 117.218 36.7189C117.007 36.2517 116.695 36.4742 116.695 36.4742C108.482 39.9413 100.8 44.5473 93.8773 50.1562C91.5811 51.9582 91.5811 53.8937 89.6639 55.1062C87.7466 56.3187 86.3198 59.767 84.7816 61.6024C83.2434 63.4377 82.2402 67.8538 82.8644 69.4556C83.4886 71.0574 82.1398 75.0174 82.4965 76.0519C82.8532 77.0864 81.5491 78.0319 81.9169 79.0664C82.3853 80.1885 82.4981 81.4268 82.2402 82.6148C81.9838 84.4947 84.6367 85.0397 85.2163 84.2277C85.796 83.4157 84.0236 75.6069 84.4472 74.8394C84.8708 74.0719 85.1494 75.251 85.038 76.3522C84.9265 77.4534 86.1526 80.9685 86.7323 82.8373C87.3119 84.706 86.4759 86.8417 86.7323 89.7672C86.9886 92.6927 95.906 95.7184 97.1433 96.1522C98.3806 96.586 98.4697 94.4725 99.6624 94.784C100.855 95.0954 103.006 98.1878 104.478 98.5215C105.949 98.8552 105.916 99.5337 107.042 99.6339C108.167 99.734 108.87 102.081 109.973 102.393C111.077 102.704 110.575 102.604 110.374 103.182C110.289 103.65 110.376 104.134 110.62 104.543C110.864 104.952 111.248 105.259 111.701 105.407C112.949 105.896 112.314 107.22 113.473 108.266C114.632 109.311 115.502 108.844 116.817 109.5C118.132 110.157 118.589 111.425 120.016 109.945C121.443 108.466 121.131 108.455 122.613 109.4C124.096 110.346 123.104 113.739 122.825 115.774C122.547 117.81 119.414 118.41 118.801 120.068C118.188 121.725 117.809 126.186 116.929 127.076C116.048 127.966 117.23 130.001 117.375 133.305C117.519 136.609 122.301 140.646 124.865 144.239C127.429 147.832 135.087 149.979 136.268 153.138C137.45 156.297 135.867 165.697 135.978 166.831C136.09 167.966 135.789 170.046 136.201 171.503C136.614 172.96 135.22 176.487 134.953 176.62C134.685 176.754 134.752 176.831 134.685 177.121C134.618 177.41 134.407 177.343 134.095 177.488C133.782 177.632 134.618 179.412 134.752 179.779C134.886 180.146 134.819 180.28 134.329 180.758C134.16 180.94 134.047 181.168 134.006 181.413C133.964 181.658 133.995 181.91 134.095 182.137C134.189 182.396 134.209 182.676 134.152 182.946C134.095 183.215 133.963 183.463 133.771 183.661C133.225 184.184 133.147 184.718 133.994 184.774C134.841 184.829 134.786 183.973 135.187 183.061C135.588 182.149 135.744 183.172 135.488 183.984C135.329 184.838 135.262 185.707 135.287 186.576C135.209 187.321 134.596 186.375 134.317 186.086C134.039 185.797 133.805 186.709 133.359 187.032C132.913 187.354 131.854 187.132 131.854 187.466C131.854 187.799 132.969 187.844 133.426 187.744C133.883 187.644 133.994 187.599 134.295 187.744C134.596 187.888 134.095 188.044 134.106 188.311C134.117 188.578 134.161 188.711 133.626 188.689C133.091 188.667 133.114 189.179 133.459 189.39C133.72 189.5 133.944 189.681 134.106 189.913C134.485 190.369 134.451 190.636 134.306 190.936C134.161 191.236 134.964 191.681 135.421 191.681C135.878 191.681 135.711 192.082 135.599 192.382C135.488 192.683 135.064 192.994 137.684 194.129C140.093 194.99 142.704 195.118 145.185 194.496C145.899 194.084 142.722 192.393 141.841 191.426C140.961 190.458 144.84 189.446 145.698 188.489C146.557 187.532 144.405 186.865 145.81 186.264C147.214 185.664 148.451 184.507 148.507 183.406C148.563 182.304 149.834 182.605 150.859 181.592C151.885 180.58 150.168 180.269 152.119 180.269C154.069 180.269 157.882 178.044 158.628 177.732C159.375 177.421 158.573 176.62 157.804 175.23C157.034 173.839 157.413 174.44 159.62 174.929C161.827 175.419 161.749 174.585 163.867 172.649C165.985 170.714 165.294 170.28 166.754 169.312C168.215 168.344 167.256 169.534 166.431 170.802C165.606 172.071 171.168 172.093 172.796 166.353C174.423 160.613 180.766 159.746 182.527 155.229C184.288 150.713 195.981 144.028 197.408 134.617C198.834 125.207 188.468 126.809 187.877 126.319Z" fill="#4D4D4D"/>
<path d="M131.107 37.1527C131.107 37.1527 130.16 37.0081 130.282 37.2973C130.405 37.5865 130.973 37.6199 131.252 37.5087C131.531 37.3974 131.899 37.3974 131.776 37.2195C131.653 37.0415 131.163 37.1638 131.107 37.1527ZM133.838 36.9525C133.559 36.8079 133.024 36.1738 132.233 36.7411C132.055 36.8746 131.587 37.264 132.044 37.2195C132.501 37.175 132.779 37.1638 133.158 37.1527C133.537 37.1416 134.117 37.1082 133.838 36.9525ZM134.474 36.5854C134.239 36.5854 134.251 36.5854 134.128 36.7968C134.005 37.0081 134.128 37.1527 134.395 37.1193C134.663 37.086 134.73 36.641 134.474 36.5854ZM134.239 37.4419C134.13 37.4786 134.033 37.5467 133.962 37.6376C133.89 37.7286 133.847 37.8385 133.838 37.9536C133.838 38.1316 134.061 38.165 134.34 38.1205C134.618 38.076 134.997 38.0426 134.886 37.7868C134.774 37.5309 134.741 37.2973 134.239 37.4419ZM132.322 37.3974C132.211 37.3974 131.598 37.5754 131.564 37.7645C131.531 37.9536 131.765 38.0982 132.144 38.1427C132.523 38.1872 132.701 38.2095 132.88 37.9536C133.058 37.6978 133.225 37.6866 133.08 37.5087C132.975 37.4256 132.849 37.3717 132.716 37.3522C132.583 37.3327 132.447 37.3483 132.322 37.3974ZM152.999 51.7246C152.776 51.0572 153.077 50.5121 152.687 50.3786C152.297 50.2452 152.498 50.3786 152.108 50.6901C151.727 50.9874 151.392 51.3399 151.116 51.7357C151.026 51.9359 151.818 52.5144 151.94 52.6701C152.063 52.8258 152.197 52.4143 152.319 52.57C152.442 52.7257 152.42 53.0372 152.944 52.8926C153.467 52.748 153.802 52.7257 153.568 52.3698C153.334 52.0138 153.222 52.3809 152.999 51.7246ZM160.512 48.4209C159.729 48.1306 158.894 48.0057 158.06 48.0538C157.491 48.1317 156.276 48.1206 156.745 47.6311C157.213 47.1417 158.138 45.9626 157.536 45.8736C156.934 45.7846 156.321 46.4965 155.697 46.5076C155.073 46.5188 155.474 47.353 155.173 47.62C154.872 47.887 154.85 48.7991 154.526 48.9326C154.203 49.0661 153.311 49.1106 153.412 49.4331C153.512 49.7557 154.526 49.3108 154.348 49.6445C154.17 49.9782 153.233 50.1562 153.445 50.3453C154.118 50.5466 154.835 50.5466 155.507 50.3453C156.421 50.1673 156.711 50.412 156.912 50.6122C157.112 50.8125 157.413 50.8013 157.792 50.7124C158.171 50.6234 158.773 50.4009 158.45 50.7124C158.127 51.0238 157.525 51.2463 157.636 51.491C157.748 51.7357 157.971 52.0583 158.461 51.6022C158.952 51.1462 159.955 51.0461 160.111 50.7124C160.267 50.3786 161.003 50.234 160.601 49.7557C160.2 49.2774 160.289 49.2329 160.601 49.0883C160.913 48.9437 161.281 48.7324 160.512 48.4209ZM161.393 50.323C160.791 50.1117 160.345 50.857 160.089 51.1795C159.832 51.5021 160.356 51.4799 160.434 51.847C160.512 52.214 161.404 52.0583 161.794 51.847C162.184 51.6356 162.262 50.5121 162.374 50.1006C162.485 49.689 161.627 50.4231 161.393 50.323ZM131.241 87.676C130.84 87.4646 129.736 86.0631 128.666 86.0297C127.596 85.9963 127.128 85.1176 125.868 84.6393C124.828 84.068 123.739 83.5914 122.613 83.2154C120.828 82.8794 119.006 82.7896 117.196 82.9485C115.067 83.2043 115.624 83.36 114.409 84.0608C112.871 84.9285 113.785 85.785 114.409 86.0075C115.034 86.2299 117.898 85.0175 119.403 85.3845C120.612 85.7244 121.841 85.9918 123.082 86.1854C123.884 86.2633 123.851 87.2978 124.586 87.7984C125.322 88.2989 124.586 89.1554 124.988 89.0442C125.389 88.933 129 89.3112 131.051 89.0442C133.102 88.7772 131.642 87.8762 131.241 87.676ZM138.587 89.4002C137.466 88.9216 136.278 88.6177 135.064 88.4991C134.551 88.4162 134.025 88.5276 133.59 88.8116C133.155 89.0957 132.842 89.5317 132.712 90.0342C132.712 90.7239 130.617 90.7572 129.848 90.8685C129.079 90.9797 129.591 91.9808 131.018 92.2923C132.445 92.6037 134.184 92.4814 134.763 93.26C135.343 94.0387 136.313 92.6371 137.271 92.2923C137.683 92.0918 138.134 91.9876 138.592 91.9876C139.05 91.9876 139.502 92.0918 139.913 92.2923C141.028 92.7483 140.738 92.0921 141.106 91.1799C141.474 90.2678 139.579 89.9563 138.587 89.4002ZM144.16 91.4914C143.545 91.4286 142.926 91.5693 142.399 91.8918C142.009 92.2033 143.112 92.7817 143.803 92.9041C144.494 93.0264 144.494 93.2934 145.085 93.0153C145.558 92.8355 146.004 92.5923 146.412 92.2923C146.701 92.0253 145.342 91.5804 144.16 91.4914ZM125.322 79.3556C123.706 78.9551 124.074 80.3456 124.43 81.2243C124.787 82.1031 125.211 82.3367 126.314 82.4034C127.418 82.4702 126.827 80.746 126.66 80.1787C126.492 79.6114 125.824 79.4779 125.322 79.3556ZM164.893 32.8479C162.496 32.4363 160.746 32.0247 156.767 31.3573C154.234 30.8945 151.649 30.7896 149.087 31.0459C147.705 31.1794 146.345 31.1794 145.888 31.1905C144.862 31.1815 143.837 31.2522 142.822 31.4018C141.786 31.6021 143.513 31.9246 145.052 32.225C146.59 32.5253 148.262 32.0581 150.157 32.1137C152.052 32.1694 152.197 33.0147 153.434 33.3262C154.671 33.6377 153.245 33.8713 153.958 34.0604C154.671 34.2495 154.17 34.3829 154.716 34.6833C155.829 35.7641 157.114 36.6547 158.517 37.3196C161.46 38.7656 161.37 38.2428 162.853 38.5877C164.335 38.9325 165.684 39.5443 166.955 39.8113C168.226 40.0782 166.955 37.2083 166.81 36.3073C166.665 35.4063 169.039 36.1293 168.883 35.3062C168.727 34.4831 169.998 35.3062 171.113 34.661C172.227 34.0159 167.3 33.2595 164.893 32.8479ZM177.344 36.4074C176.43 36.0181 174.055 35.2951 174.145 36.0181C174.234 36.7411 174.401 37.3752 174.992 37.4753C177.288 37.8646 178.581 38.1205 178.536 37.6533C178.492 37.1861 178.247 36.7856 177.344 36.4074ZM195.067 45.907C193.049 45.907 190.252 45.2062 192.024 47.1973C193.395 48.7324 194.086 49.5444 195.256 49.9893C196.427 50.4343 197.998 50.6567 197.486 48.9548C196.973 47.2529 197.062 45.8847 195.067 45.907ZM212.032 62.8482C210.739 60.7903 210.828 59.055 209.379 58.0094C207.93 56.9638 197.051 44.9503 200.64 51.9916C201.153 53.0261 205.712 56.2853 204.397 56.441C203.081 56.5967 202.624 57.2196 203.917 58.7213C205.21 60.223 206.972 60.6902 207.429 62.6924C207.543 63.4483 207.847 64.163 208.313 64.7699C208.779 65.3768 209.391 65.856 210.093 66.163C211.363 66.7859 210.973 65.7514 211.82 66.3076C212.667 66.8638 213.024 67.2976 212.935 65.8404C212.846 64.3832 213.314 64.906 212.032 62.8482Z" fill="#4D4D4D"/>
<path d="M216.848 67.3533C210.851 60.2564 214.93 67.5869 213.236 67.4867C211.542 67.3866 211.486 67.3421 211.441 68.0207C211.319 69.9117 212.433 72.8594 212.144 74.439C211.873 75.5299 211.753 76.6527 211.787 77.776C211.921 77.9985 211.698 78.0319 213.715 78.6214C215.733 79.211 216 79.8339 214.83 79.7338C213.66 79.6337 212.879 79.1109 213.325 80.3122C213.771 81.5136 212.868 82.0809 213.024 82.993C213.18 83.9051 215.075 85.7405 213.504 85.7072C211.932 85.6738 210.628 85.1955 211.441 88.3101C212.203 90.8411 212.649 93.4565 212.768 96.0966C212.768 98.021 214.351 101.658 216.703 105.618C219.055 109.578 220.972 113.861 223.279 112.693C225.587 111.525 225.999 109.69 227.247 111.414C228.496 113.138 230.591 114.239 230.781 111.158C231.371 106.573 231.102 101.919 229.989 97.4314C228.262 89.8229 222.856 74.4501 216.848 67.3533ZM153.69 190.725C152.843 190.936 152.754 190.725 152.052 190.858C151.503 190.848 150.975 190.647 150.558 190.291C150.146 189.924 150.268 190.591 150.19 191.003C150.112 191.414 149.834 191.526 149.399 191.581C148.964 191.637 149.8 192.46 150.112 192.416C150.424 192.371 151.227 192.149 151.227 192.338C151.227 192.527 151.717 192.571 151.985 192.449C152.957 192.177 153.963 192.042 154.972 192.049C155.831 192.138 154.972 191.337 155.608 191.003C156.243 190.669 154.526 190.525 153.69 190.725ZM174.858 191.581C174.422 191.506 173.975 191.536 173.554 191.67C173.435 191.67 173.317 191.7 173.212 191.756C173.107 191.812 173.017 191.893 172.951 191.992C172.885 192.091 172.844 192.205 172.833 192.324C172.821 192.442 172.839 192.562 172.885 192.671C173.249 193.103 173.755 193.391 174.312 193.483C174.747 193.539 175.961 193.105 175.56 192.56C175.159 192.015 175.605 191.704 174.858 191.581ZM205.723 92.6483C205.311 92.7818 204.82 93.2156 205.099 93.6049C205.378 93.9942 205.89 94.1722 206.102 93.7161C206.314 93.2601 205.913 92.5927 205.723 92.6483ZM205.589 95.3958C205.779 95.952 206.18 96.1411 206.314 96.0076C206.448 95.8741 206.86 95.3847 206.581 95.2067C206.303 95.0287 205.511 95.14 205.589 95.3958ZM207.328 95.3513C207.25 95.5626 206.838 96.1188 207.15 96.2857C207.741 96.5971 207.796 96.1967 207.863 95.7962C207.93 95.3958 207.384 95.1399 207.328 95.3513ZM208.131 95.1288C208.042 95.3624 208.309 95.6961 208.51 95.7962C208.71 95.8964 208.889 95.6071 208.722 95.2734C208.554 94.9397 208.22 94.8841 208.131 95.1288ZM208.109 93.8607C207.863 93.9386 207.908 94.0721 207.964 94.2612C208.019 94.4503 208.287 94.7395 208.51 94.4503C208.733 94.1611 208.231 93.8162 208.109 93.8607ZM207.774 92.9486C207.607 92.9486 207.183 93.1822 207.429 93.4269C207.51 93.5297 207.626 93.5997 207.755 93.6242C207.884 93.6487 208.017 93.6261 208.131 93.5604C208.193 93.5066 208.237 93.435 208.257 93.3554C208.277 93.2759 208.272 93.1921 208.242 93.1155C208.185 93.0503 208.112 93.0008 208.03 92.9716C207.948 92.9424 207.86 92.9345 207.774 92.9486ZM206.615 93.6049C206.347 93.7495 206.08 93.6049 206.403 94.0832C206.726 94.5615 206.894 94.784 207.128 94.4614C207.362 94.1388 207.44 93.972 207.395 93.8607C207.351 93.7495 206.916 93.438 206.615 93.6049Z" fill="#4D4D4D"/>
<path d="M118.746 2.36929C114.878 0.144579 111.366 -0.13351 108.714 1.25694L108.557 1.34593L108.335 1.46828L102.984 4.61626L105.002 5.80648C104.464 7.39675 104.204 9.06728 104.233 10.7453C104.233 24.9502 114.443 46.4187 117.709 52.9259L113.25 58.0762L118.679 54.8726C118.679 54.8726 133.169 44.016 133.169 27.4196C133.225 18.1759 126.738 6.97445 118.746 2.36929ZM125.69 24.1826C124.843 27.186 122.056 28.1537 118.746 26.2516C116.647 24.8818 114.9 23.0382 113.647 20.8701C112.394 18.702 111.67 16.27 111.534 13.771C111.479 12.5023 111.818 11.2477 112.503 10.178L119.905 14.5496L125.534 24.2827L125.69 24.1826Z" fill="#F84748"/>
<path d="M120.105 14.2048L112.704 9.83323C112.618 9.78413 112.518 9.76833 112.421 9.78886C112.324 9.80939 112.238 9.8648 112.18 9.94447C111.444 11.0816 111.078 12.4182 111.132 13.771C111.272 16.3394 112.016 18.8387 113.304 21.0669C114.592 23.295 116.387 25.1893 118.545 26.5965C119.582 27.2276 120.764 27.5802 121.978 27.6198C122.523 27.6261 123.064 27.5279 123.572 27.3306C124.2 27.0535 124.754 26.6334 125.189 26.1041C125.625 25.5748 125.93 24.951 126.08 24.2828C126.1 24.2048 126.095 24.1228 126.067 24.0474C126.039 23.9721 125.99 23.9068 125.924 23.8601C125.861 23.8088 125.782 23.7812 125.701 23.7822L120.25 14.3494C120.217 14.2885 120.167 14.2383 120.105 14.2048ZM123.271 26.5853C122.546 26.8075 121.78 26.8618 121.03 26.7443C120.281 26.6267 119.568 26.3403 118.946 25.9068C116.907 24.5722 115.209 22.7792 113.99 20.6717C112.77 18.5642 112.063 16.2007 111.924 13.771C111.877 12.7119 112.103 11.6586 112.581 10.712L119.57 14.8388L125.144 24.4719C125.001 24.9369 124.759 25.3661 124.436 25.7306C124.113 26.0951 123.716 26.3865 123.271 26.5853Z" fill="#4D4D4D"/>
<path d="M118.946 2.0245C115.123 -0.17797 111.467 -0.600666 108.647 0.834275H108.546L108.413 0.923264C108.332 0.963538 108.254 1.0081 108.179 1.05675L102.828 4.19359C102.769 4.23016 102.719 4.28077 102.684 4.34092C102.649 4.40107 102.63 4.46891 102.627 4.53843C102.627 4.60861 102.645 4.67772 102.68 4.73842C102.716 4.79912 102.767 4.84917 102.828 4.88326L104.567 5.90663C104.091 7.44829 103.858 9.05441 103.876 10.6675C103.876 24.8167 113.975 46.1851 117.252 52.7925L113.016 57.8426C112.952 57.9124 112.916 58.0037 112.916 58.0984C112.916 58.1932 112.952 58.2845 113.016 58.3543C113.053 58.398 113.1 58.4334 113.151 58.4584C113.203 58.4833 113.26 58.4971 113.317 58.4989C113.383 58.5137 113.452 58.5137 113.518 58.4989L118.991 55.2619C119.136 55.1507 133.615 44.1384 133.615 27.453C133.615 18.0647 127.072 6.67415 118.946 2.0245ZM118.545 54.5055L115.201 56.4855L118.054 53.1484C118.097 53.0821 118.12 53.0049 118.12 52.926C118.12 52.8471 118.097 52.7699 118.054 52.7035C114.9 46.4298 104.612 24.8946 104.612 10.7009C104.587 9.06762 104.843 7.44226 105.37 5.8955C105.4 5.80912 105.398 5.71498 105.365 5.62956C105.333 5.54415 105.271 5.4729 105.191 5.42831L103.753 4.5718L108.591 1.77978C108.658 1.73251 108.728 1.69155 108.803 1.65742L108.892 1.6018C111.478 0.255849 114.878 0.656298 118.489 2.71416C126.37 7.25258 132.768 18.2872 132.768 27.3862C132.824 43.5822 118.656 54.4165 118.545 54.5055Z" fill="#4D4D4D"/>
<path d="M113.317 5.56178C105.325 0.95662 98.8265 4.69414 98.8265 13.9045C98.8265 30.8123 113.317 58.0317 113.317 58.0317C113.317 58.0317 127.808 47.1751 127.808 30.5787C127.786 21.3795 121.309 10.1781 113.317 5.56178ZM113.317 29.4441C111.215 28.0768 109.465 26.2341 108.21 24.0656C106.955 21.8971 106.23 19.4639 106.094 16.9634C106.094 12.3694 109.327 10.5118 113.317 12.8032C115.42 14.1705 117.169 16.0132 118.424 18.1817C119.679 20.3502 120.404 22.7834 120.54 25.2839C120.54 29.889 117.308 31.7467 113.317 29.4552V29.4441Z" fill="#FA5A2A"/>
<path d="M113.518 12.4695C111.456 11.2904 109.505 11.1124 108.011 11.969C106.518 12.8255 105.704 14.6052 105.704 16.9746C105.844 19.5429 106.588 22.0423 107.876 24.2705C109.164 26.4986 110.959 28.3929 113.117 29.8C114.148 30.4361 115.327 30.7927 116.539 30.8345C117.268 30.8427 117.987 30.6585 118.623 30.3006C120.117 29.4441 120.93 27.6643 120.93 25.295C120.79 22.7266 120.046 20.2272 118.759 17.9991C117.471 15.7709 115.675 13.8767 113.518 12.4695ZM118.222 29.6109C116.984 30.3229 115.312 30.1449 113.518 29.1104C111.478 27.7758 109.781 25.9828 108.561 23.8753C107.342 21.7677 106.634 19.4043 106.495 16.9746C106.495 14.9056 107.175 13.3705 108.413 12.6586C109.65 11.9467 111.322 12.1247 113.117 13.1592C115.156 14.4938 116.853 16.2867 118.073 18.3943C119.292 20.5018 120 22.8653 120.139 25.295C120.139 27.364 119.459 28.9213 118.222 29.6109Z" fill="#4D4D4D"/>
<path d="M113.518 5.22807C109.516 2.92549 105.715 2.56954 102.884 4.21583C100.053 5.86211 98.4252 9.31042 98.4252 13.9156C98.4252 30.7344 112.793 57.9538 112.916 58.2319C112.976 58.3307 113.072 58.4025 113.183 58.4321H113.273C113.357 58.4299 113.438 58.4028 113.507 58.3543C115.838 56.4846 117.957 54.3659 119.827 52.0361L119.214 51.5355C117.476 53.6822 115.531 55.6531 113.406 57.4199C111.623 53.9048 99.2054 29.3885 99.2054 13.9156C99.2054 9.61076 100.643 6.40717 103.252 4.90549C105.86 3.4038 109.349 3.79313 113.083 5.91773C120.953 10.4562 127.362 21.4907 127.362 30.5898C127.356 33.6114 126.878 36.6136 125.946 39.4887L126.715 39.7223C127.679 36.773 128.175 33.6918 128.187 30.5898C128.187 21.2683 121.61 9.88885 113.518 5.22807Z" fill="#4D4D4D"/>
<path d="M161.125 92.448C158.729 91.0687 156.555 90.9019 154.95 91.7361H154.861L154.716 91.814L151.372 93.7606L152.71 94.5504C152.374 95.5272 152.212 96.5548 152.23 97.5871C152.23 106.364 158.528 119.623 160.557 123.65L157.77 126.809L161.114 124.829C161.114 124.829 170.031 118.155 170.031 107.876C170.054 102.203 166.086 95.2845 161.125 92.448ZM165.406 105.908C164.882 107.765 163.176 108.366 161.125 107.187C159.827 106.345 158.747 105.209 157.972 103.871C157.197 102.533 156.75 101.032 156.667 99.4893C156.632 98.7034 156.842 97.9262 157.269 97.2645L161.839 99.9676L165.305 105.974L165.406 105.908Z" fill="#F84748"/>
<path d="M161.961 99.7562L157.391 97.0532C157.337 97.0215 157.273 97.0107 157.211 97.023C157.15 97.0353 157.095 97.0698 157.057 97.1199C156.612 97.8283 156.391 98.6538 156.421 99.4893C156.508 101.074 156.968 102.617 157.764 103.991C158.56 105.365 159.669 106.532 161.003 107.398C161.636 107.794 162.363 108.016 163.109 108.043C163.449 108.044 163.786 107.98 164.101 107.854C164.489 107.683 164.83 107.424 165.099 107.097C165.368 106.771 165.557 106.386 165.651 105.974C165.663 105.925 165.659 105.873 165.641 105.826C165.624 105.778 165.592 105.737 165.551 105.707C165.503 105.696 165.453 105.696 165.406 105.707L162.062 99.8897C162.047 99.8339 162.011 99.786 161.961 99.7562ZM163.912 107.398C163.465 107.534 162.993 107.567 162.531 107.494C162.069 107.42 161.631 107.243 161.248 106.975C159.987 106.155 158.937 105.05 158.184 103.749C157.431 102.449 156.995 100.989 156.912 99.4893C156.888 98.8318 157.038 98.1796 157.347 97.5982L161.627 100.112L165.06 106.063C164.975 106.355 164.829 106.625 164.631 106.855C164.433 107.085 164.188 107.27 163.912 107.398Z" fill="#4D4D4D"/>
<path d="M161.248 92.2256C158.885 90.8685 156.622 90.6126 154.883 91.5025H154.794L154.649 91.5915L151.305 93.5381C151.271 93.5617 151.243 93.5932 151.223 93.63C151.204 93.6669 151.194 93.7079 151.194 93.7495C151.194 93.7909 151.205 93.8316 151.224 93.8683C151.244 93.905 151.271 93.9367 151.305 93.9608L152.42 94.5949C152.128 95.5424 151.986 96.5293 151.996 97.5204C151.996 106.264 158.227 119.467 160.267 123.538L157.636 126.597C157.598 126.64 157.577 126.696 157.577 126.753C157.577 126.811 157.598 126.866 157.636 126.909C157.658 126.939 157.686 126.963 157.719 126.978C157.753 126.994 157.789 127.001 157.826 126.998C157.866 127.008 157.908 127.008 157.948 126.998L161.292 125.007C161.382 124.94 170.332 118.11 170.332 107.854C170.31 102.137 166.242 95.1066 161.248 92.2256ZM160.992 124.584L158.929 125.808L160.691 123.761C160.718 123.722 160.733 123.675 160.733 123.627C160.733 123.58 160.718 123.533 160.691 123.494C158.751 119.612 152.397 106.286 152.397 97.5426C152.384 96.5378 152.538 95.5378 152.854 94.5837C152.875 94.5316 152.877 94.4736 152.858 94.4205C152.84 94.3673 152.803 94.3226 152.754 94.2945L151.862 93.7717L154.816 92.0364L154.95 91.9586C156.544 91.1243 158.651 91.369 160.88 92.6594C165.74 95.4514 169.686 102.292 169.686 107.888C169.809 117.91 161.058 124.584 160.992 124.584Z" fill="#4D4D4D"/>
<path d="M157.77 94.4169C152.832 91.5804 148.853 93.883 148.853 99.5671C148.853 110.012 157.77 126.82 157.77 126.82C157.77 126.82 166.687 120.146 166.687 109.868C166.71 104.183 162.742 97.2646 157.77 94.4169ZM157.77 109.167C156.472 108.325 155.392 107.189 154.617 105.851C153.842 104.513 153.395 103.012 153.311 101.469C153.311 98.6328 155.307 97.4759 157.77 98.8997C159.068 99.7418 160.149 100.878 160.923 102.216C161.698 103.553 162.145 105.054 162.229 106.597C162.229 109.434 160.234 110.591 157.77 109.167Z" fill="#FA5A2A"/>
<path d="M157.893 98.6884C157.429 98.2909 156.852 98.0471 156.243 97.9906C155.634 97.9341 155.022 98.0676 154.493 98.3728C153.963 98.6781 153.541 99.1399 153.286 99.6945C153.03 100.249 152.953 100.869 153.066 101.469C153.154 103.054 153.614 104.596 154.41 105.97C155.206 107.344 156.315 108.512 157.648 109.378C158.28 109.776 159.007 109.999 159.754 110.023C160.207 110.027 160.653 109.912 161.047 109.69C161.541 109.349 161.935 108.883 162.186 108.339C162.437 107.795 162.536 107.193 162.474 106.597C162.385 105.013 161.924 103.472 161.128 102.098C160.333 100.724 159.224 99.556 157.893 98.6884ZM160.791 109.267C160.324 109.479 159.809 109.561 159.299 109.507C158.789 109.452 158.304 109.261 157.893 108.955C156.632 108.135 155.582 107.03 154.829 105.729C154.076 104.429 153.64 102.969 153.557 101.469C153.441 100.956 153.493 100.419 153.704 99.9365C153.916 99.4544 154.276 99.0523 154.733 98.789C155.19 98.5257 155.719 98.415 156.243 98.4729C156.768 98.5308 157.26 98.7544 157.648 99.1111C158.906 99.9334 159.953 101.039 160.704 102.34C161.455 103.64 161.89 105.098 161.972 106.597C162.032 107.107 161.953 107.623 161.746 108.092C161.538 108.562 161.208 108.967 160.791 109.267Z" fill="#4D4D4D"/>
<path d="M157.893 94.2056C155.418 92.7929 153.088 92.5704 151.327 93.5826C149.566 94.5949 148.585 96.7751 148.585 99.5671C148.585 109.957 157.503 126.764 157.503 126.942C157.543 127.001 157.602 127.044 157.67 127.065C157.717 127.079 157.767 127.079 157.815 127.065C159.256 125.916 160.565 124.61 161.716 123.171L161.337 122.86C160.263 124.183 159.06 125.398 157.748 126.486C156.633 124.261 148.975 109.178 148.975 99.6116C148.975 96.9531 149.856 94.9842 151.472 94.0498C153.088 93.1155 155.24 93.3491 157.547 94.6839C162.407 97.4759 166.353 104.317 166.353 109.912C166.349 111.769 166.059 113.615 165.495 115.385L165.963 115.541C166.548 113.721 166.849 111.823 166.855 109.912C166.955 104.117 162.886 97.0866 157.893 94.2056Z" fill="#4D4D4D"/>
<path d="M268.167 187.844C263.028 187.844 255.705 186.665 246.13 184.307C224.817 179.045 192.225 167.821 149.276 150.936C46.2588 110.435 -2.5414 86.4635 0.10036 77.6537C1.33764 73.5268 13.1531 73.0596 36.2156 76.2076C53.0137 78.4991 69.6557 81.9696 69.834 82.003L69.6779 82.7928C51.2748 78.9774 3.06538 70.568 0.869481 77.865C-0.824815 83.5047 23.5976 100.635 149.577 150.168C248.571 189.101 273.094 190.291 276.17 184.429C281.599 174.295 229.243 137.955 228.708 137.587L229.176 136.92C231.405 138.433 282.68 174.039 276.884 184.751C275.802 186.876 272.915 187.844 268.167 187.844Z" fill="#022F5B"/>
<path d="M28.7361 145.919C16.7088 145.919 10.2883 144.173 9.18481 140.635C5.64017 129.312 61.5073 104.317 63.8816 103.26L64.216 103.994C63.6364 104.25 6.62108 129.756 9.95394 140.402C11.8043 146.319 34.0419 149.601 129.424 131.614C185.425 121.047 227.894 109.245 255.649 96.5304C278.154 86.2188 289.658 75.6737 288.053 66.8193C285.5 52.8592 251.157 46.6745 213.046 53.3264L212.913 52.5255C252.116 45.6956 286.18 52.0361 288.844 66.6858C291.887 83.3712 251.636 109.378 129.569 132.404C88.2259 140.19 57.1156 144.64 37.0515 145.685C34.0419 145.841 31.2701 145.919 28.7361 145.919Z" fill="#022F5B"/>
<path d="M221.195 38.6544C217.695 36.6299 214.507 36.4297 212.177 37.6199L212.043 37.7089L211.787 37.8201L206.938 40.6678L208.766 41.7801C208.281 43.2129 208.044 44.7174 208.064 46.2296C208.064 59.0773 217.305 78.4879 220.258 84.3834L216.246 88.9886L221.15 86.0853C221.15 86.0853 234.236 76.2743 234.236 61.2686C234.281 52.9371 228.429 42.8146 221.195 38.6544ZM227.481 58.3654C226.712 61.0906 224.137 61.9694 221.195 60.2453C219.297 59.0028 217.718 57.3327 216.585 55.3697C215.453 53.4066 214.798 51.2055 214.674 48.9437C214.622 47.7925 214.93 46.6536 215.555 45.6845L222.243 49.6445L227.325 58.4432L227.481 58.3654Z" fill="#F84748"/>
<path d="M222.432 49.3553L215.744 45.3953C215.665 45.3515 215.572 45.3386 215.483 45.3592C215.395 45.3797 215.317 45.4322 215.265 45.5065C214.607 46.5375 214.28 47.7445 214.328 48.966C214.454 51.2861 215.124 53.5444 216.286 55.558C217.448 57.5715 219.068 59.284 221.016 60.5567C221.952 61.1276 223.019 61.4494 224.115 61.4911C224.608 61.4968 225.098 61.4021 225.553 61.213C226.113 60.9594 226.606 60.579 226.993 60.1021C227.38 59.6252 227.65 59.0648 227.783 58.4655C227.802 58.3947 227.799 58.3198 227.775 58.2504C227.752 58.181 227.707 58.1203 227.649 58.0762C227.586 58.0339 227.513 58.0107 227.437 58.0094L222.51 49.4776C222.494 49.4315 222.467 49.3896 222.432 49.3553ZM225.286 60.5456C224.631 60.7453 223.94 60.794 223.264 60.688C222.589 60.582 221.946 60.3241 221.384 59.9338C219.538 58.7306 218.001 57.111 216.897 55.2058C215.794 53.3006 215.154 51.1632 215.031 48.966C214.999 48.0034 215.218 47.049 215.666 46.1962L221.986 49.9226L227.013 58.6323C226.882 59.0574 226.66 59.4488 226.361 59.7793C226.063 60.1097 225.696 60.3712 225.286 60.5456Z" fill="#4D4D4D"/>
<path d="M221.384 38.343C217.918 36.3519 214.618 35.9625 212.066 37.2306H211.976L211.854 37.2974L211.642 37.4197L206.804 40.2674C206.75 40.2989 206.704 40.3443 206.673 40.399C206.642 40.4537 206.625 40.5158 206.626 40.5788C206.627 40.6416 206.643 40.7032 206.674 40.7578C206.706 40.8123 206.75 40.8579 206.804 40.8903L208.376 41.8135C207.946 43.2037 207.735 44.6523 207.752 46.1072C207.752 58.9105 216.881 78.2321 219.868 84.2055L216.011 88.6549C215.957 88.7207 215.927 88.8033 215.927 88.8885C215.927 88.9737 215.957 89.0563 216.011 89.1221C216.047 89.1606 216.09 89.1914 216.138 89.2124C216.186 89.2335 216.238 89.2444 216.29 89.2445C216.349 89.2595 216.41 89.2595 216.469 89.2445L221.418 86.3189C221.551 86.2188 234.649 76.2187 234.649 61.213C234.649 52.837 228.696 42.5477 221.384 38.343ZM221.016 85.785L217.984 87.5648L220.57 84.5392C220.617 84.4845 220.647 84.4179 220.656 84.347C220.666 84.2761 220.656 84.2039 220.626 84.1387C217.773 78.4991 208.443 58.955 208.443 46.1851C208.417 44.7143 208.647 43.2503 209.123 41.858C209.149 41.7776 209.147 41.6904 209.117 41.6113C209.086 41.5323 209.029 41.4662 208.956 41.4242L207.663 40.6567L211.976 38.1205L212.177 37.9981H212.255H212.311C214.64 36.7857 217.717 37.1416 220.983 39.0326C228.106 43.1261 233.891 53.1373 233.891 61.2798C233.924 75.9184 221.117 85.7072 221.016 85.785Z" fill="#4D4D4D"/>
<path d="M216.246 41.5465C209.011 37.3863 203.159 40.7568 203.159 49.0883C203.204 64.3832 216.246 88.9886 216.246 88.9886C216.246 88.9886 229.332 79.1665 229.332 64.1719C229.376 55.8403 223.513 45.7068 216.246 41.5465ZM216.246 63.1374C214.345 61.9023 212.763 60.2372 211.628 58.2774C210.493 56.3176 209.837 54.1183 209.714 51.8581C209.714 47.709 212.634 46.0182 216.246 48.0983C218.141 49.3386 219.718 51.0051 220.85 52.9641C221.983 54.923 222.639 57.1197 222.766 59.3776C222.811 63.5267 219.891 65.2175 216.246 63.1374Z" fill="#FA5A2A"/>
<path d="M216.469 47.8314C214.607 46.719 212.846 46.5966 211.497 47.3753C210.148 48.1539 209.402 49.7557 209.402 51.9026C209.527 54.2228 210.197 56.481 211.359 58.4946C212.521 60.5082 214.142 62.2206 216.09 63.4933C217.019 64.0719 218.083 64.3979 219.177 64.4389C219.838 64.4458 220.488 64.2769 221.061 63.9494C222.41 63.1708 223.157 61.569 223.157 59.4221C223.031 57.1021 222.36 54.8442 221.198 52.8308C220.036 50.8173 218.416 49.1048 216.469 47.8314ZM220.704 63.282C219.59 63.9272 218.074 63.7714 216.446 62.8259C214.6 61.6241 213.063 60.0046 211.961 58.0989C210.859 56.1932 210.223 54.0551 210.104 51.8581C210.104 49.9893 210.717 48.5989 211.832 47.9537C212.946 47.3085 214.462 47.4754 216.09 48.4098C217.935 49.6129 219.471 51.2328 220.573 53.1381C221.675 55.0435 222.312 57.181 222.432 59.3776C222.454 61.2575 221.819 62.6368 220.704 63.282Z" fill="#4D4D4D"/>
<path d="M216.469 41.2351C212.857 39.155 209.446 38.8324 206.849 40.3229C204.252 41.8135 202.87 44.9281 202.87 49.0883C202.87 64.2943 215.856 88.9107 215.989 89.1332C216.045 89.2222 216.133 89.2861 216.235 89.3112H216.246C216.322 89.3128 216.396 89.2893 216.457 89.2444C218.567 87.5565 220.484 85.643 222.176 83.538L221.607 83.082C220.038 85.0231 218.279 86.8042 216.357 88.399C214.719 85.2177 203.516 63.0484 203.516 49.055C203.516 45.1617 204.82 42.2696 207.172 40.9125C209.524 39.5554 212.679 39.878 216.09 41.8246C223.201 45.9292 228.997 55.9293 228.997 64.1385C228.988 66.8583 228.555 69.56 227.716 72.1475L228.407 72.3588C229.266 69.7029 229.706 66.9296 229.711 64.1385C229.733 55.7402 223.781 45.4509 216.469 41.2351Z" fill="#4D4D4D"/>
</g>
<defs>
<linearGradient id="paint0_linear_681_4321" x1="148.463" y1="111.036" x2="148.463" y2="165.686" gradientUnits="userSpaceOnUse">
<stop stop-color="#0F83F1"/>
<stop offset="1" stop-color="#022E86"/>
</linearGradient>
<clipPath id="clip0_681_4321">
<rect width="289" height="357" fill="white"/>
</clipPath>
</defs>
</svg>
