<svg width="30" height="20" viewBox="0 0 30 20" fill="none" xmlns="http://www.w3.org/2000/svg">
<path d="M27.7532 0.172485H2.24677C1.00588 0.172485 0 1.17842 0 2.41926V6.72419H29.9999V2.41926C29.9999 1.17842 28.9941 0.172485 27.7532 0.172485Z" fill="#73AF00"/>
<path d="M0 17.5809C0 18.8217 1.00588 19.8277 2.24677 19.8277H27.7532C28.994 19.8277 29.9999 18.8218 29.9999 17.5809V13.276H0V17.5809Z" fill="#FF4B55"/>
<path d="M0 6.72406H29.9999V13.2754H0V6.72406ZM0.081328 6.3776H0.0858983C0.13084 6.3776 0.167285 6.34121 0.167285 6.29627V6.12002C0.167285 6.07508 0.203671 6.03869 0.248671 6.03869H0.590096C0.635038 6.03869 0.671483 6.07508 0.671483 6.12002V6.29627C0.671483 6.34121 0.70787 6.3776 0.75287 6.3776H1.42681C1.47175 6.3776 1.50814 6.34121 1.50814 6.29627V5.94828C1.50814 5.90334 1.47175 5.86695 1.42681 5.86695H1.08756C1.04262 5.86695 1.00623 5.90334 1.00623 5.94828V5.95725C1.00623 6.00219 1.04262 6.03857 1.08756 6.03857H1.25953C1.30447 6.03857 1.34092 6.07496 1.34092 6.1199V6.12875C1.34092 6.17369 1.30453 6.21008 1.25953 6.21008H0.920154C0.909469 6.21009 0.898888 6.20799 0.889014 6.2039C0.87914 6.19982 0.870167 6.19383 0.862609 6.18628C0.855051 6.17873 0.849055 6.16976 0.844964 6.15989C0.840873 6.15002 0.838768 6.13944 0.838768 6.12875V5.94822C0.838768 5.90328 0.802323 5.8669 0.757381 5.8669H0.081328C0.0363866 5.8669 0 5.90328 0 5.94822V6.29621C0 6.34109 0.0363866 6.3776 0.081328 6.3776ZM0.418183 6.3776H0.422812C0.467753 6.3776 0.50414 6.34121 0.50414 6.29627V6.29164C0.50414 6.2467 0.467753 6.21031 0.422812 6.21031H0.418183C0.373241 6.21031 0.336796 6.24676 0.336796 6.29164V6.29627C0.336827 6.31784 0.345414 6.33852 0.360672 6.35376C0.37593 6.36901 0.396613 6.37758 0.418183 6.3776ZM0.081328 5.69527H2.0983C2.14324 5.69527 2.17968 5.65889 2.17968 5.61395V5.60504C2.17968 5.5601 2.1433 5.52371 2.0983 5.52371H0.081328C0.0363866 5.52371 0 5.5601 0 5.60504V5.61395C0 5.65889 0.0363866 5.69527 0.081328 5.69527ZM2.0983 6.3776H1.75904C1.74835 6.3776 1.73777 6.37551 1.7279 6.37142C1.71802 6.36734 1.70905 6.36135 1.70149 6.3538C1.69394 6.34625 1.68794 6.33728 1.68385 6.32741C1.67976 6.31753 1.67765 6.30695 1.67765 6.29627V5.94828C1.67765 5.90334 1.71404 5.86695 1.75904 5.86695H2.2657C2.31064 5.86695 2.34709 5.83051 2.34709 5.78563V5.6051C2.34709 5.56016 2.38347 5.52377 2.42841 5.52377H2.43292C2.47787 5.52377 2.51431 5.56016 2.51431 5.6051V6.12893C2.51431 6.17387 2.5507 6.21025 2.59564 6.21025H2.60027C2.64521 6.21025 2.6816 6.17387 2.6816 6.12893V5.6051C2.6816 5.56016 2.71798 5.52377 2.76292 5.52377H2.76744C2.81238 5.52377 2.84882 5.56016 2.84882 5.6051V6.12893C2.84882 6.17387 2.88521 6.21025 2.93015 6.21025H2.93689C2.98183 6.21025 3.01828 6.17387 3.01828 6.12893V5.6051C3.01828 5.56016 3.05466 5.52377 3.0996 5.52377H3.10206C3.14701 5.52377 3.18339 5.56016 3.18339 5.6051V6.29633C3.18339 6.34127 3.14701 6.37766 3.10206 6.37766H2.42853C2.41785 6.37766 2.40727 6.37557 2.3974 6.37148C2.38753 6.3674 2.37856 6.36141 2.37101 6.35385C2.36345 6.3463 2.35746 6.33733 2.35338 6.32746C2.34929 6.31759 2.34719 6.30701 2.3472 6.29633V6.12008C2.3472 6.07514 2.31082 6.03875 2.26582 6.03875H1.92656C1.88162 6.03875 1.84517 6.07514 1.84517 6.12008V6.12893C1.84517 6.17387 1.88156 6.21025 1.92656 6.21025H2.09841C2.14336 6.21025 2.1798 6.2467 2.1798 6.29158V6.29621C2.17975 6.3178 2.17115 6.33849 2.15587 6.35375C2.14059 6.36901 2.11989 6.37758 2.0983 6.3776ZM3.43464 6.3776H3.44138C3.48632 6.3776 3.52277 6.34121 3.52277 6.29627V6.12002C3.52277 6.07508 3.55915 6.03869 3.60409 6.03869H3.94124C3.98618 6.03869 4.02263 6.07508 4.02263 6.12002V6.29627C4.02263 6.34121 4.05902 6.3776 4.10396 6.3776H4.7779C4.82284 6.3776 4.85923 6.34121 4.85923 6.29627V5.94828C4.85923 5.90334 4.82284 5.86695 4.7779 5.86695H4.43864C4.3937 5.86695 4.35726 5.90334 4.35726 5.94828V5.95725C4.35726 6.00219 4.39364 6.03857 4.43864 6.03857H4.61062C4.65556 6.03857 4.69194 6.07496 4.69194 6.1199V6.12875C4.69194 6.17369 4.65556 6.21008 4.61062 6.21008H4.27124C4.26056 6.21009 4.24998 6.20799 4.24011 6.2039C4.23024 6.19982 4.22127 6.19383 4.21372 6.18627C4.20616 6.17872 4.20017 6.16975 4.19609 6.15988C4.192 6.15001 4.18991 6.13943 4.18991 6.12875V5.94822C4.18991 5.90328 4.15353 5.8669 4.10859 5.8669H3.43464C3.3897 5.8669 3.35331 5.90328 3.35331 5.94822V6.29621C3.35333 6.31778 3.3619 6.33846 3.37715 6.35372C3.39239 6.36898 3.41307 6.37757 3.43464 6.3776ZM3.76939 6.3776H3.77396C3.8189 6.3776 3.85529 6.34121 3.85529 6.29627V6.29164C3.85529 6.2467 3.8189 6.21031 3.77396 6.21031H3.76939C3.72445 6.21031 3.68806 6.24676 3.68806 6.29164V6.29627C3.68806 6.34109 3.72445 6.3776 3.76939 6.3776ZM3.43464 5.69527H5.4495C5.49444 5.69527 5.53089 5.65889 5.53089 5.61395V5.60504C5.53089 5.5601 5.4945 5.52371 5.4495 5.52371H3.43464C3.3897 5.52371 3.35331 5.5601 3.35331 5.60504V5.61395C3.35331 5.65889 3.38976 5.69527 3.43464 5.69527ZM5.44956 6.3776H5.10813C5.09745 6.3776 5.08687 6.37551 5.07699 6.37142C5.06712 6.36734 5.05815 6.36135 5.05059 6.3538C5.04303 6.34625 5.03703 6.33728 5.03294 6.32741C5.02885 6.31753 5.02675 6.30695 5.02675 6.29627V5.94828C5.02675 5.90334 5.06313 5.86695 5.10813 5.86695H5.61485C5.65979 5.86695 5.69618 5.83051 5.69618 5.78563V5.6051C5.69618 5.56016 5.73257 5.52377 5.77757 5.52377H5.78431C5.82925 5.52377 5.86563 5.56016 5.86563 5.6051V6.12893C5.86563 6.17387 5.90202 6.21025 5.94702 6.21025H5.95376C5.9987 6.21025 6.03514 6.17387 6.03514 6.12893V5.6051C6.03514 5.56016 6.07153 5.52377 6.11653 5.52377H6.11899C6.16393 5.52377 6.20032 5.56016 6.20032 5.6051V6.12893C6.20032 6.17387 6.23671 6.21025 6.28171 6.21025H6.28844C6.33339 6.21025 6.36983 6.17387 6.36983 6.12893V5.6051C6.36983 5.56016 6.40622 5.52377 6.45116 5.52377H6.45573C6.50067 5.52377 6.53706 5.56016 6.53706 5.6051V6.29633C6.53706 6.34127 6.50067 6.37766 6.45573 6.37766H5.77757C5.76688 6.37766 5.7563 6.37557 5.74643 6.37148C5.73655 6.3674 5.72758 6.36141 5.72002 6.35386C5.71246 6.3463 5.70647 6.33733 5.70238 6.32746C5.69829 6.31759 5.69618 6.30701 5.69618 6.29633V6.12008C5.69618 6.07514 5.65979 6.03875 5.61485 6.03875H5.2777C5.23276 6.03875 5.19638 6.07514 5.19638 6.12008V6.12893C5.19638 6.17387 5.23276 6.21025 5.2777 6.21025H5.44968C5.49462 6.21025 5.53106 6.2467 5.53106 6.29158V6.29621C5.531 6.3178 5.52239 6.33848 5.50712 6.35373C5.49184 6.36899 5.47115 6.37757 5.44956 6.3776ZM6.78596 6.3776H6.79047C6.83542 6.3776 6.8718 6.34121 6.8718 6.29627V6.12002C6.8718 6.07508 6.90819 6.03869 6.95313 6.03869H7.29251C7.33745 6.03869 7.37383 6.07508 7.37383 6.12002V6.29627C7.37383 6.34121 7.41028 6.3776 7.45522 6.3776H8.13127C8.17621 6.3776 8.21266 6.34121 8.21266 6.29627V5.94828C8.21266 5.90334 8.17627 5.86695 8.13127 5.86695H7.79202C7.74707 5.86695 7.71063 5.90334 7.71063 5.94828V5.95725C7.71063 6.00219 7.74702 6.03857 7.79202 6.03857H7.96399C8.00893 6.03857 8.04537 6.07496 8.04537 6.1199V6.12875C8.04537 6.17369 8.00899 6.21008 7.96399 6.21008H7.62256C7.61188 6.21009 7.6013 6.20799 7.59143 6.2039C7.58156 6.19982 7.57259 6.19383 7.56504 6.18627C7.55749 6.17872 7.55149 6.16975 7.54741 6.15988C7.54333 6.15001 7.54123 6.13943 7.54123 6.12875V5.94822C7.54123 5.90328 7.50485 5.8669 7.45991 5.8669H6.78596C6.74102 5.8669 6.70464 5.90328 6.70464 5.94822V6.29621C6.70463 6.3069 6.70673 6.31748 6.71081 6.32735C6.71489 6.33723 6.72088 6.3462 6.72844 6.35376C6.73599 6.36131 6.74496 6.36731 6.75483 6.3714C6.7647 6.37549 6.77528 6.3776 6.78596 6.3776ZM7.12065 6.3776H7.12522C7.17016 6.3776 7.20655 6.34121 7.20655 6.29627V6.29164C7.20655 6.2467 7.17016 6.21031 7.12522 6.21031H7.12065C7.07571 6.21031 7.03932 6.24676 7.03932 6.29164V6.29627C7.03932 6.31784 7.04789 6.33853 7.06314 6.35378C7.07839 6.36903 7.09908 6.3776 7.12065 6.3776ZM6.78596 5.69527H8.80299C8.84793 5.69527 8.88438 5.65889 8.88438 5.61395V5.60504C8.88438 5.5601 8.84799 5.52371 8.80299 5.52371H6.78596C6.74102 5.52371 6.70464 5.5601 6.70464 5.60504V5.61395C6.70462 5.62463 6.70671 5.63521 6.71079 5.64509C6.71488 5.65496 6.72087 5.66393 6.72842 5.67149C6.73598 5.67904 6.74495 5.68503 6.75482 5.68912C6.7647 5.6932 6.77528 5.69529 6.78596 5.69527ZM8.80299 6.3776H8.46157C8.45088 6.3776 8.4403 6.37551 8.43042 6.37142C8.42055 6.36734 8.41158 6.36135 8.40402 6.3538C8.39646 6.34625 8.39047 6.33728 8.38637 6.32741C8.38228 6.31753 8.38018 6.30695 8.38018 6.29627V5.94828C8.38018 5.90334 8.41656 5.86695 8.46157 5.86695H8.96817C9.01311 5.86695 9.04949 5.83051 9.04949 5.78563V5.6051C9.04949 5.56016 9.08594 5.52377 9.13088 5.52377H9.13551C9.18045 5.52377 9.21684 5.56016 9.21684 5.6051V6.12893C9.21684 6.17387 9.25328 6.21025 9.29822 6.21025H9.30496C9.3499 6.21025 9.38635 6.17387 9.38635 6.12893V5.6051C9.38635 5.56016 9.42274 5.52377 9.46768 5.52377H9.47447C9.51941 5.52377 9.5558 5.56016 9.5558 5.6051V6.12893C9.5558 6.17387 9.59225 6.21025 9.63713 6.21025H9.63959C9.68453 6.21025 9.72098 6.17387 9.72098 6.12893V5.6051C9.72098 5.56016 9.75736 5.52377 9.80231 5.52377H9.80688C9.85182 5.52377 9.8882 5.56016 9.8882 5.6051V6.29633C9.8882 6.34127 9.85176 6.37766 9.80688 6.37766H9.1307C9.12002 6.37766 9.10944 6.37557 9.09956 6.37148C9.08969 6.3674 9.08072 6.36141 9.07316 6.35386C9.0656 6.3463 9.0596 6.33733 9.05551 6.32746C9.05142 6.31759 9.04932 6.30701 9.04932 6.29633V6.12008C9.04932 6.07514 9.01293 6.03875 8.96799 6.03875H8.62873C8.58379 6.03875 8.54735 6.07514 8.54735 6.12008V6.12893C8.54735 6.17387 8.58373 6.21025 8.62873 6.21025H8.80293C8.84787 6.21025 8.88432 6.2467 8.88432 6.29158V6.29621C8.88433 6.3069 8.88223 6.31748 8.87814 6.32735C8.87406 6.33723 8.86807 6.3462 8.86052 6.35376C8.85297 6.36131 8.844 6.36731 8.83413 6.3714C8.82426 6.37549 8.81368 6.3776 8.80299 6.3776ZM10.1371 6.3776H10.1416C10.1866 6.3776 10.2229 6.34121 10.2229 6.29627V6.12002C10.2229 6.07508 10.2594 6.03869 10.3043 6.03869H10.6435C10.6885 6.03869 10.7249 6.07508 10.7249 6.12002V6.29627C10.7249 6.34121 10.7613 6.3776 10.8063 6.3776H11.4825C11.5274 6.3776 11.5638 6.34121 11.5638 6.29627V5.94828C11.5638 5.90334 11.5274 5.86695 11.4825 5.86695H11.1411C11.0961 5.86695 11.0597 5.90334 11.0597 5.94828V5.95725C11.0597 6.00219 11.0961 6.03857 11.1411 6.03857H11.313C11.358 6.03857 11.3944 6.07496 11.3944 6.1199V6.12875C11.3944 6.17369 11.358 6.21008 11.313 6.21008H10.9738C10.9631 6.21009 10.9525 6.20799 10.9426 6.2039C10.9328 6.19982 10.9238 6.19383 10.9162 6.18627C10.9087 6.17872 10.9027 6.16975 10.8986 6.15988C10.8945 6.15001 10.8924 6.13943 10.8924 6.12875V5.94822C10.8924 5.90328 10.856 5.8669 10.8111 5.8669H10.1371C10.0922 5.8669 10.0557 5.90328 10.0557 5.94822V6.29621C10.0558 6.31779 10.0643 6.33847 10.0796 6.35373C10.0948 6.36898 10.1155 6.37757 10.1371 6.3776ZM10.4719 6.3776H10.4764C10.5213 6.3776 10.5577 6.34121 10.5577 6.29627V6.29164C10.5577 6.2467 10.5213 6.21031 10.4764 6.21031H10.4719C10.4269 6.21031 10.3905 6.24676 10.3905 6.29164V6.29627C10.3905 6.31784 10.3991 6.33852 10.4143 6.35376C10.4296 6.36901 10.4503 6.37758 10.4719 6.3776ZM10.1371 5.69527H12.152C12.1969 5.69527 12.2333 5.65889 12.2333 5.61395V5.60504C12.2333 5.5601 12.1969 5.52371 12.152 5.52371H10.1371C10.0922 5.52371 10.0557 5.5601 10.0557 5.60504V5.61395C10.0558 5.63552 10.0643 5.65619 10.0796 5.67144C10.0949 5.68669 10.1155 5.69526 10.1371 5.69527ZM12.152 6.3776H11.8106C11.7999 6.3776 11.7893 6.37551 11.7795 6.37142C11.7696 6.36734 11.7606 6.36135 11.7531 6.35379C11.7455 6.34624 11.7395 6.33727 11.7354 6.3274C11.7314 6.31753 11.7293 6.30695 11.7293 6.29627V5.94828C11.7293 5.90334 11.7657 5.86695 11.8106 5.86695H12.3216C12.3665 5.86695 12.403 5.83051 12.403 5.78563V5.6051C12.403 5.56016 12.4394 5.52377 12.4843 5.52377H12.4889C12.5338 5.52377 12.5702 5.56016 12.5702 5.6051V6.12893C12.5702 6.17387 12.6066 6.21025 12.6515 6.21025H12.654C12.6989 6.21025 12.7354 6.17387 12.7354 6.12893V5.6051C12.7354 5.56016 12.7718 5.52377 12.8167 5.52377H12.8235C12.8685 5.52377 12.9048 5.56016 12.9048 5.6051V6.12893C12.9048 6.17387 12.9412 6.21025 12.9862 6.21025H12.9908C13.0357 6.21025 13.0721 6.17387 13.0721 6.12893V5.6051C13.0721 5.56016 13.1086 5.52377 13.1535 5.52377H13.158C13.203 5.52377 13.2393 5.56016 13.2393 5.6051V6.29633C13.2393 6.34127 13.203 6.37766 13.158 6.37766H12.4841C12.4735 6.37766 12.4629 6.37557 12.453 6.37148C12.4431 6.3674 12.4342 6.36141 12.4266 6.35385C12.4191 6.3463 12.4131 6.33733 12.409 6.32746C12.4049 6.31759 12.4028 6.30701 12.4028 6.29633V6.12008C12.4028 6.07514 12.3664 6.03875 12.3214 6.03875H11.98C11.9351 6.03875 11.8986 6.07514 11.8986 6.12008V6.12893C11.8986 6.17387 11.9351 6.21025 11.98 6.21025H12.152C12.1969 6.21025 12.2333 6.2467 12.2333 6.29158V6.29621C12.2333 6.30689 12.2312 6.31747 12.2271 6.32735C12.2231 6.33722 12.2171 6.34619 12.2095 6.35375C12.202 6.36131 12.193 6.36731 12.1832 6.3714C12.1733 6.37549 12.1627 6.3776 12.152 6.3776ZM13.4883 6.3776H13.4929C13.5378 6.3776 13.5742 6.34121 13.5742 6.29627V6.12002C13.5742 6.07508 13.6106 6.03869 13.6555 6.03869H13.9948C14.0397 6.03869 14.0761 6.07508 14.0761 6.12002V6.29627C14.0761 6.34121 14.1126 6.3776 14.1575 6.3776H14.8337C14.8786 6.3776 14.915 6.34121 14.915 6.29627V5.94828C14.915 5.90334 14.8786 5.86695 14.8337 5.86695H14.4923C14.4473 5.86695 14.4109 5.90334 14.4109 5.94828V5.95725C14.4109 6.00219 14.4473 6.03857 14.4923 6.03857H14.6663C14.7112 6.03857 14.7476 6.07496 14.7476 6.1199V6.12875C14.7476 6.17369 14.7112 6.21008 14.6663 6.21008H14.327C14.3163 6.21009 14.3058 6.20799 14.2959 6.2039C14.286 6.19982 14.2771 6.19383 14.2695 6.18627C14.2619 6.17872 14.256 6.16975 14.2519 6.15988C14.2478 6.15001 14.2457 6.13943 14.2457 6.12875V5.94822C14.2457 5.90328 14.2093 5.8669 14.1643 5.8669H13.4881C13.4432 5.8669 13.4068 5.90328 13.4068 5.94822V6.29621C13.4068 6.3178 13.4154 6.33848 13.4307 6.35373C13.446 6.36899 13.4667 6.37757 13.4883 6.3776ZM13.8252 6.3776H13.8276C13.8726 6.3776 13.909 6.34121 13.909 6.29627V6.29164C13.909 6.2467 13.8726 6.21031 13.8276 6.21031H13.8252C13.7802 6.21031 13.7438 6.24676 13.7438 6.29164V6.29627C13.7438 6.31784 13.7524 6.33853 13.7677 6.35378C13.7829 6.36903 13.8036 6.3776 13.8252 6.3776ZM13.4883 5.69527H15.5053C15.5503 5.69527 15.5867 5.65889 15.5867 5.61395V5.60504C15.5867 5.5601 15.5502 5.52371 15.5053 5.52371H13.4883C13.4433 5.52371 13.4069 5.5601 13.4069 5.60504V5.61395C13.4069 5.63552 13.4155 5.65621 13.4307 5.67146C13.446 5.68671 13.4667 5.69527 13.4883 5.69527ZM15.5054 6.3776H15.164C15.1533 6.3776 15.1427 6.37551 15.1328 6.37142C15.123 6.36734 15.114 6.36135 15.1064 6.35379C15.0989 6.34624 15.0929 6.33727 15.0888 6.3274C15.0847 6.31753 15.0826 6.30695 15.0826 6.29627V5.94828C15.0826 5.90334 15.119 5.86695 15.164 5.86695H15.6728C15.7177 5.86695 15.7541 5.83051 15.7541 5.78563V5.6051C15.7541 5.56016 15.7906 5.52377 15.8355 5.52377H15.84C15.885 5.52377 15.9214 5.56016 15.9214 5.6051V6.12893C15.9214 6.17387 15.9578 6.21025 16.0027 6.21025H16.0073C16.0523 6.21025 16.0886 6.17387 16.0886 6.12893V5.6051C16.0886 5.56016 16.1251 5.52377 16.17 5.52377H16.1745C16.2195 5.52377 16.2559 5.56016 16.2559 5.6051V6.12893C16.2559 6.17387 16.2923 6.21025 16.3372 6.21025H16.3417C16.3866 6.21025 16.423 6.17387 16.423 6.12893V5.6051C16.423 5.56016 16.4595 5.52377 16.5044 5.52377H16.5091C16.554 5.52377 16.5904 5.56016 16.5904 5.6051V6.29633C16.5904 6.34127 16.554 6.37766 16.5091 6.37766H15.8351C15.8244 6.37766 15.8138 6.37557 15.804 6.37148C15.7941 6.3674 15.7851 6.36141 15.7776 6.35386C15.77 6.3463 15.764 6.33733 15.7599 6.32746C15.7558 6.31759 15.7537 6.30701 15.7537 6.29633V6.12008C15.7537 6.07514 15.7173 6.03875 15.6724 6.03875H15.331C15.286 6.03875 15.2496 6.07514 15.2496 6.12008V6.12893C15.2496 6.17387 15.286 6.21025 15.331 6.21025H15.505C15.5499 6.21025 15.5863 6.2467 15.5863 6.29158V6.29621C15.5864 6.30688 15.5844 6.31746 15.5803 6.32734C15.5763 6.33722 15.5703 6.3462 15.5628 6.35377C15.5553 6.36133 15.5463 6.36734 15.5365 6.37143C15.5266 6.37552 15.5161 6.37761 15.5054 6.3776ZM16.8395 6.3776H16.8441C16.8891 6.3776 16.9255 6.34121 16.9255 6.29627V6.12002C16.9255 6.07508 16.9619 6.03869 17.0069 6.03869H17.3462C17.3911 6.03869 17.4276 6.07508 17.4276 6.12002V6.29627C17.4276 6.34121 17.464 6.3776 17.5089 6.3776H18.1851C18.23 6.3776 18.2664 6.34121 18.2664 6.29627V5.94828C18.2664 5.90334 18.2301 5.86695 18.1851 5.86695H17.8457C17.8007 5.86695 17.7644 5.90334 17.7644 5.94828V5.95725C17.7644 6.00219 17.8007 6.03857 17.8457 6.03857H18.0156C18.0606 6.03857 18.097 6.07496 18.097 6.1199V6.12875C18.097 6.17369 18.0606 6.21008 18.0156 6.21008H17.6785C17.6678 6.21009 17.6572 6.20799 17.6473 6.2039C17.6374 6.19982 17.6285 6.19383 17.6209 6.18628C17.6134 6.17873 17.6074 6.16976 17.6033 6.15989C17.5992 6.15002 17.5971 6.13944 17.5971 6.12875V5.94822C17.5971 5.90328 17.5607 5.8669 17.5157 5.8669H16.8396C16.7946 5.8669 16.7582 5.90328 16.7582 5.94822V6.29621C16.7582 6.3069 16.7603 6.31748 16.7644 6.32735C16.7684 6.33723 16.7744 6.3462 16.782 6.35376C16.7895 6.36131 16.7985 6.36731 16.8084 6.3714C16.8183 6.37549 16.8288 6.3776 16.8395 6.3776ZM17.1764 6.3776H17.1788C17.2238 6.3776 17.2602 6.34121 17.2602 6.29627V6.29164C17.2602 6.2467 17.2238 6.21031 17.1788 6.21031H17.1764C17.1314 6.21031 17.095 6.24676 17.095 6.29164V6.29627C17.095 6.34109 17.1314 6.3776 17.1764 6.3776ZM16.8395 5.69527H18.8566C18.9015 5.69527 18.9379 5.65889 18.9379 5.61395V5.60504C18.9379 5.5601 18.9015 5.52371 18.8566 5.52371H16.8395C16.7946 5.52371 16.7581 5.5601 16.7581 5.60504V5.61395C16.7581 5.65889 16.7946 5.69527 16.8395 5.69527ZM18.8566 6.3776H18.5173C18.5067 6.3776 18.4961 6.37551 18.4862 6.37142C18.4763 6.36734 18.4674 6.36135 18.4598 6.35379C18.4523 6.34624 18.4463 6.33727 18.4422 6.3274C18.4381 6.31753 18.436 6.30695 18.436 6.29627V5.94828C18.436 5.90334 18.4724 5.86695 18.5173 5.86695H19.0239C19.0689 5.86695 19.1053 5.83051 19.1053 5.78563V5.6051C19.1053 5.56016 19.1417 5.52377 19.1867 5.52377H19.1913C19.2362 5.52377 19.2726 5.56016 19.2726 5.6051V6.12893C19.2726 6.17387 19.309 6.21025 19.354 6.21025H19.3585C19.4035 6.21025 19.4399 6.17387 19.4399 6.12893V5.6051C19.4399 5.56016 19.4763 5.52377 19.5213 5.52377H19.5259C19.5709 5.52377 19.6073 5.56016 19.6073 5.6051V6.12893C19.6073 6.17387 19.6437 6.21025 19.6886 6.21025H19.6932C19.7381 6.21025 19.7745 6.17387 19.7745 6.12893V5.6051C19.7745 5.56016 19.811 5.52377 19.8559 5.52377H19.8605C19.9055 5.52377 19.9419 5.56016 19.9419 5.6051V6.29633C19.9419 6.34127 19.9055 6.37766 19.8605 6.37766H19.1864C19.1757 6.37766 19.1652 6.37557 19.1553 6.37148C19.1454 6.3674 19.1364 6.36141 19.1289 6.35386C19.1213 6.3463 19.1153 6.33733 19.1112 6.32746C19.1071 6.31759 19.105 6.30701 19.105 6.29633V6.12008C19.105 6.07514 19.0687 6.03875 19.0237 6.03875H18.6823C18.6374 6.03875 18.601 6.07514 18.601 6.12008V6.12893C18.601 6.17387 18.6374 6.21025 18.6823 6.21025H18.8564C18.9013 6.21025 18.9377 6.2467 18.9377 6.29158V6.29621C18.9377 6.30689 18.9357 6.31747 18.9316 6.32734C18.9276 6.33722 18.9216 6.3462 18.9141 6.35376C18.9065 6.36132 18.8976 6.36732 18.8877 6.37141C18.8779 6.3755 18.8673 6.3776 18.8566 6.3776ZM20.1907 6.3776H20.1954C20.2403 6.3776 20.2767 6.34121 20.2767 6.29627V6.12002C20.2767 6.07508 20.3131 6.03869 20.3581 6.03869H20.6994C20.7444 6.03869 20.7808 6.07508 20.7808 6.12002V6.29627C20.7808 6.34121 20.8172 6.3776 20.8621 6.3776H21.5363C21.5812 6.3776 21.6176 6.34121 21.6176 6.29627V5.94828C21.6176 5.90334 21.5812 5.86695 21.5363 5.86695H21.1969C21.1519 5.86695 21.1155 5.90334 21.1155 5.94828V5.95725C21.1155 6.00219 21.1519 6.03857 21.1969 6.03857H21.3711C21.416 6.03857 21.4524 6.07496 21.4524 6.1199V6.12875C21.4524 6.17369 21.416 6.21008 21.3711 6.21008H21.0274C21.0168 6.21009 21.0062 6.20799 20.9963 6.2039C20.9864 6.19982 20.9775 6.19383 20.9699 6.18627C20.9624 6.17872 20.9564 6.16975 20.9523 6.15988C20.9482 6.15001 20.9461 6.13943 20.9461 6.12875V5.94822C20.9461 5.90328 20.9097 5.8669 20.8647 5.8669H20.1908C20.1458 5.8669 20.1094 5.90328 20.1094 5.94822V6.29621C20.1094 6.3069 20.1115 6.31748 20.1156 6.32735C20.1197 6.33723 20.1256 6.3462 20.1332 6.35376C20.1407 6.36131 20.1497 6.36731 20.1596 6.3714C20.1695 6.37549 20.18 6.3776 20.1907 6.3776ZM20.5255 6.3776H20.5323C20.5772 6.3776 20.6136 6.34121 20.6136 6.29627V6.29164C20.6136 6.2467 20.5772 6.21031 20.5323 6.21031H20.5255C20.4805 6.21031 20.4441 6.24676 20.4441 6.29164V6.29627C20.4441 6.31784 20.4527 6.33853 20.468 6.35378C20.4832 6.36903 20.5039 6.3776 20.5255 6.3776ZM20.1907 5.69527H22.2077C22.2527 5.69527 22.2891 5.65889 22.2891 5.61395V5.60504C22.2891 5.5601 22.2527 5.52371 22.2077 5.52371H20.1907C20.1458 5.52371 20.1093 5.5601 20.1093 5.60504V5.61395C20.1093 5.65889 20.1458 5.69527 20.1907 5.69527ZM22.2079 6.3776H21.8686C21.8579 6.3776 21.8473 6.37551 21.8375 6.37142C21.8276 6.36734 21.8186 6.36135 21.8111 6.3538C21.8035 6.34625 21.7975 6.33728 21.7934 6.32741C21.7893 6.31753 21.7872 6.30695 21.7872 6.29627V5.94828C21.7872 5.90334 21.8236 5.86695 21.8686 5.86695H22.3752C22.4202 5.86695 22.4566 5.83051 22.4566 5.78563V5.6051C22.4566 5.56016 22.493 5.52377 22.538 5.52377H22.5426C22.5876 5.52377 22.624 5.56016 22.624 5.6051V6.12893C22.624 6.17387 22.6604 6.21025 22.7053 6.21025H22.7098C22.7548 6.21025 22.7912 6.17387 22.7912 6.12893V5.6051C22.7912 5.56016 22.8277 5.52377 22.8726 5.52377H22.8772C22.9222 5.52377 22.9586 5.56016 22.9586 5.6051V6.12893C22.9586 6.17387 22.995 6.21025 23.04 6.21025H23.0468C23.0917 6.21025 23.1281 6.17387 23.1281 6.12893V5.6051C23.1281 5.56016 23.1645 5.52377 23.2095 5.52377H23.2118C23.2568 5.52377 23.2932 5.56016 23.2932 5.6051V6.29633C23.2932 6.34127 23.2568 6.37766 23.2118 6.37766H22.5379C22.5272 6.37766 22.5166 6.37557 22.5067 6.37148C22.4969 6.3674 22.4879 6.36141 22.4803 6.35386C22.4728 6.3463 22.4668 6.33733 22.4627 6.32746C22.4586 6.31759 22.4565 6.30701 22.4565 6.29633V6.12008C22.4565 6.07514 22.4201 6.03875 22.3751 6.03875H22.0379C21.993 6.03875 21.9566 6.07514 21.9566 6.12008V6.12893C21.9566 6.17387 21.9929 6.21025 22.0379 6.21025H22.2078C22.2528 6.21025 22.2892 6.2467 22.2892 6.29158V6.29621C22.2892 6.34109 22.2528 6.3776 22.2079 6.3776ZM23.5441 6.3776H23.5466C23.5915 6.3776 23.6279 6.34121 23.6279 6.29627V6.12002C23.6279 6.07508 23.6643 6.03869 23.7093 6.03869H24.0487C24.0936 6.03869 24.1301 6.07508 24.1301 6.12002V6.29627C24.1301 6.34121 24.1665 6.3776 24.2114 6.3776H24.8875C24.9324 6.3776 24.9689 6.34121 24.9689 6.29627V5.94828C24.9689 5.90334 24.9324 5.86695 24.8875 5.86695H24.5504C24.5055 5.86695 24.4691 5.90334 24.4691 5.94828V5.95725C24.4691 6.00219 24.5055 6.03857 24.5504 6.03857H24.7223C24.7672 6.03857 24.8037 6.07496 24.8037 6.1199V6.12875C24.8037 6.17369 24.7673 6.21008 24.7223 6.21008H24.381C24.3703 6.21009 24.3597 6.20799 24.3498 6.2039C24.34 6.19982 24.331 6.19383 24.3234 6.18628C24.3159 6.17873 24.3099 6.16976 24.3058 6.15989C24.3017 6.15002 24.2996 6.13944 24.2996 6.12875V5.94822C24.2996 5.90328 24.2632 5.8669 24.2182 5.8669H23.5441C23.4992 5.8669 23.4627 5.90328 23.4627 5.94822V6.29621C23.4627 6.31779 23.4713 6.33848 23.4866 6.35374C23.5018 6.369 23.5225 6.37758 23.5441 6.3776ZM23.8788 6.3776H23.8834C23.9284 6.3776 23.9647 6.34121 23.9647 6.29627V6.29164C23.9647 6.2467 23.9284 6.21031 23.8834 6.21031H23.8788C23.8338 6.21031 23.7975 6.24676 23.7975 6.29164V6.29627C23.7974 6.30695 23.7995 6.31753 23.8036 6.3274C23.8077 6.33727 23.8137 6.34624 23.8213 6.35379C23.8288 6.36135 23.8378 6.36734 23.8476 6.37142C23.8575 6.37551 23.8681 6.3776 23.8788 6.3776ZM23.5441 5.69527H25.5633C25.6083 5.69527 25.6447 5.65889 25.6447 5.61395V5.60504C25.6447 5.5601 25.6083 5.52371 25.5633 5.52371H23.5441C23.4992 5.52371 23.4627 5.5601 23.4627 5.60504V5.61395C23.4627 5.62463 23.4648 5.63521 23.4689 5.64508C23.473 5.65495 23.479 5.66392 23.4865 5.67147C23.4941 5.67903 23.5031 5.68502 23.513 5.6891C23.5228 5.69318 23.5334 5.69528 23.5441 5.69527ZM25.5633 6.3776H25.2196C25.209 6.3776 25.1984 6.37551 25.1885 6.37142C25.1786 6.36734 25.1697 6.36135 25.1621 6.3538C25.1545 6.34625 25.1485 6.33728 25.1444 6.32741C25.1404 6.31753 25.1383 6.30695 25.1383 6.29627V5.94828C25.1383 5.90334 25.1747 5.86695 25.2196 5.86695H25.7263C25.7712 5.86695 25.8077 5.83051 25.8077 5.78563V5.6051C25.8077 5.56016 25.8441 5.52377 25.8891 5.52377H25.8958C25.9408 5.52377 25.9771 5.56016 25.9771 5.6051V6.12893C25.9771 6.17387 26.0136 6.21025 26.0585 6.21025H26.063C26.108 6.21025 26.1444 6.17387 26.1444 6.12893V5.6051C26.1444 5.56016 26.1808 5.52377 26.2257 5.52377H26.2282C26.2732 5.52377 26.3096 5.56016 26.3096 5.6051V6.12893C26.3096 6.17387 26.346 6.21025 26.391 6.21025H26.3977C26.4427 6.21025 26.479 6.17387 26.479 6.12893V5.6051C26.479 5.56016 26.5154 5.52377 26.5604 5.52377H26.5651C26.61 5.52377 26.6465 5.56016 26.6465 5.6051V6.29633C26.6465 6.34127 26.6101 6.37766 26.5651 6.37766H25.8889C25.8782 6.37766 25.8676 6.37557 25.8578 6.37148C25.8479 6.3674 25.8389 6.36141 25.8313 6.35386C25.8238 6.3463 25.8178 6.33733 25.8137 6.32746C25.8096 6.31759 25.8075 6.30701 25.8075 6.29633V6.12008C25.8075 6.07514 25.7711 6.03875 25.7261 6.03875H25.3869C25.3419 6.03875 25.3055 6.07514 25.3055 6.12008V6.12893C25.3055 6.17387 25.3419 6.21025 25.3869 6.21025H25.5631C25.6081 6.21025 25.6445 6.2467 25.6445 6.29158V6.29621C25.6445 6.30689 25.6425 6.31748 25.6384 6.32735C25.6343 6.33723 25.6283 6.34621 25.6208 6.35377C25.6132 6.36133 25.6043 6.36733 25.5944 6.37141C25.5845 6.3755 25.574 6.3776 25.5633 6.3776ZM26.8952 6.3776H26.8999C26.9448 6.3776 26.9813 6.34121 26.9813 6.29627V6.12002C26.9813 6.07508 27.0176 6.03869 27.0626 6.03869H27.4019C27.4468 6.03869 27.4833 6.07508 27.4833 6.12002V6.29627C27.4833 6.34121 27.5197 6.3776 27.5647 6.3776H28.2408C28.2858 6.3776 28.3222 6.34121 28.3222 6.29627V5.94828C28.3222 5.90334 28.2858 5.86695 28.2408 5.86695H27.9037C27.8588 5.86695 27.8224 5.90334 27.8224 5.94828V5.95725C27.8224 6.00219 27.8588 6.03857 27.9037 6.03857H28.0757C28.1206 6.03857 28.157 6.07496 28.157 6.1199V6.12875C28.157 6.17369 28.1206 6.21008 28.0757 6.21008H27.732C27.7213 6.21009 27.7107 6.20799 27.7009 6.2039C27.691 6.19982 27.682 6.19383 27.6745 6.18628C27.6669 6.17873 27.6609 6.16976 27.6568 6.15989C27.6527 6.15002 27.6506 6.13944 27.6506 6.12875V5.94822C27.6506 5.90328 27.6142 5.8669 27.5693 5.8669H26.8954C26.8504 5.8669 26.814 5.90328 26.814 5.94822V6.29621C26.814 6.30689 26.8161 6.31747 26.8201 6.32734C26.8242 6.33721 26.8302 6.34618 26.8377 6.35374C26.8453 6.36129 26.8543 6.36729 26.8641 6.37138C26.874 6.37548 26.8846 6.37759 26.8952 6.3776ZM27.23 6.3776H27.2346C27.2796 6.3776 27.316 6.34121 27.316 6.29627V6.29164C27.316 6.2467 27.2796 6.21031 27.2346 6.21031H27.23C27.185 6.21031 27.1487 6.24676 27.1487 6.29164V6.29627C27.1487 6.34109 27.185 6.3776 27.23 6.3776ZM26.8952 5.69527H28.9102C28.9551 5.69527 28.9915 5.65889 28.9915 5.61395V5.60504C28.9915 5.5601 28.9552 5.52371 28.9102 5.52371H26.8952C26.8503 5.52371 26.8139 5.5601 26.8139 5.60504V5.61395C26.8139 5.63552 26.8225 5.65619 26.8377 5.67144C26.853 5.68669 26.8737 5.69526 26.8952 5.69527ZM28.9102 6.3776H28.5709C28.5602 6.3776 28.5496 6.37551 28.5398 6.37142C28.5299 6.36734 28.5209 6.36135 28.5134 6.3538C28.5058 6.34625 28.4998 6.33728 28.4957 6.32741C28.4916 6.31753 28.4895 6.30695 28.4895 6.29627V5.94828C28.4895 5.90334 28.5259 5.86695 28.5709 5.86695H29.0819C29.1268 5.86695 29.1633 5.83051 29.1633 5.78563V5.6051C29.1633 5.56016 29.1997 5.52377 29.2446 5.52377H29.2448C29.2898 5.52377 29.3262 5.56016 29.3262 5.6051V6.12893C29.3262 6.17387 29.3626 6.21025 29.4076 6.21025H29.4165C29.4614 6.21025 29.4979 6.17387 29.4979 6.12893V5.6051C29.4979 5.56016 29.5342 5.52377 29.5792 5.52377H29.5795C29.6244 5.52377 29.6609 5.56016 29.6609 5.6051V6.12893C29.6609 6.17387 29.6973 6.21025 29.7422 6.21025H29.7469C29.7918 6.21025 29.8283 6.17387 29.8283 6.12893V5.6051C29.8283 5.56016 29.8647 5.52377 29.9096 5.52377H29.9185C29.9634 5.52377 29.9999 5.56016 29.9999 5.6051V6.29633C29.9999 6.34127 29.9634 6.37766 29.9185 6.37766H29.2446C29.2339 6.37766 29.2233 6.37557 29.2134 6.37148C29.2036 6.3674 29.1946 6.36141 29.187 6.35385C29.1795 6.3463 29.1735 6.33733 29.1694 6.32746C29.1653 6.31759 29.1632 6.30701 29.1632 6.29633V6.12008C29.1632 6.07514 29.1268 6.03875 29.0818 6.03875H28.7382C28.6933 6.03875 28.6569 6.07514 28.6569 6.12008V6.12893C28.6569 6.17387 28.6933 6.21025 28.7382 6.21025H28.9101C28.955 6.21025 28.9915 6.2467 28.9915 6.29158V6.29621C28.9915 6.3069 28.9894 6.31748 28.9853 6.32735C28.9812 6.33723 28.9752 6.3462 28.9677 6.35376C28.9601 6.36131 28.9512 6.36731 28.9413 6.3714C28.9314 6.37549 28.9208 6.3776 28.9102 6.3776Z" fill="#F5F5F5"/>
<path d="M0.081328 6.89665H1.42681C1.47175 6.89665 1.50814 6.86026 1.50814 6.81532V6.63479C1.50814 6.58985 1.47175 6.55347 1.42681 6.55347H0.081328C0.0363866 6.55347 0 6.58991 0 6.63479V6.81532C0 6.86026 0.0363866 6.89665 0.081328 6.89665ZM1.7591 6.89665H3.10247C3.14742 6.89665 3.1838 6.86026 3.1838 6.81532V6.63479C3.1838 6.58985 3.14742 6.55347 3.10247 6.55347H1.7591C1.71416 6.55347 1.67771 6.58991 1.67771 6.63479V6.81532C1.67771 6.82601 1.67982 6.83659 1.68391 6.84646C1.688 6.85633 1.69399 6.8653 1.70155 6.87285C1.70911 6.8804 1.71808 6.88639 1.72796 6.89048C1.73783 6.89456 1.74841 6.89666 1.7591 6.89665ZM3.43464 6.89665H4.77802C4.82296 6.89665 4.85935 6.86026 4.85935 6.81532V6.63479C4.85935 6.58985 4.82296 6.55347 4.77802 6.55347H3.43464C3.3897 6.55347 3.35331 6.58991 3.35331 6.63479V6.81532C3.35331 6.86026 3.38976 6.89665 3.43464 6.89665ZM5.10813 6.89665H6.45579C6.50073 6.89665 6.53712 6.86026 6.53712 6.81532V6.63479C6.53712 6.58985 6.50073 6.55347 6.45579 6.55347H5.10813C5.06319 6.55347 5.02675 6.58991 5.02675 6.63479V6.81532C5.02675 6.86026 5.06319 6.89665 5.10813 6.89665ZM6.78596 6.89665H8.13145C8.17639 6.89665 8.21284 6.86026 8.21284 6.81532V6.63479C8.21284 6.58985 8.17645 6.55347 8.13145 6.55347H6.78596C6.74102 6.55347 6.70464 6.58991 6.70464 6.63479V6.81532C6.70462 6.82601 6.70671 6.83659 6.71079 6.84646C6.71488 6.85634 6.72087 6.86531 6.72842 6.87286C6.73598 6.88042 6.74495 6.88641 6.75482 6.89049C6.7647 6.89457 6.77528 6.89667 6.78596 6.89665ZM8.46151 6.89665H9.80699C9.85193 6.89665 9.88832 6.86026 9.88832 6.81532V6.63479C9.88832 6.58985 9.85188 6.55347 9.80699 6.55347H8.46151C8.41657 6.55347 8.38012 6.58991 8.38012 6.63479V6.81532C8.38012 6.86026 8.41662 6.89665 8.46151 6.89665ZM10.1371 6.89665H11.4826C11.5275 6.89665 11.5639 6.86026 11.5639 6.81532V6.63479C11.5639 6.58985 11.5275 6.55347 11.4826 6.55347H10.1371C10.0922 6.55347 10.0557 6.58991 10.0557 6.63479V6.81532C10.0558 6.83689 10.0643 6.85757 10.0796 6.87282C10.0949 6.88806 10.1155 6.89663 10.1371 6.89665ZM11.8106 6.89665H13.1583C13.2032 6.89665 13.2396 6.86026 13.2396 6.81532V6.63479C13.2396 6.58985 13.2032 6.55347 13.1583 6.55347H11.8106C11.7657 6.55347 11.7293 6.58991 11.7293 6.63479V6.81532C11.7293 6.82601 11.7314 6.83659 11.7354 6.84646C11.7395 6.85634 11.7455 6.86531 11.7531 6.87286C11.7606 6.88042 11.7696 6.88641 11.7795 6.89049C11.7893 6.89457 11.7999 6.89667 11.8106 6.89665ZM13.4883 6.89665H14.8339C14.8788 6.89665 14.9152 6.86026 14.9152 6.81532V6.63479C14.9152 6.58985 14.8788 6.55347 14.8339 6.55347H13.4883C13.4433 6.55347 13.4069 6.58991 13.4069 6.63479V6.81532C13.4069 6.8369 13.4155 6.85758 13.4307 6.87283C13.446 6.88808 13.4667 6.89665 13.4883 6.89665ZM15.1639 6.89665H16.5095C16.5544 6.89665 16.5908 6.86026 16.5908 6.81532V6.63479C16.5908 6.58985 16.5544 6.55347 16.5095 6.55347H15.1639C15.1189 6.55347 15.0825 6.58991 15.0825 6.63479V6.81532C15.0825 6.86026 15.1189 6.89665 15.1639 6.89665ZM16.8395 6.89665H18.1851C18.2301 6.89665 18.2665 6.86026 18.2665 6.81532V6.63479C18.2665 6.58985 18.2301 6.55347 18.1851 6.55347H16.8395C16.7946 6.55347 16.7581 6.58991 16.7581 6.63479V6.81532C16.7581 6.86026 16.7946 6.89665 16.8395 6.89665ZM18.5173 6.89665H19.8607C19.9057 6.89665 19.9421 6.86026 19.9421 6.81532V6.63479C19.9421 6.58985 19.9057 6.55347 19.8607 6.55347H18.5173C18.4724 6.55347 18.436 6.58991 18.436 6.63479V6.81532C18.436 6.826 18.4381 6.83658 18.4422 6.84645C18.4463 6.85632 18.4523 6.86529 18.4598 6.87285C18.4674 6.8804 18.4763 6.88639 18.4862 6.89047C18.4961 6.89456 18.5067 6.89666 18.5173 6.89665ZM20.1907 6.89665H21.5363C21.5813 6.89665 21.6177 6.86026 21.6177 6.81532V6.63479C21.6177 6.58985 21.5813 6.55347 21.5363 6.55347H20.1907C20.1458 6.55347 20.1093 6.58991 20.1093 6.63479V6.81532C20.1093 6.86026 20.1458 6.89665 20.1907 6.89665ZM21.8686 6.89665H23.2118C23.2568 6.89665 23.2932 6.86026 23.2932 6.81532V6.63479C23.2932 6.58985 23.2568 6.55347 23.2118 6.55347H21.8686C21.8236 6.55347 21.7872 6.58991 21.7872 6.63479V6.81532C21.7872 6.8369 21.7958 6.85758 21.811 6.87283C21.8263 6.88808 21.847 6.89665 21.8686 6.89665ZM23.5441 6.89665H24.8875C24.9324 6.89665 24.9689 6.86026 24.9689 6.81532V6.63479C24.9689 6.58985 24.9324 6.55347 24.8875 6.55347H23.5441C23.4992 6.55347 23.4627 6.58991 23.4627 6.63479V6.81532C23.4627 6.82601 23.4648 6.83659 23.4689 6.84646C23.473 6.85633 23.479 6.8653 23.4865 6.87285C23.4941 6.8804 23.5031 6.88639 23.513 6.89048C23.5228 6.89456 23.5334 6.89666 23.5441 6.89665ZM25.2197 6.89665H26.5653C26.6102 6.89665 26.6467 6.86026 26.6467 6.81532V6.63479C26.6467 6.58985 26.6103 6.55347 26.5653 6.55347H25.2197C25.1748 6.55347 25.1383 6.58991 25.1383 6.63479V6.81532C25.1383 6.82601 25.1404 6.83659 25.1445 6.84646C25.1486 6.85633 25.1546 6.8653 25.1621 6.87285C25.1697 6.8804 25.1787 6.88639 25.1886 6.89048C25.1984 6.89456 25.209 6.89666 25.2197 6.89665ZM26.8952 6.89665H28.2408C28.2858 6.89665 28.3222 6.86026 28.3222 6.81532V6.63479C28.3222 6.58985 28.2858 6.55347 28.2408 6.55347H26.8952C26.8503 6.55347 26.8139 6.58991 26.8139 6.63479V6.81532C26.8139 6.83689 26.8225 6.85757 26.8377 6.87282C26.853 6.88806 26.8737 6.89663 26.8952 6.89665ZM28.571 6.89665H29.9186C29.9636 6.89665 30 6.86026 30 6.81532V6.63479C30 6.58985 29.9636 6.55347 29.9186 6.55347H28.571C28.526 6.55347 28.4896 6.58991 28.4896 6.63479V6.81532C28.4896 6.82601 28.4917 6.83659 28.4958 6.84647C28.4998 6.85634 28.5058 6.86531 28.5134 6.87287C28.521 6.88042 28.5299 6.88641 28.5398 6.89049C28.5497 6.89457 28.5603 6.89667 28.571 6.89665ZM29.9186 13.6227H29.914C29.8691 13.6227 29.8327 13.6591 29.8327 13.704V13.8802C29.8327 13.9018 29.8241 13.9225 29.8089 13.9378C29.7936 13.953 29.7729 13.9616 29.7513 13.9616H29.4099C29.3883 13.9616 29.3676 13.953 29.3524 13.9378C29.3371 13.9225 29.3285 13.9018 29.3285 13.8802V13.704C29.3285 13.6591 29.2921 13.6227 29.2471 13.6227H28.5732C28.5282 13.6227 28.4919 13.6591 28.4919 13.704V14.052C28.4919 14.0969 28.5282 14.1334 28.5732 14.1334H28.9124C28.9574 14.1334 28.9938 14.0969 28.9938 14.052V14.0431C28.9938 13.9981 28.9574 13.9618 28.9124 13.9618H28.7405C28.7189 13.9617 28.6982 13.9532 28.6829 13.9379C28.6677 13.9226 28.6591 13.9019 28.6591 13.8804V13.8715C28.6591 13.8266 28.6955 13.7902 28.7405 13.7902H29.0798C29.1248 13.7902 29.1612 13.8266 29.1612 13.8715V14.052C29.1612 14.0736 29.1698 14.0943 29.185 14.1096C29.2003 14.1248 29.221 14.1334 29.2426 14.1334H29.9186C29.9402 14.1334 29.9609 14.1248 29.9761 14.1096C29.9914 14.0943 30 14.0736 30 14.052V13.7041C30 13.6825 29.9914 13.6618 29.9761 13.6465C29.9609 13.6312 29.9401 13.6227 29.9186 13.6227ZM29.5818 13.6227H29.5771C29.5322 13.6227 29.4957 13.6591 29.4957 13.704V13.7086C29.4957 13.7536 29.5321 13.79 29.5771 13.79H29.5818C29.6033 13.79 29.624 13.7814 29.6393 13.7662C29.6545 13.7509 29.6631 13.7302 29.6631 13.7086V13.704C29.6631 13.6591 29.6267 13.6227 29.5818 13.6227ZM29.9186 14.3049H27.9016C27.8566 14.3049 27.8202 14.3413 27.8202 14.3863V14.3952C27.8202 14.4402 27.8566 14.4766 27.9016 14.4766H29.9186C29.9635 14.4766 29.9999 14.4401 29.9999 14.3952V14.3863C29.9999 14.3414 29.9635 14.3049 29.9186 14.3049ZM27.9016 13.6227H28.2409C28.2858 13.6227 28.3223 13.6591 28.3223 13.704V14.052C28.3223 14.0969 28.2859 14.1334 28.2409 14.1334H27.7342C27.6893 14.1334 27.6529 14.1698 27.6529 14.2147V14.3952C27.6529 14.4402 27.6165 14.4766 27.5715 14.4766H27.567C27.5454 14.4766 27.5247 14.468 27.5095 14.4527C27.4942 14.4375 27.4856 14.4168 27.4856 14.3952V13.8714C27.4856 13.8265 27.4492 13.7901 27.4043 13.7901H27.3997C27.3547 13.7901 27.3183 13.8265 27.3183 13.8714V14.3952C27.3183 14.4402 27.2818 14.4766 27.237 14.4766H27.2324C27.2108 14.4766 27.1901 14.468 27.1749 14.4527C27.1596 14.4375 27.151 14.4168 27.151 14.3952V13.8714C27.151 13.8265 27.1146 13.7901 27.0696 13.7901H27.0629C27.0179 13.7901 26.9815 13.8265 26.9815 13.8714V14.3952C26.9815 14.4402 26.9451 14.4766 26.9001 14.4766H26.8976C26.8761 14.4766 26.8554 14.468 26.8401 14.4527C26.8249 14.4375 26.8163 14.4168 26.8163 14.3952V13.704C26.8163 13.6591 26.8527 13.6227 26.8976 13.6227H27.5716C27.6165 13.6227 27.653 13.6591 27.653 13.704V13.8802C27.653 13.9252 27.6894 13.9616 27.7343 13.9616H28.0736C28.1185 13.9616 28.1549 13.9252 28.1549 13.8802V13.8714C28.1549 13.8265 28.1185 13.7901 28.0736 13.7901H27.9017C27.8801 13.7901 27.8594 13.7815 27.8442 13.7662C27.8289 13.751 27.8203 13.7303 27.8203 13.7087V13.7041C27.8203 13.6934 27.8224 13.6828 27.8265 13.6729C27.8306 13.663 27.8365 13.6541 27.8441 13.6465C27.8517 13.6389 27.8606 13.6329 27.8705 13.6289C27.8804 13.6248 27.891 13.6227 27.9016 13.6227ZM26.5653 13.6227H26.5586C26.5136 13.6227 26.4772 13.6591 26.4772 13.704V13.8802C26.4772 13.9018 26.4686 13.9225 26.4534 13.9378C26.4381 13.953 26.4174 13.9616 26.3958 13.9616H26.0587C26.0371 13.9616 26.0164 13.953 26.0012 13.9378C25.9859 13.9225 25.9773 13.9018 25.9773 13.8802V13.704C25.9773 13.6591 25.9409 13.6227 25.896 13.6227H25.222C25.1771 13.6227 25.1407 13.6591 25.1407 13.704V14.052C25.1407 14.0736 25.1493 14.0943 25.1645 14.1095C25.1798 14.1248 25.2005 14.1334 25.222 14.1334H25.5613C25.5829 14.1334 25.6036 14.1248 25.6188 14.1095C25.6341 14.0943 25.6427 14.0736 25.6427 14.052V14.0431C25.6427 13.9981 25.6062 13.9618 25.5613 13.9618H25.3893C25.3786 13.9618 25.3681 13.9596 25.3582 13.9556C25.3483 13.9515 25.3393 13.9455 25.3318 13.9379C25.3242 13.9304 25.3183 13.9214 25.3142 13.9115C25.3101 13.9016 25.308 13.8911 25.308 13.8804V13.8715C25.308 13.8266 25.3444 13.7902 25.3893 13.7902H25.7287C25.7736 13.7902 25.81 13.8266 25.81 13.8715V14.052C25.81 14.0736 25.8186 14.0943 25.8339 14.1096C25.8491 14.1248 25.8698 14.1334 25.8914 14.1334H26.5654C26.5869 14.1334 26.6076 14.1248 26.6229 14.1096C26.6381 14.0943 26.6467 14.0736 26.6467 14.052V13.7041C26.6467 13.6825 26.6381 13.6618 26.6228 13.6465C26.6076 13.6313 26.5869 13.6227 26.5653 13.6227ZM26.2306 13.6227H26.226C26.1811 13.6227 26.1447 13.6591 26.1447 13.704V13.7086C26.1447 13.7302 26.1532 13.7509 26.1685 13.7662C26.1838 13.7814 26.2045 13.79 26.226 13.79H26.2306C26.2521 13.79 26.2728 13.7814 26.2881 13.7662C26.3033 13.7509 26.3119 13.7302 26.3119 13.7086V13.704C26.3119 13.6824 26.3033 13.6618 26.2881 13.6465C26.2728 13.6313 26.2521 13.6227 26.2306 13.6227ZM26.5653 14.3049H24.5504C24.5055 14.3049 24.4691 14.3413 24.4691 14.3863V14.3952C24.4691 14.4402 24.5055 14.4766 24.5504 14.4766H26.5653C26.6102 14.4766 26.6467 14.4401 26.6467 14.3952V14.3863C26.6467 14.3647 26.6381 14.344 26.6228 14.3288C26.6076 14.3135 26.5869 14.305 26.5653 14.3049ZM24.5504 13.6227H24.8918C24.9367 13.6227 24.9732 13.6591 24.9732 13.704V14.052C24.9732 14.0736 24.9646 14.0943 24.9493 14.1095C24.9341 14.1248 24.9134 14.1334 24.8918 14.1334H24.3851C24.3402 14.1334 24.3038 14.1698 24.3038 14.2147V14.3952C24.3038 14.4402 24.2674 14.4766 24.2224 14.4766H24.2156C24.1941 14.4766 24.1734 14.468 24.1581 14.4527C24.1428 14.4375 24.1343 14.4168 24.1342 14.3952V13.8714C24.1342 13.8265 24.0978 13.7901 24.0529 13.7901H24.0461C24.0012 13.7901 23.9647 13.8265 23.9647 13.8714V14.3952C23.9647 14.4402 23.9284 14.4766 23.8834 14.4766H23.8809C23.8594 14.4766 23.8387 14.468 23.8234 14.4527C23.8082 14.4375 23.7996 14.4168 23.7996 14.3952V13.8714C23.7996 13.8265 23.7632 13.7901 23.7182 13.7901H23.7115C23.6666 13.7901 23.6301 13.8265 23.6301 13.8714V14.3952C23.6301 14.4402 23.5937 14.4766 23.5488 14.4766H23.5442C23.5226 14.4766 23.502 14.468 23.4867 14.4527C23.4715 14.4375 23.4629 14.4168 23.4629 14.3952V13.704C23.4629 13.6591 23.4993 13.6227 23.5442 13.6227H24.2224C24.2674 13.6227 24.3038 13.6591 24.3038 13.704V13.8802C24.3038 13.9252 24.3402 13.9616 24.3852 13.9616H24.7224C24.7439 13.9616 24.7646 13.953 24.7799 13.9378C24.7951 13.9225 24.8037 13.9018 24.8037 13.8802V13.8714C24.8037 13.8265 24.7674 13.7901 24.7224 13.7901H24.5504C24.5288 13.7901 24.5081 13.7815 24.4928 13.7662C24.4776 13.751 24.469 13.7303 24.469 13.7087V13.7041C24.469 13.6825 24.4776 13.6618 24.4928 13.6465C24.5081 13.6313 24.5288 13.6227 24.5504 13.6227ZM23.214 13.6227H23.2095C23.1645 13.6227 23.1281 13.6591 23.1281 13.704V13.8802C23.1281 13.9252 23.0917 13.9616 23.0468 13.9616H22.7074C22.6858 13.9616 22.6651 13.953 22.6498 13.9378C22.6346 13.9225 22.626 13.9018 22.626 13.8802V13.704C22.626 13.6591 22.5895 13.6227 22.5446 13.6227H21.8686C21.8236 13.6227 21.7872 13.6591 21.7872 13.704V14.052C21.7872 14.0969 21.8236 14.1334 21.8686 14.1334H22.2078C22.2294 14.1334 22.2501 14.1248 22.2653 14.1095C22.2806 14.0943 22.2892 14.0736 22.2892 14.052V14.0431C22.2892 13.9981 22.2528 13.9618 22.2078 13.9618H22.0358C22.0143 13.9617 21.9936 13.9532 21.9783 13.9379C21.963 13.9226 21.9545 13.9019 21.9544 13.8804V13.8715C21.9544 13.8266 21.9909 13.7902 22.0358 13.7902H22.3773C22.4222 13.7902 22.4586 13.8266 22.4586 13.8715V14.052C22.4586 14.097 22.495 14.1334 22.54 14.1334H23.2139C23.2355 14.1334 23.2562 14.1248 23.2715 14.1096C23.2867 14.0943 23.2953 14.0736 23.2953 14.052V13.7041C23.2953 13.6934 23.2932 13.6828 23.2891 13.6729C23.2851 13.663 23.2791 13.6541 23.2715 13.6465C23.264 13.6389 23.255 13.6329 23.2451 13.6289C23.2352 13.6248 23.2247 13.6227 23.214 13.6227ZM22.8793 13.6227H22.8748C22.8298 13.6227 22.7934 13.6591 22.7934 13.704V13.7086C22.7934 13.7302 22.802 13.7509 22.8172 13.7662C22.8325 13.7814 22.8532 13.79 22.8748 13.79H22.8793C22.9242 13.79 22.9606 13.7536 22.9606 13.7086V13.704C22.9606 13.6933 22.9585 13.6827 22.9544 13.6729C22.9504 13.663 22.9444 13.654 22.9368 13.6465C22.9293 13.6389 22.9203 13.6329 22.9104 13.6288C22.9006 13.6248 22.89 13.6227 22.8793 13.6227ZM23.214 14.3049H21.197C21.152 14.3049 21.1156 14.3413 21.1156 14.3863V14.3952C21.1156 14.4402 21.152 14.4766 21.197 14.4766H23.214C23.2589 14.4766 23.2954 14.4401 23.2954 14.3952V14.3863C23.2954 14.3756 23.2933 14.365 23.2892 14.3551C23.2851 14.3453 23.2791 14.3363 23.2715 14.3287C23.264 14.3212 23.255 14.3152 23.2451 14.3111C23.2352 14.307 23.2247 14.3049 23.214 14.3049ZM21.197 13.6227H21.5384C21.5833 13.6227 21.6198 13.6591 21.6198 13.704V14.052C21.6197 14.0736 21.6112 14.0943 21.5959 14.1095C21.5806 14.1248 21.56 14.1334 21.5384 14.1334H21.0318C20.9868 14.1334 20.9504 14.1698 20.9504 14.2147V14.3952C20.9504 14.4402 20.914 14.4766 20.8691 14.4766H20.8644C20.8429 14.4766 20.8222 14.468 20.8069 14.4527C20.7917 14.4375 20.7831 14.4168 20.7831 14.3952V13.8714C20.7831 13.8265 20.7467 13.7901 20.7017 13.7901H20.695C20.65 13.7901 20.6136 13.8265 20.6136 13.8714V14.3952C20.6136 14.4402 20.5772 14.4766 20.5323 14.4766H20.5255C20.5039 14.4766 20.4832 14.468 20.468 14.4527C20.4527 14.4375 20.4441 14.4168 20.4441 14.3952V13.8714C20.4441 13.8265 20.4077 13.7901 20.3628 13.7901H20.3603C20.3154 13.7901 20.2789 13.8265 20.2789 13.8714V14.3952C20.2789 14.4402 20.2425 14.4766 20.1975 14.4766H20.193C20.1714 14.4766 20.1508 14.468 20.1355 14.4527C20.1202 14.4375 20.1117 14.4168 20.1117 14.3952V13.704C20.1117 13.6591 20.1481 13.6227 20.193 13.6227H20.8692C20.9141 13.6227 20.9506 13.6591 20.9506 13.704V13.8802C20.9506 13.9252 20.987 13.9616 21.0319 13.9616H21.3711C21.4161 13.9616 21.4525 13.9252 21.4525 13.8802V13.8714C21.4525 13.8265 21.4161 13.7901 21.3711 13.7901H21.197C21.1754 13.7901 21.1547 13.7815 21.1394 13.7662C21.1242 13.751 21.1156 13.7303 21.1156 13.7087V13.7041C21.1156 13.6825 21.1242 13.6618 21.1394 13.6465C21.1547 13.6313 21.1754 13.6227 21.197 13.6227ZM19.8628 13.6227H19.8583C19.8134 13.6227 19.7769 13.6591 19.7769 13.704V13.8802C19.7769 13.9252 19.7405 13.9616 19.6956 13.9616H19.3563C19.3457 13.9616 19.3351 13.9595 19.3252 13.9554C19.3153 13.9513 19.3064 13.9454 19.2988 13.9378C19.2913 13.9302 19.2853 13.9213 19.2812 13.9114C19.2771 13.9015 19.275 13.8909 19.275 13.8802V13.704C19.275 13.6591 19.2386 13.6227 19.1936 13.6227H18.5175C18.4725 13.6227 18.4361 13.6591 18.4361 13.704V14.052C18.4361 14.0969 18.4725 14.1334 18.5175 14.1334H18.8589C18.8805 14.1334 18.9012 14.1248 18.9164 14.1095C18.9317 14.0943 18.9403 14.0736 18.9403 14.052V14.0431C18.9403 13.9981 18.9038 13.9618 18.8589 13.9618H18.6869C18.6762 13.9618 18.6657 13.9596 18.6558 13.9556C18.6459 13.9515 18.6369 13.9455 18.6294 13.9379C18.6218 13.9304 18.6158 13.9214 18.6118 13.9115C18.6077 13.9016 18.6056 13.8911 18.6056 13.8804V13.8715C18.6056 13.8266 18.642 13.7902 18.6869 13.7902H19.0262C19.0711 13.7902 19.1075 13.8266 19.1075 13.8715V14.052C19.1075 14.0736 19.1161 14.0943 19.1314 14.1096C19.1466 14.1248 19.1673 14.1334 19.1889 14.1334H19.8628C19.8844 14.1334 19.9051 14.1248 19.9204 14.1096C19.9356 14.0943 19.9442 14.0736 19.9442 14.052V13.7041C19.9442 13.6825 19.9356 13.6618 19.9204 13.6465C19.9051 13.6313 19.8844 13.6227 19.8628 13.6227ZM19.5281 13.6227H19.5236C19.4786 13.6227 19.4422 13.6591 19.4422 13.704V13.7086C19.4422 13.7536 19.4787 13.79 19.5236 13.79H19.5281C19.5497 13.79 19.5704 13.7814 19.5856 13.7662C19.6009 13.7509 19.6095 13.7302 19.6095 13.7086V13.704C19.6094 13.6824 19.6009 13.6618 19.5856 13.6465C19.5703 13.6313 19.5497 13.6227 19.5281 13.6227ZM19.8628 14.3049H17.8479C17.803 14.3049 17.7666 14.3413 17.7666 14.3863V14.3952C17.7666 14.4402 17.803 14.4766 17.8479 14.4766H19.8628C19.9078 14.4766 19.9442 14.4401 19.9442 14.3952V14.3863C19.9442 14.3647 19.9356 14.344 19.9203 14.3288C19.9051 14.3135 19.8844 14.305 19.8628 14.3049ZM17.8479 13.6227H18.1893C18.2343 13.6227 18.2707 13.6591 18.2707 13.704V14.052C18.2707 14.0736 18.2621 14.0943 18.2469 14.1095C18.2316 14.1248 18.2109 14.1334 18.1893 14.1334H17.6783C17.6334 14.1334 17.597 14.1698 17.597 14.2147V14.3952C17.597 14.4402 17.5606 14.4766 17.5156 14.4766H17.5111C17.4895 14.4766 17.4689 14.468 17.4536 14.4527C17.4383 14.4375 17.4297 14.4168 17.4297 14.3952V13.8714C17.4297 13.8265 17.3933 13.7901 17.3483 13.7901H17.3459C17.3009 13.7901 17.2645 13.8265 17.2645 13.8714V14.3952C17.2645 14.4402 17.2281 14.4766 17.1831 14.4766H17.1764C17.1548 14.4766 17.1341 14.468 17.1189 14.4527C17.1036 14.4375 17.095 14.4168 17.095 14.3952V13.8714C17.095 13.8265 17.0586 13.7901 17.0137 13.7901H17.009C16.9641 13.7901 16.9277 13.8265 16.9277 13.8714V14.3952C16.9277 14.4402 16.8913 14.4766 16.8463 14.4766H16.8418C16.8202 14.4766 16.7995 14.468 16.7843 14.4527C16.769 14.4375 16.7604 14.4168 16.7604 14.3952V13.704C16.7604 13.6591 16.7969 13.6227 16.8418 13.6227H17.5157C17.5607 13.6227 17.5971 13.6591 17.5971 13.704V13.8802C17.5971 13.9018 17.6057 13.9225 17.6209 13.9378C17.6362 13.953 17.6569 13.9616 17.6785 13.9616H18.0199C18.0415 13.9616 18.0622 13.953 18.0774 13.9378C18.0927 13.9225 18.1013 13.9018 18.1013 13.8802V13.8714C18.1013 13.8265 18.0649 13.7901 18.0199 13.7901H17.8479C17.8372 13.7901 17.8266 13.788 17.8168 13.7839C17.8069 13.7798 17.7979 13.7738 17.7904 13.7662C17.7828 13.7587 17.7768 13.7497 17.7728 13.7398C17.7687 13.73 17.7666 13.7194 17.7666 13.7087V13.7041C17.7666 13.6591 17.803 13.6227 17.8479 13.6227ZM16.5117 13.6227H16.5071C16.4621 13.6227 16.4257 13.6591 16.4257 13.704V13.8802C16.4257 13.9252 16.3893 13.9616 16.3444 13.9616H16.0051C15.9945 13.9616 15.9839 13.9595 15.974 13.9554C15.9641 13.9513 15.9552 13.9454 15.9476 13.9378C15.9401 13.9302 15.9341 13.9213 15.93 13.9114C15.9259 13.9015 15.9238 13.8909 15.9238 13.8802V13.704C15.9238 13.6591 15.8874 13.6227 15.8424 13.6227H15.1663C15.1213 13.6227 15.0849 13.6591 15.0849 13.704V14.052C15.0849 14.0969 15.1213 14.1334 15.1663 14.1334H15.5077C15.5293 14.1334 15.55 14.1248 15.5652 14.1095C15.5805 14.0943 15.5891 14.0736 15.5891 14.052V14.0431C15.5891 13.9981 15.5526 13.9618 15.5077 13.9618H15.3337C15.323 13.9618 15.3124 13.9596 15.3025 13.9556C15.2927 13.9515 15.2837 13.9455 15.2761 13.9379C15.2686 13.9304 15.2626 13.9214 15.2585 13.9115C15.2544 13.9016 15.2523 13.8911 15.2523 13.8804V13.8715C15.2523 13.8266 15.2888 13.7902 15.3337 13.7902H15.6729C15.7179 13.7902 15.7542 13.8266 15.7542 13.8715V14.052C15.7543 14.0736 15.7628 14.0943 15.7781 14.1096C15.7934 14.1248 15.8141 14.1334 15.8356 14.1334H16.5118C16.5334 14.1334 16.5541 14.1248 16.5693 14.1096C16.5846 14.0943 16.5932 14.0736 16.5932 14.052V13.7041C16.5931 13.6825 16.5845 13.6618 16.5692 13.6465C16.554 13.6313 16.5333 13.6227 16.5117 13.6227ZM16.1748 13.6227H16.1723C16.1274 13.6227 16.0909 13.6591 16.0909 13.704V13.7086C16.0909 13.7536 16.1273 13.79 16.1723 13.79H16.1748C16.2197 13.79 16.2561 13.7536 16.2561 13.7086V13.704C16.2561 13.6933 16.254 13.6827 16.2499 13.6729C16.2458 13.663 16.2399 13.654 16.2323 13.6465C16.2247 13.6389 16.2158 13.6329 16.2059 13.6288C16.196 13.6248 16.1855 13.6227 16.1748 13.6227ZM16.5117 14.3049H14.4947C14.4497 14.3049 14.4133 14.3413 14.4133 14.3863V14.3952C14.4133 14.4402 14.4498 14.4766 14.4947 14.4766H16.5117C16.5566 14.4766 16.5931 14.4401 16.5931 14.3952V14.3863C16.593 14.3647 16.5845 14.344 16.5692 14.3288C16.5539 14.3135 16.5333 14.305 16.5117 14.3049ZM14.4945 13.6227H14.836C14.8809 13.6227 14.9173 13.6591 14.9173 13.704V14.052C14.9173 14.0969 14.8809 14.1334 14.836 14.1334H14.3271C14.2822 14.1334 14.2458 14.1698 14.2458 14.2147V14.3952C14.2458 14.4402 14.2094 14.4766 14.1644 14.4766H14.1599C14.1383 14.4766 14.1176 14.468 14.1024 14.4527C14.0871 14.4375 14.0785 14.4168 14.0785 14.3952V13.8714C14.0785 13.8265 14.0421 13.7901 13.9972 13.7901H13.9926C13.9476 13.7901 13.9112 13.8265 13.9112 13.8714V14.3952C13.9112 14.4402 13.8748 14.4766 13.8299 14.4766H13.8253C13.8038 14.4766 13.7831 14.468 13.7678 14.4527C13.7526 14.4375 13.744 14.4168 13.744 14.3952V13.8714C13.744 13.8265 13.7076 13.7901 13.6627 13.7901H13.6581C13.6132 13.7901 13.5768 13.8265 13.5768 13.8714V14.3952C13.5768 14.4402 13.5404 14.4766 13.4954 14.4766H13.4908C13.4692 14.4766 13.4485 14.468 13.4332 14.4527C13.418 14.4375 13.4094 14.4168 13.4094 14.3952V13.704C13.4094 13.6591 13.4458 13.6227 13.4908 13.6227H14.1647C14.2097 13.6227 14.2461 13.6591 14.2461 13.704V13.8802C14.2461 13.9252 14.2825 13.9616 14.3274 13.9616H14.6689C14.6904 13.9616 14.7111 13.953 14.7264 13.9378C14.7416 13.9225 14.7502 13.9018 14.7502 13.8802V13.8714C14.7502 13.8265 14.7138 13.7901 14.6689 13.7901H14.4948C14.4841 13.7901 14.4736 13.788 14.4637 13.7839C14.4538 13.7798 14.4449 13.7738 14.4373 13.7662C14.4298 13.7587 14.4238 13.7497 14.4197 13.7398C14.4156 13.73 14.4135 13.7194 14.4135 13.7087V13.7041C14.4134 13.6934 14.4155 13.6828 14.4195 13.6729C14.4236 13.663 14.4295 13.654 14.4371 13.6465C14.4446 13.6389 14.4536 13.6329 14.4634 13.6288C14.4733 13.6247 14.4839 13.6226 14.4945 13.6227ZM13.1604 13.6227H13.1558C13.1109 13.6227 13.0744 13.6591 13.0744 13.704V13.8802C13.0744 13.9252 13.038 13.9616 12.9931 13.9616H12.6538C12.6431 13.9616 12.6326 13.9595 12.6227 13.9554C12.6128 13.9513 12.6038 13.9454 12.5963 13.9378C12.5887 13.9302 12.5828 13.9213 12.5787 13.9114C12.5746 13.9015 12.5725 13.8909 12.5725 13.8802V13.704C12.5725 13.6591 12.536 13.6227 12.4912 13.6227H11.815C11.7701 13.6227 11.7337 13.6591 11.7337 13.704V14.052C11.7337 14.0969 11.7701 14.1334 11.815 14.1334H12.1544C12.1993 14.1334 12.2357 14.0969 12.2357 14.052V14.0431C12.2357 13.9981 12.1993 13.9618 12.1544 13.9618H11.9845C11.9629 13.9617 11.9422 13.9532 11.927 13.9379C11.9117 13.9226 11.9031 13.9019 11.9031 13.8804V13.8715C11.9031 13.8266 11.9396 13.7902 11.9845 13.7902H12.3217C12.3666 13.7902 12.403 13.8266 12.403 13.8715V14.052C12.403 14.097 12.4394 14.1334 12.4844 14.1334H13.1605C13.1821 14.1334 13.2028 14.1248 13.2181 14.1096C13.2333 14.0943 13.2419 14.0736 13.2419 14.052V13.7041C13.2419 13.6825 13.2333 13.6618 13.218 13.6465C13.2027 13.6313 13.182 13.6227 13.1604 13.6227ZM12.8236 13.6227H12.8211C12.7762 13.6227 12.7397 13.6591 12.7397 13.704V13.7086C12.7397 13.7302 12.7483 13.7509 12.7636 13.7662C12.7788 13.7814 12.7995 13.79 12.8211 13.79H12.8236C12.8685 13.79 12.9049 13.7536 12.9049 13.7086V13.704C12.9049 13.6591 12.8685 13.6227 12.8236 13.6227ZM13.1604 14.3049H11.1433C11.0984 14.3049 11.062 14.3413 11.062 14.3863V14.3952C11.062 14.4402 11.0984 14.4766 11.1433 14.4766H13.1604C13.2053 14.4766 13.2418 14.4401 13.2418 14.3952V14.3863C13.2418 14.3756 13.2397 14.365 13.2356 14.3551C13.2315 14.3453 13.2255 14.3363 13.2179 14.3287C13.2104 14.3212 13.2014 14.3152 13.1916 14.3111C13.1817 14.307 13.1711 14.3049 13.1604 14.3049ZM11.1433 13.6227H11.4826C11.5275 13.6227 11.5639 13.6591 11.5639 13.704V14.052C11.5639 14.0969 11.5275 14.1334 11.4826 14.1334H10.976C10.9311 14.1334 10.8947 14.1698 10.8947 14.2147V14.3952C10.8947 14.4402 10.8583 14.4766 10.8133 14.4766H10.8087C10.7871 14.4766 10.7664 14.468 10.7511 14.4527C10.7359 14.4375 10.7273 14.4168 10.7273 14.3952V13.8714C10.7273 13.8265 10.6909 13.7901 10.646 13.7901H10.6414C10.5965 13.7901 10.5601 13.8265 10.5601 13.8714V14.3952C10.5601 14.4402 10.5237 14.4766 10.4787 14.4766H10.4741C10.4525 14.4766 10.4318 14.468 10.4166 14.4527C10.4013 14.4375 10.3927 14.4168 10.3927 14.3952V13.8714C10.3927 13.8265 10.3563 13.7901 10.3114 13.7901H10.3069C10.2619 13.7901 10.2255 13.8265 10.2255 13.8714V14.3952C10.2255 14.4402 10.1891 14.4766 10.1441 14.4766H10.1395C10.1179 14.4766 10.0972 14.468 10.082 14.4527C10.0667 14.4375 10.0581 14.4168 10.0581 14.3952V13.704C10.0581 13.6591 10.0946 13.6227 10.1395 13.6227H10.8136C10.8586 13.6227 10.895 13.6591 10.895 13.704V13.8802C10.895 13.9252 10.9314 13.9616 10.9763 13.9616H11.3177C11.3392 13.9616 11.3599 13.953 11.3752 13.9378C11.3904 13.9225 11.399 13.9018 11.399 13.8802V13.8714C11.399 13.8265 11.3627 13.7901 11.3177 13.7901H11.1436C11.1329 13.7901 11.1224 13.788 11.1125 13.7839C11.1026 13.7798 11.0937 13.7738 11.0861 13.7662C11.0785 13.7587 11.0726 13.7497 11.0685 13.7398C11.0644 13.73 11.0623 13.7194 11.0623 13.7087V13.7041C11.0622 13.6934 11.0643 13.6828 11.0683 13.6729C11.0724 13.663 11.0783 13.654 11.0859 13.6465C11.0934 13.6389 11.1024 13.6329 11.1122 13.6288C11.1221 13.6247 11.1327 13.6226 11.1433 13.6227ZM9.80922 13.6227H9.80459C9.75965 13.6227 9.7232 13.6591 9.7232 13.704V13.8802C9.7232 13.9252 9.68682 13.9616 9.64188 13.9616H9.30051C9.27893 13.9616 9.25824 13.953 9.24298 13.9378C9.22772 13.9225 9.21914 13.9018 9.21912 13.8802V13.704C9.21912 13.6591 9.18274 13.6227 9.13779 13.6227H8.46368C8.41873 13.6227 8.38229 13.6591 8.38229 13.704V14.052C8.38229 14.0969 8.41868 14.1334 8.46368 14.1334H8.80305C8.82463 14.1334 8.84532 14.1248 8.86058 14.1095C8.87584 14.0943 8.88442 14.0736 8.88444 14.052V14.0431C8.88444 13.9981 8.84805 13.9618 8.80305 13.9618H8.62885C8.60727 13.9617 8.58658 13.9532 8.57132 13.9379C8.55606 13.9226 8.54748 13.9019 8.54746 13.8804V13.8715C8.54746 13.8266 8.58385 13.7902 8.62885 13.7902H8.9725C9.01744 13.7902 9.05383 13.8266 9.05383 13.8715V14.052C9.05385 14.0736 9.06242 14.0943 9.07768 14.1096C9.09294 14.1248 9.11364 14.1334 9.13522 14.1334H9.80916C9.83074 14.1334 9.85143 14.1248 9.86669 14.1096C9.88195 14.0943 9.89053 14.0736 9.89055 14.052V13.7041C9.89055 13.6934 9.88846 13.6828 9.88437 13.6729C9.88029 13.663 9.8743 13.6541 9.86675 13.6465C9.85919 13.639 9.85023 13.633 9.84036 13.6289C9.83048 13.6248 9.8199 13.6227 9.80922 13.6227ZM9.47447 13.6227H9.46768C9.42274 13.6227 9.38635 13.6591 9.38635 13.704V13.7086C9.38635 13.7536 9.42274 13.79 9.46768 13.79H9.47447C9.51941 13.79 9.5558 13.7536 9.5558 13.7086V13.704C9.55581 13.6933 9.55371 13.6827 9.54963 13.6729C9.54554 13.663 9.53955 13.654 9.532 13.6465C9.52445 13.6389 9.51548 13.6329 9.50561 13.6288C9.49574 13.6248 9.48516 13.6227 9.47447 13.6227ZM9.80922 14.3049H7.79219C7.74725 14.3049 7.71081 14.3413 7.71081 14.3863V14.3952C7.71081 14.4402 7.74719 14.4766 7.79219 14.4766H9.80922C9.85416 14.4766 9.89061 14.4401 9.89061 14.3952V14.3863C9.89061 14.3414 9.85416 14.3049 9.80922 14.3049ZM7.79207 13.6227H8.13133C8.17627 13.6227 8.21272 13.6591 8.21272 13.704V14.052C8.21272 14.0969 8.17633 14.1334 8.13133 14.1334H7.62473C7.57979 14.1334 7.5434 14.1698 7.5434 14.2147V14.3952C7.5434 14.4402 7.50702 14.4766 7.46202 14.4766H7.45739C7.43581 14.4766 7.41512 14.468 7.39986 14.4527C7.3846 14.4375 7.37602 14.4168 7.376 14.3952V13.8714C7.376 13.8265 7.33961 13.7901 7.29467 13.7901H7.2901C7.24516 13.7901 7.20877 13.8265 7.20877 13.8714V14.3952C7.20877 14.4402 7.17239 14.4766 7.12739 14.4766H7.12276C7.10118 14.4766 7.08049 14.468 7.06523 14.4527C7.04997 14.4375 7.04139 14.4168 7.04137 14.3952V13.8714C7.04137 13.8265 7.00499 13.7901 6.95999 13.7901H6.95325C6.90831 13.7901 6.87192 13.8265 6.87192 13.8714V14.3952C6.87192 14.4402 6.83553 14.4766 6.79059 14.4766H6.78825C6.76667 14.4766 6.74598 14.468 6.73072 14.4527C6.71546 14.4375 6.70688 14.4168 6.70686 14.3952V13.704C6.70686 13.6591 6.74325 13.6227 6.78825 13.6227H7.46219C7.50713 13.6227 7.54358 13.6591 7.54358 13.704V13.8802C7.54358 13.9252 7.57997 13.9616 7.62491 13.9616H7.96205C7.98363 13.9616 8.00433 13.953 8.01959 13.9378C8.03485 13.9225 8.04343 13.9018 8.04344 13.8802V13.8714C8.04344 13.8265 8.00705 13.7901 7.96205 13.7901H7.79219C7.77061 13.7901 7.74992 13.7815 7.73466 13.7662C7.7194 13.751 7.71082 13.7303 7.71081 13.7087V13.7041C7.71079 13.6934 7.71288 13.6828 7.71696 13.6729C7.72104 13.663 7.72702 13.6541 7.73457 13.6465C7.74212 13.639 7.75108 13.633 7.76095 13.6289C7.77081 13.6248 7.78139 13.6227 7.79207 13.6227ZM6.45585 13.6227H6.45339C6.40844 13.6227 6.372 13.6591 6.372 13.704V13.8802C6.372 13.9252 6.33561 13.9616 6.29067 13.9616H5.9513C5.94061 13.9616 5.93003 13.9595 5.92016 13.9554C5.91029 13.9513 5.90132 13.9454 5.89377 13.9378C5.88622 13.9302 5.88023 13.9213 5.87614 13.9114C5.87206 13.9015 5.86996 13.8909 5.86997 13.8802V13.704C5.86997 13.6591 5.83358 13.6227 5.78864 13.6227H5.11253C5.06759 13.6227 5.0312 13.6591 5.0312 13.704V14.052C5.0312 14.0969 5.06759 14.1334 5.11253 14.1334H5.44956C5.47114 14.1334 5.49183 14.1248 5.50709 14.1095C5.52235 14.0943 5.53093 14.0736 5.53095 14.052V14.0431C5.53095 13.9981 5.49456 13.9618 5.44956 13.9618H5.2777C5.26702 13.9618 5.25644 13.9596 5.24657 13.9556C5.2367 13.9515 5.22773 13.9455 5.22018 13.9379C5.21262 13.9304 5.20663 13.9214 5.20255 13.9115C5.19847 13.9016 5.19637 13.8911 5.19638 13.8804V13.8715C5.19638 13.8266 5.23276 13.7902 5.2777 13.7902H5.61913C5.66407 13.7902 5.70052 13.8266 5.70052 13.8715V14.052C5.70052 14.097 5.7369 14.1334 5.78184 14.1334H6.45596C6.47754 14.1334 6.49824 14.1248 6.5135 14.1096C6.52876 14.0943 6.53733 14.0736 6.53735 14.052V13.7041C6.5373 13.6825 6.5287 13.6618 6.51342 13.6465C6.49814 13.6313 6.47744 13.6227 6.45585 13.6227ZM6.12116 13.6227H6.11653C6.07159 13.6227 6.03514 13.6591 6.03514 13.704V13.7086C6.03514 13.7536 6.07153 13.79 6.11653 13.79H6.12116C6.1661 13.79 6.20249 13.7536 6.20249 13.7086V13.704C6.2025 13.6933 6.2004 13.6827 6.19631 13.6729C6.19223 13.663 6.18624 13.654 6.17868 13.6465C6.17113 13.6389 6.16216 13.6329 6.15229 13.6288C6.14242 13.6248 6.13184 13.6227 6.12116 13.6227ZM6.45585 14.3049H4.43665C4.39171 14.3049 4.35532 14.3413 4.35532 14.3863V14.3952C4.35532 14.4402 4.39171 14.4766 4.43665 14.4766H6.45591C6.50085 14.4766 6.53729 14.4401 6.53729 14.3952V14.3863C6.53726 14.3647 6.52867 14.344 6.5134 14.3287C6.49813 14.3135 6.47743 14.3049 6.45585 14.3049ZM4.43665 13.6227H4.7803C4.82524 13.6227 4.86169 13.6591 4.86169 13.704V14.052C4.86169 14.0969 4.8253 14.1334 4.7803 14.1334H4.27359C4.22864 14.1334 4.19226 14.1698 4.19226 14.2147V14.3952C4.19226 14.4402 4.15587 14.4766 4.11087 14.4766H4.10413C4.09345 14.4766 4.08288 14.4745 4.07301 14.4704C4.06314 14.4663 4.05418 14.4603 4.04663 14.4527C4.03907 14.4452 4.03308 14.4362 4.029 14.4264C4.02491 14.4165 4.0228 14.4059 4.0228 14.3952V13.8714C4.0228 13.8265 3.98642 13.7901 3.94142 13.7901H3.93691C3.89197 13.7901 3.85552 13.8265 3.85552 13.8714V14.3952C3.85552 14.4402 3.81913 14.4766 3.77419 14.4766H3.77167C3.7501 14.4766 3.72941 14.468 3.71414 14.4527C3.69888 14.4375 3.6903 14.4168 3.69029 14.3952V13.8714C3.69029 13.8265 3.6539 13.7901 3.60896 13.7901H3.60222C3.55728 13.7901 3.52083 13.8265 3.52083 13.8714V14.3952C3.52083 14.4402 3.48445 14.4766 3.4395 14.4766H3.43488C3.41331 14.4766 3.39262 14.468 3.37737 14.4527C3.36212 14.4375 3.35355 14.4168 3.35355 14.3952V13.704C3.35355 13.6591 3.38993 13.6227 3.43488 13.6227H4.11105C4.15599 13.6227 4.19243 13.6591 4.19243 13.704V13.8802C4.19243 13.9252 4.22882 13.9616 4.27376 13.9616H4.61302C4.65796 13.9616 4.69435 13.9252 4.69435 13.8802V13.8714C4.69435 13.8265 4.65796 13.7901 4.61302 13.7901H4.43671C4.42602 13.7901 4.41544 13.788 4.40557 13.7839C4.3957 13.7798 4.38673 13.7738 4.37918 13.7662C4.37163 13.7587 4.36564 13.7497 4.36156 13.7398C4.35747 13.73 4.35537 13.7194 4.35538 13.7087V13.7041C4.35536 13.6934 4.35744 13.6828 4.36152 13.6729C4.36559 13.663 4.37158 13.6541 4.37913 13.6465C4.38668 13.6389 4.39564 13.6329 4.40551 13.6289C4.41539 13.6248 4.42597 13.6227 4.43665 13.6227ZM3.10464 13.6227H3.10001C3.05507 13.6227 3.01869 13.6591 3.01869 13.704V13.8802C3.01869 13.9252 2.9823 13.9616 2.9373 13.9616H2.59804C2.57646 13.9616 2.55577 13.953 2.54051 13.9378C2.52525 13.9225 2.51667 13.9018 2.51666 13.8802V13.704C2.51666 13.6591 2.48027 13.6227 2.43533 13.6227H1.7591C1.71416 13.6227 1.67771 13.6591 1.67771 13.704V14.052C1.67771 14.0969 1.7141 14.1334 1.7591 14.1334H2.09625C2.14119 14.1334 2.17757 14.0969 2.17757 14.052V14.0431C2.17757 13.9981 2.14119 13.9618 2.09625 13.9618H1.92427C1.90269 13.9617 1.882 13.9532 1.86674 13.9379C1.85148 13.9226 1.8429 13.9019 1.84289 13.8804V13.8715C1.84289 13.8266 1.87933 13.7902 1.92427 13.7902H2.26793C2.31287 13.7902 2.34931 13.8266 2.34931 13.8715V14.052C2.34931 14.097 2.3857 14.1334 2.43064 14.1334H3.10458C3.14953 14.1334 3.18591 14.097 3.18591 14.052V13.7041C3.18593 13.6934 3.18385 13.6828 3.17977 13.6729C3.1757 13.663 3.16972 13.6541 3.16217 13.6465C3.15462 13.6389 3.14565 13.6329 3.13578 13.6289C3.12591 13.6248 3.11533 13.6227 3.10464 13.6227ZM2.76996 13.6227H2.76533C2.72039 13.6227 2.684 13.6591 2.684 13.704V13.7086C2.684 13.7536 2.72039 13.79 2.76533 13.79H2.76996C2.8149 13.79 2.85128 13.7536 2.85128 13.7086V13.704C2.85128 13.6591 2.8149 13.6227 2.76996 13.6227ZM3.10464 14.3049H1.08978C1.04484 14.3049 1.0084 14.3413 1.0084 14.3863V14.3952C1.0084 14.4402 1.04484 14.4766 1.08978 14.4766H3.10464C3.14958 14.4766 3.18597 14.4401 3.18597 14.3952V14.3863C3.18598 14.3756 3.18388 14.365 3.1798 14.3551C3.17571 14.3453 3.16972 14.3363 3.16217 14.3287C3.15461 14.3212 3.14564 14.3152 3.13577 14.3111C3.1259 14.307 3.11532 14.3049 3.10464 14.3049ZM1.08978 13.6227H1.42904C1.47398 13.6227 1.51043 13.6591 1.51043 13.704V14.052C1.51043 14.0969 1.47404 14.1334 1.42904 14.1334H0.918162C0.873221 14.1334 0.836776 14.1698 0.836776 14.2147V14.3952C0.836776 14.4402 0.800389 14.4766 0.755389 14.4766H0.755155C0.73358 14.4766 0.712888 14.468 0.697626 14.4527C0.682365 14.4375 0.673784 14.4168 0.673768 14.3952V13.8714C0.673768 13.8265 0.637382 13.7901 0.592382 13.7901H0.583358C0.538417 13.7901 0.501972 13.8265 0.501972 13.8714V14.3952C0.501972 14.4402 0.465585 14.4766 0.420585 14.4766H0.420409C0.39884 14.4766 0.378154 14.468 0.362902 14.4527C0.34765 14.4375 0.339081 14.4168 0.339081 14.3952V13.8714C0.339081 13.8265 0.302636 13.7901 0.257695 13.7901H0.252949C0.208007 13.7901 0.171562 13.8265 0.171562 13.8714V14.3952C0.171562 14.4402 0.135176 14.4766 0.0902342 14.4766H0.081328C0.0706478 14.4766 0.0600723 14.4745 0.0502051 14.4704C0.0403379 14.4663 0.0313724 14.4603 0.0238204 14.4527C0.0162684 14.4452 0.0102778 14.4362 0.00619072 14.4264C0.00210361 14.4165 0 14.4059 0 14.3952L0 13.704C0 13.6591 0.0363866 13.6227 0.081328 13.6227H0.755272C0.800213 13.6227 0.836659 13.6591 0.836659 13.704V13.8802C0.836659 13.9252 0.873045 13.9616 0.918045 13.9616H1.26164C1.30658 13.9616 1.34297 13.9252 1.34297 13.8802V13.8714C1.34297 13.8265 1.30658 13.7901 1.26164 13.7901H1.08984C1.06826 13.7901 1.04757 13.7815 1.03231 13.7662C1.01705 13.751 1.00847 13.7303 1.00846 13.7087V13.7041C1.00845 13.6934 1.01055 13.6828 1.01463 13.6729C1.01871 13.663 1.0247 13.6541 1.03225 13.6465C1.03981 13.639 1.04878 13.633 1.05865 13.6289C1.06852 13.6248 1.0791 13.6227 1.08978 13.6227ZM29.9186 13.1035H28.5731C28.5281 13.1035 28.4917 13.14 28.4917 13.1849V13.3654C28.4917 13.4104 28.5281 13.4468 28.5731 13.4468H29.9186C29.9635 13.4468 29.9999 13.4104 29.9999 13.3654V13.1849C29.9999 13.1633 29.9913 13.1426 29.9761 13.1274C29.9608 13.1121 29.9401 13.1035 29.9186 13.1035ZM28.2408 13.1035H26.8975C26.8525 13.1035 26.8161 13.14 26.8161 13.1849V13.3654C26.8161 13.4104 26.8525 13.4468 26.8975 13.4468H28.2408C28.2858 13.4468 28.3222 13.4104 28.3222 13.3654V13.1849C28.3222 13.1633 28.3136 13.1426 28.2984 13.1274C28.2831 13.1121 28.2624 13.1035 28.2408 13.1035ZM26.5653 13.1035H25.2219C25.2003 13.1035 25.1796 13.1121 25.1644 13.1274C25.1491 13.1426 25.1406 13.1633 25.1405 13.1849V13.3654C25.1405 13.4104 25.177 13.4468 25.2219 13.4468H26.5653C26.6102 13.4468 26.6467 13.4104 26.6467 13.3654V13.1849C26.6467 13.1633 26.6381 13.1426 26.6228 13.1274C26.6076 13.1121 26.5869 13.1035 26.5653 13.1035ZM24.8918 13.1035H23.5442C23.4992 13.1035 23.4628 13.14 23.4628 13.1849V13.3654C23.4628 13.4104 23.4993 13.4468 23.5442 13.4468H24.8918C24.9367 13.4468 24.9732 13.4104 24.9732 13.3654V13.1849C24.9732 13.1633 24.9646 13.1426 24.9493 13.1274C24.9341 13.1121 24.9134 13.1035 24.8918 13.1035ZM23.214 13.1035H21.8685C21.8469 13.1035 21.8262 13.1121 21.811 13.1274C21.7957 13.1426 21.7871 13.1633 21.7871 13.1849V13.3654C21.7871 13.4104 21.8235 13.4468 21.8685 13.4468H23.214C23.2589 13.4468 23.2954 13.4104 23.2954 13.3654V13.1849C23.2954 13.1633 23.2868 13.1426 23.2715 13.1274C23.2563 13.1121 23.2356 13.1035 23.214 13.1035ZM21.5384 13.1035H20.1929C20.148 13.1035 20.1116 13.14 20.1116 13.1849V13.3654C20.1116 13.4104 20.148 13.4468 20.1929 13.4468H21.5384C21.5834 13.4468 21.6198 13.4104 21.6198 13.3654V13.1849C21.6198 13.1633 21.6112 13.1426 21.596 13.1274C21.5807 13.1121 21.56 13.1035 21.5384 13.1035ZM19.8628 13.1035H18.5173C18.4724 13.1035 18.436 13.14 18.436 13.1849V13.3654C18.436 13.4104 18.4724 13.4468 18.5173 13.4468H19.8628C19.9078 13.4468 19.9442 13.4104 19.9442 13.3654V13.1849C19.9442 13.1633 19.9356 13.1426 19.9204 13.1274C19.9051 13.1121 19.8844 13.1035 19.8628 13.1035ZM18.1893 13.1035H16.8417C16.8201 13.1035 16.7994 13.1121 16.7842 13.1274C16.7689 13.1426 16.7603 13.1633 16.7603 13.1849V13.3654C16.7603 13.4104 16.7967 13.4468 16.8417 13.4468H18.1893C18.2343 13.4468 18.2707 13.4104 18.2707 13.3654V13.1849C18.2707 13.14 18.2343 13.1035 18.1893 13.1035ZM16.5117 13.1035H15.1661C15.1211 13.1035 15.0848 13.14 15.0848 13.1849V13.3654C15.0848 13.4104 15.1211 13.4468 15.1661 13.4468H16.5117C16.5566 13.4468 16.5931 13.4104 16.5931 13.3654V13.1849C16.5931 13.1633 16.5845 13.1426 16.5692 13.1274C16.554 13.1121 16.5333 13.1035 16.5117 13.1035ZM14.8361 13.1035H13.4905C13.4689 13.1035 13.4482 13.1121 13.4329 13.1274C13.4177 13.1426 13.4091 13.1633 13.4091 13.1849V13.3654C13.4091 13.4104 13.4455 13.4468 13.4905 13.4468H14.8361C14.881 13.4468 14.9174 13.4104 14.9174 13.3654V13.1849C14.9174 13.14 14.881 13.1035 14.8361 13.1035ZM13.1604 13.1035H11.8148C11.7699 13.1035 11.7335 13.14 11.7335 13.1849V13.3654C11.7335 13.4104 11.7699 13.4468 11.8148 13.4468H13.1604C13.2054 13.4468 13.2418 13.4104 13.2418 13.3654V13.1849C13.2418 13.1633 13.2332 13.1426 13.218 13.1274C13.2027 13.1121 13.182 13.1035 13.1604 13.1035ZM11.4826 13.1035H10.1392C10.1176 13.1035 10.0969 13.1121 10.0817 13.1274C10.0664 13.1426 10.0578 13.1633 10.0578 13.1849V13.3654C10.0578 13.4104 10.0943 13.4468 10.1392 13.4468H11.4826C11.5275 13.4468 11.5639 13.4104 11.5639 13.3654V13.1849C11.5639 13.1742 11.5618 13.1637 11.5577 13.1538C11.5537 13.1439 11.5477 13.1349 11.5401 13.1274C11.5326 13.1198 11.5236 13.1138 11.5137 13.1097C11.5039 13.1056 11.4933 13.1035 11.4826 13.1035ZM9.80922 13.1035H8.46362C8.44204 13.1035 8.42134 13.1121 8.40609 13.1274C8.39083 13.1426 8.38225 13.1633 8.38223 13.1849V13.3654C8.38223 13.4104 8.41862 13.4468 8.46362 13.4468H9.80922C9.85416 13.4468 9.89061 13.4104 9.89061 13.3654V13.1849C9.89059 13.1633 9.88201 13.1426 9.86675 13.1274C9.85149 13.1121 9.8308 13.1035 9.80922 13.1035ZM8.13139 13.1035H6.78813C6.76655 13.1035 6.74586 13.1121 6.7306 13.1274C6.71534 13.1426 6.70676 13.1633 6.70674 13.1849V13.3654C6.70674 13.4104 6.74313 13.4468 6.78813 13.4468H8.13139C8.17633 13.4468 8.21278 13.4104 8.21278 13.3654V13.1849C8.21276 13.1633 8.20418 13.1426 8.18892 13.1274C8.17366 13.1121 8.15297 13.1035 8.13139 13.1035ZM6.45585 13.1035H5.11253C5.06759 13.1035 5.0312 13.14 5.0312 13.1849V13.3654C5.0312 13.4104 5.06759 13.4468 5.11253 13.4468H6.45591C6.50085 13.4468 6.53729 13.4104 6.53729 13.3654V13.1849C6.53728 13.1633 6.52869 13.1426 6.51342 13.1274C6.49814 13.1121 6.47744 13.1035 6.45585 13.1035ZM4.78024 13.1035H3.43464C3.3897 13.1035 3.35331 13.14 3.35331 13.1849V13.3654C3.35331 13.4104 3.3897 13.4468 3.43464 13.4468H4.78024C4.82519 13.4468 4.86163 13.4104 4.86163 13.3654V13.1849C4.86162 13.1633 4.85304 13.1426 4.83778 13.1274C4.82252 13.1121 4.80182 13.1035 4.78024 13.1035ZM3.10464 13.1035H1.7591C1.73752 13.1035 1.71683 13.1121 1.70157 13.1274C1.68631 13.1426 1.67773 13.1633 1.67771 13.1849V13.3654C1.67771 13.4104 1.7141 13.4468 1.7591 13.4468H3.1047C3.14964 13.4468 3.18603 13.4104 3.18603 13.3654V13.1849C3.18601 13.1633 3.17743 13.1426 3.16217 13.1274C3.14691 13.1121 3.12622 13.1035 3.10464 13.1035ZM1.42898 13.1035H0.081328C0.0363866 13.1035 0 13.14 0 13.1849V13.3654C0 13.4104 0.0363866 13.4468 0.081328 13.4468H1.42898C1.47392 13.4468 1.51037 13.4104 1.51037 13.3654V13.1849C1.51038 13.1742 1.50828 13.1636 1.50419 13.1538C1.5001 13.1439 1.49411 13.1349 1.48655 13.1274C1.47899 13.1198 1.47001 13.1138 1.46014 13.1097C1.45026 13.1056 1.43967 13.1035 1.42898 13.1035Z" fill="#F5F5F5"/>
<path d="M14.5722 7.55525C14.6479 7.57529 14.7276 7.57486 14.8031 7.554C14.8786 7.53315 14.9472 7.49261 15.0019 7.43654C15.1717 7.60845 15.45 7.61256 15.6259 7.4448C15.7405 7.33429 15.7875 7.16648 15.7466 7.01508C15.5973 7.25654 15.2822 7.33429 15.0407 7.18283C15.0284 7.17457 15.0121 7.16642 15.0019 7.15828C14.7748 7.32603 14.4536 7.28103 14.2817 7.05603C14.2755 7.04367 14.2633 7.02732 14.2551 7.01513C14.1937 7.25244 14.3369 7.49789 14.5722 7.55525ZM15.5254 12.3353C16.0753 12.0334 16.5343 11.5577 16.786 10.9311C17.2145 9.85705 16.9446 8.64474 16.1248 7.85842C16.0967 7.8314 16.0538 7.86756 16.0743 7.90084C16.8828 9.21937 16.5643 10.952 15.3131 11.9015L15.373 8.0714C15.3734 8.04574 15.3679 8.02032 15.357 7.99707C15.3462 7.97381 15.3302 7.95333 15.3102 7.93717L15.1067 7.77269C15.0765 7.74826 15.0388 7.73498 14.9999 7.73509C14.9611 7.7352 14.9234 7.74868 14.8933 7.77328L14.6928 7.93717C14.6731 7.95331 14.6572 7.97371 14.6465 7.99685C14.6357 8.01998 14.6304 8.04525 14.6308 8.07076L14.6889 11.9036C13.4376 10.9547 13.1183 9.22037 13.9256 7.90095C13.946 7.86767 13.9032 7.83152 13.8751 7.85859C13.0569 8.64492 12.7853 9.85717 13.2138 10.9311C13.4654 11.5576 13.9244 12.0334 14.4745 12.3353C14.1244 12.4553 13.7564 12.519 13.3844 12.5083C13.345 12.5072 13.3371 12.5625 13.3748 12.5739C13.8475 12.7174 14.3337 12.7272 14.7909 12.6247L14.9704 12.9729C14.9732 12.9784 14.9774 12.9829 14.9827 12.9861C14.9879 12.9893 14.9939 12.991 15 12.991C15.0061 12.991 15.0121 12.9893 15.0174 12.9862C15.0226 12.983 15.0268 12.9784 15.0297 12.973L15.2104 12.6249C15.6675 12.7272 16.1539 12.7172 16.627 12.5737C16.6646 12.5623 16.6568 12.507 16.6174 12.5081C16.2449 12.5189 15.8761 12.4553 15.5254 12.3353Z" fill="#FF4B55"/>
<path d="M17.7639 8.77468C17.484 8.25136 17.0183 7.85185 16.4584 7.6549C16.4236 7.64265 16.3964 7.68871 16.4249 7.7122C17.6533 8.72417 17.8996 10.5266 16.9495 11.8315C16.9003 11.897 16.8471 11.9665 16.796 12.0237C17.9624 11.3977 18.3941 9.94093 17.7639 8.77468ZM13.052 11.8315C12.102 10.5266 12.3463 8.72423 13.5746 7.71226C13.6031 7.68876 13.5759 7.64277 13.541 7.65496C12.9852 7.85031 12.521 8.2488 12.2377 8.77468C11.6035 9.94093 12.0393 11.3976 13.2075 12.0236C13.1523 11.9665 13.0991 11.897 13.052 11.8315Z" fill="#FF4B55"/>
</svg>
