<svg width="21" height="21" viewBox="0 0 21 21" fill="none" xmlns="http://www.w3.org/2000/svg">
<g clip-path="url(#clip0_3188_7908)">
<path d="M10.9292 2.30078C13.6011 2.30078 13.9175 2.3125 14.9683 2.35937C15.9448 2.40234 16.4722 2.56641 16.8237 2.70312C17.2886 2.88281 17.6245 3.10156 17.9722 3.44922C18.3237 3.80078 18.5386 4.13281 18.7183 4.59766C18.855 4.94922 19.019 5.48047 19.062 6.45312C19.1089 7.50781 19.1206 7.82422 19.1206 10.4922C19.1206 13.1641 19.1089 13.4805 19.062 14.5312C19.019 15.5078 18.855 16.0352 18.7183 16.3867C18.5386 16.8516 18.3198 17.1875 17.9722 17.5352C17.6206 17.8867 17.2886 18.1016 16.8237 18.2812C16.4722 18.418 15.9409 18.582 14.9683 18.625C13.9136 18.6719 13.5972 18.6836 10.9292 18.6836C8.25732 18.6836 7.94092 18.6719 6.89014 18.625C5.91357 18.582 5.38623 18.418 5.03467 18.2812C4.56982 18.1016 4.23389 17.8828 3.88623 17.5352C3.53467 17.1836 3.31982 16.8516 3.14014 16.3867C3.00342 16.0352 2.83936 15.5039 2.79639 14.5312C2.74951 13.4766 2.73779 13.1602 2.73779 10.4922C2.73779 7.82031 2.74951 7.50391 2.79639 6.45312C2.83936 5.47656 3.00342 4.94922 3.14014 4.59766C3.31982 4.13281 3.53857 3.79687 3.88623 3.44922C4.23779 3.09766 4.56982 2.88281 5.03467 2.70312C5.38623 2.56641 5.91748 2.40234 6.89014 2.35937C7.94092 2.3125 8.25732 2.30078 10.9292 2.30078ZM10.9292 0.5C8.21436 0.5 7.87451 0.511719 6.80811 0.558594C5.74561 0.605469 5.01514 0.777344 4.38232 1.02344C3.72217 1.28125 3.16357 1.62109 2.60889 2.17969C2.05029 2.73437 1.71045 3.29297 1.45264 3.94922C1.20654 4.58594 1.03467 5.3125 0.987793 6.375C0.940918 7.44531 0.929199 7.78516 0.929199 10.5C0.929199 13.2148 0.940918 13.5547 0.987793 14.6211C1.03467 15.6836 1.20654 16.4141 1.45264 17.0469C1.71045 17.707 2.05029 18.2656 2.60889 18.8203C3.16357 19.375 3.72217 19.7187 4.37842 19.9727C5.01514 20.2187 5.7417 20.3906 6.8042 20.4375C7.8706 20.4844 8.21045 20.4961 10.9253 20.4961C13.6401 20.4961 13.98 20.4844 15.0464 20.4375C16.1089 20.3906 16.8394 20.2187 17.4722 19.9727C18.1284 19.7187 18.687 19.375 19.2417 18.8203C19.7964 18.2656 20.1401 17.707 20.394 17.0508C20.6401 16.4141 20.812 15.6875 20.8589 14.625C20.9058 13.5586 20.9175 13.2187 20.9175 10.5039C20.9175 7.78906 20.9058 7.44922 20.8589 6.38281C20.812 5.32031 20.6401 4.58984 20.394 3.95703C20.1479 3.29297 19.8081 2.73437 19.2495 2.17969C18.6948 1.625 18.1362 1.28125 17.48 1.02734C16.8433 0.78125 16.1167 0.609375 15.0542 0.5625C13.9839 0.511719 13.644 0.5 10.9292 0.5Z" fill="#4D4D4D"/>
<path d="M10.9291 5.36316C8.09314 5.36316 5.79236 7.66394 5.79236 10.4999C5.79236 13.3358 8.09314 15.6366 10.9291 15.6366C13.765 15.6366 16.0658 13.3358 16.0658 10.4999C16.0658 7.66394 13.765 5.36316 10.9291 5.36316ZM10.9291 13.8319C9.08923 13.8319 7.59705 12.3397 7.59705 10.4999C7.59705 8.66003 9.08923 7.16785 10.9291 7.16785C12.7689 7.16785 14.2611 8.66003 14.2611 10.4999C14.2611 12.3397 12.7689 13.8319 10.9291 13.8319Z" fill="#4D4D4D"/>
<path d="M17.4683 5.16016C17.4683 5.82422 16.9292 6.35938 16.269 6.35938C15.605 6.35938 15.0698 5.82031 15.0698 5.16016C15.0698 4.49609 15.6089 3.96094 16.269 3.96094C16.9292 3.96094 17.4683 4.5 17.4683 5.16016Z" fill="#4D4D4D"/>
</g>
<defs>
<clipPath id="clip0_3188_7908">
<rect width="20" height="20" fill="white" transform="translate(0.929199 0.5)"/>
</clipPath>
</defs>
</svg>
