<svg width="24" height="24" viewBox="0 0 24 24" fill="none" xmlns="http://www.w3.org/2000/svg">
<path d="M6.57608 15.495C8.00179 16.7742 9.90704 17.5556 12 17.5556C14.093 17.5556 15.9982 16.7742 17.4239 15.495M6.57608 15.495C4.99209 14.0739 4 12.0385 4 9.77778C4 5.48223 7.58172 2 12 2C16.4183 2 20 5.48223 20 9.77778C20 12.0385 19.0079 14.0739 17.4239 15.495M6.57608 15.495L6.28759 20.7554C6.24042 21.6155 7.09081 22.2343 7.88035 21.9144L10.9008 20.6905C11.6043 20.4054 12.3957 20.4054 13.0992 20.6905L16.1197 21.9144C16.9092 22.2343 17.7596 21.6155 17.7124 20.7554L17.4239 15.495M10.6235 8.4775L8.73637 8.83742C8.57904 8.86743 8.51687 9.06444 8.62721 9.18331L9.94382 10.6017C10.0278 10.6921 10.0674 10.8166 10.0516 10.9404L9.80486 12.8772C9.7842 13.0393 9.94654 13.1607 10.0907 13.091L11.8281 12.2511C11.9369 12.1984 12.0631 12.1984 12.1719 12.2511L13.9093 13.091C14.0535 13.1607 14.2158 13.0393 14.1951 12.8772L13.9484 10.9404C13.9326 10.8166 13.9722 10.6921 14.0562 10.6017L15.3728 9.1833C15.4831 9.06443 15.421 8.86743 15.2636 8.83742L13.3765 8.4775C13.2577 8.45483 13.155 8.37866 13.0968 8.26998L12.1767 6.55169C12.1002 6.4087 11.8998 6.4087 11.8233 6.55169L10.9032 8.26998C10.845 8.37866 10.7423 8.45483 10.6235 8.4775Z" stroke="currentColor"  stroke-width="1.5"/>
</svg>
