<svg width="30" height="26" viewBox="0 0 30 26" fill="none" xmlns="http://www.w3.org/2000/svg">
<path d="M2.5 8.5V16.2C2.5 17.8802 2.5 18.7202 2.82698 19.362C3.1146 19.9265 3.57354 20.3854 4.13803 20.673C4.77976 21 5.61984 21 7.3 21H17.7C19.3802 21 20.2202 21 20.862 20.673C21.4265 20.3854 21.8854 19.9265 22.173 19.362C22.5 18.7202 22.5 17.8802 22.5 16.2V8.5M2.5 8.5L11.7289 13.5759C12.0105 13.7308 12.1513 13.8082 12.3002 13.8386C12.432 13.8654 12.568 13.8654 12.6998 13.8386C12.8487 13.8082 12.9895 13.7308 13.2711 13.5759L22.5 8.5M2.5 8.5C2.5 8.03558 2.5 7.80337 2.52567 7.60842C2.7029 6.26222 3.76222 5.2029 5.10842 5.02567C5.30337 5 5.53558 5 6 5H19C19.4644 5 19.6966 5 19.8916 5.02567C21.2378 5.2029 22.2971 6.26222 22.4743 7.60842C22.5 7.80337 22.5 8.03558 22.5 8.5" stroke="#E4E4E4" stroke-width="1.5" stroke-linecap="round"/>
<line x1="29" y1="2.18557e-08" x2="29" y2="26" stroke="#E4E4E4"/>
</svg>
