<svg width="20" height="21" viewBox="0 0 20 21" fill="none" xmlns="http://www.w3.org/2000/svg">
<path d="M1.66663 7.08329V13.5C1.66663 14.9001 1.66663 15.6002 1.93911 16.1349C2.17879 16.6053 2.56124 16.9878 3.03165 17.2275C3.56643 17.5 4.26649 17.5 5.66663 17.5H14.3333C15.7334 17.5 16.4335 17.5 16.9683 17.2275C17.4387 16.9878 17.8211 16.6053 18.0608 16.1349C18.3333 15.6002 18.3333 14.9001 18.3333 13.5V7.08329M1.66663 7.08329L9.3574 11.3132C9.59204 11.4423 9.70935 11.5068 9.83347 11.5321C9.94333 11.5545 10.0566 11.5545 10.1664 11.5321C10.2906 11.5068 10.4079 11.4423 10.6425 11.3132L18.3333 7.08329M1.66663 7.08329C1.66663 6.69628 1.66663 6.50277 1.68801 6.34031C1.83571 5.21848 2.71848 4.33571 3.84031 4.18801C4.00277 4.16663 4.19628 4.16663 4.58329 4.16663H15.4166C15.8036 4.16663 15.9972 4.16663 16.1596 4.18801C17.2814 4.33571 18.1642 5.21848 18.3119 6.34031C18.3333 6.50277 18.3333 6.69628 18.3333 7.08329"  stroke="currentColor" stroke-width="1.25" stroke-linecap="round"/>
</svg>
