<svg width="405" height="121" viewBox="0 0 405 121" fill="none" xmlns="http://www.w3.org/2000/svg">
<rect x="0.873413" width="122.667" height="120.249" rx="6.08854" fill="white"/>
<g clip-path="url(#clip0_3188_7849)">
<path d="M69.0143 52.1286C69.0795 52.1279 69.1442 52.1402 69.2047 52.1649C69.2651 52.1895 69.32 52.226 69.3661 52.2722C69.4122 52.3183 69.4487 52.3732 69.4734 52.4336C69.498 52.494 69.5104 52.5587 69.5097 52.624V67.6652C69.5107 67.7254 69.4996 67.7851 69.477 67.8408C69.4545 67.8966 69.4209 67.9472 69.3784 67.9897C69.3359 68.0323 69.2852 68.0658 69.2295 68.0884C69.1737 68.1109 69.114 68.122 69.0539 68.121H65.9426C65.7417 68.0933 65.5545 68.0032 65.4075 67.8634C65.4075 67.8634 59.8191 60.1942 59.6407 59.996C59.4889 59.773 59.3626 59.5337 59.2642 59.2826V67.6652C59.2646 67.7269 59.2524 67.788 59.2284 67.8448C59.2044 67.9016 59.169 67.9529 59.1245 67.9955C59.08 68.0382 59.0273 68.0713 58.9695 68.0929C58.9117 68.1145 58.8502 68.124 58.7886 68.121H55.3008C55.2392 68.124 55.1776 68.1145 55.1199 68.0929C55.0621 68.0713 55.0094 68.0382 54.9648 67.9955C54.9203 67.9529 54.885 67.9016 54.861 67.8448C54.8369 67.788 54.8248 67.7269 54.8252 67.6652V52.624C54.8248 52.5623 54.8369 52.5012 54.861 52.4444C54.885 52.3877 54.9203 52.3364 54.9648 52.2937C55.0094 52.251 55.0621 52.2179 55.1199 52.1963C55.1776 52.1747 55.2392 52.1652 55.3008 52.1682H58.4121C58.6084 52.192 58.7904 52.2831 58.9273 52.4258C58.9273 52.4258 64.4563 59.9563 64.6941 60.2932C64.849 60.5177 64.9817 60.7566 65.0905 61.0067V52.624C65.0895 52.5639 65.1006 52.5041 65.1231 52.4484C65.1457 52.3926 65.1792 52.342 65.2217 52.2995C65.2643 52.257 65.3149 52.2234 65.3707 52.2009C65.4264 52.1783 65.4861 52.1672 65.5462 52.1682C65.5462 52.1286 68.7963 52.1286 69.0143 52.1286ZM93.5876 73.9076C86.0174 73.9076 79.8543 67.7247 79.8543 60.1347C79.8543 52.5249 86.0174 46.3419 93.5876 46.3419C101.138 46.3419 107.301 52.5249 107.301 60.1347C107.301 67.7247 101.138 73.9076 93.5876 73.9076ZM62.1773 73.9076C54.6072 73.9076 48.444 67.7247 48.444 60.1347C48.444 52.5249 54.6072 46.3419 62.1773 46.3419C69.7277 46.3419 75.8908 52.5249 75.8908 60.1347C75.8908 67.7247 69.7277 73.9076 62.1773 73.9076ZM30.7671 73.9076C23.1969 73.9076 17.0338 67.7247 17.0338 60.1347C17.0338 52.5249 23.1969 46.3419 30.7671 46.3419C38.3174 46.3419 44.4806 52.5249 44.4806 60.1347C44.4608 67.7247 38.2976 73.9076 30.7671 73.9076ZM93.5876 42.3389C86.7704 42.3389 80.8451 46.2429 77.8527 51.9304C76.3678 49.0417 74.1155 46.6183 71.3431 44.9262C68.5708 43.2341 65.3856 42.3389 62.1377 42.3389C58.8897 42.3389 55.7046 43.2341 52.9323 44.9262C50.1599 46.6183 47.9076 49.0417 46.4227 51.9304C44.9317 49.0424 42.6752 46.6202 39.9 44.9285C37.1249 43.2368 33.9379 42.341 30.6878 42.3389C20.9972 42.3389 13.0505 50.3252 13.0505 60.1347C13.0505 69.9244 20.9972 77.9107 30.7671 77.9107C37.5644 77.9107 43.5095 74.0067 46.4821 68.3192C47.9709 71.2047 50.2241 73.6255 52.9956 75.317C55.7671 77.0086 58.9502 77.9058 62.1971 77.9107C69.0143 77.9107 74.9396 74.0067 77.932 68.3192C79.4187 71.2064 81.6715 73.6286 84.4434 75.3204C87.2154 77.0122 90.3996 77.9084 93.647 77.9107C103.417 77.9107 111.364 69.9244 111.364 60.1347C111.304 50.3252 103.338 42.3389 93.5876 42.3389ZM24.1085 52.4258C24.0484 52.4248 23.9887 52.4359 23.9329 52.4585C23.8772 52.481 23.8265 52.5146 23.784 52.5571C23.7415 52.5996 23.708 52.6503 23.6854 52.706C23.6628 52.7618 23.6517 52.8215 23.6527 52.8816V55.874C23.6517 55.9341 23.6628 55.9938 23.6854 56.0496C23.708 56.1053 23.7415 56.156 23.784 56.1985C23.8265 56.241 23.8772 56.2746 23.9329 56.2971C23.9887 56.3197 24.0484 56.3308 24.1085 56.3298H27.7153C27.9476 56.3278 28.1795 56.3079 28.4089 56.2703V68.0616C28.4079 68.1217 28.419 68.1814 28.4415 68.2372C28.4641 68.2929 28.4976 68.3436 28.5401 68.3861C28.5827 68.4286 28.6333 68.4621 28.6891 68.4847C28.7448 68.5072 28.8045 68.5184 28.8646 68.5174H32.5705C32.6306 68.5184 32.6903 68.5072 32.7461 68.4847C32.8018 68.4621 32.8524 68.4286 32.895 68.3861C32.9375 68.3436 32.971 68.2929 32.9936 68.2372C33.0161 68.1814 33.0272 68.1217 33.0263 68.0616V56.2703C33.3156 56.3063 33.6067 56.3262 33.8982 56.3298H37.3464C37.4065 56.3308 37.4662 56.3197 37.522 56.2971C37.5777 56.2746 37.6284 56.241 37.6709 56.1985C37.7134 56.156 37.747 56.1053 37.7695 56.0496C37.7921 55.9938 37.8032 55.9341 37.8022 55.874V52.8816C37.8032 52.8215 37.7921 52.7618 37.7695 52.706C37.747 52.6503 37.7134 52.5996 37.6709 52.5571C37.6284 52.5146 37.5777 52.481 37.522 52.4585C37.4662 52.4359 37.4065 52.4248 37.3464 52.4258H24.1085ZM100.226 52.4258C100.286 52.4248 100.346 52.4359 100.402 52.4585C100.458 52.481 100.508 52.5146 100.551 52.5571C100.593 52.5996 100.627 52.6503 100.649 52.706C100.672 52.7618 100.683 52.8215 100.682 52.8816V55.874C100.683 55.9341 100.672 55.9938 100.649 56.0496C100.627 56.1053 100.593 56.156 100.551 56.1985C100.508 56.241 100.458 56.2746 100.402 56.2971C100.346 56.3197 100.286 56.3308 100.226 56.3298H96.7979C96.4998 56.3267 96.2021 56.3068 95.9062 56.2703V68.0616C95.9072 68.1217 95.8961 68.1814 95.8735 68.2372C95.8509 68.2929 95.8174 68.3436 95.7749 68.3861C95.7324 68.4286 95.6817 68.4621 95.626 68.4847C95.5702 68.5072 95.5105 68.5184 95.4504 68.5174H91.7446C91.6844 68.5184 91.6247 68.5072 91.569 68.4847C91.5132 68.4621 91.4626 68.4286 91.4201 68.3861C91.3775 68.3436 91.344 68.2929 91.3214 68.2372C91.2989 68.1814 91.2878 68.1217 91.2888 68.0616V56.2703C91.0594 56.3079 90.8276 56.3278 90.5952 56.3298H86.9884C86.9283 56.3308 86.8686 56.3197 86.8129 56.2971C86.7571 56.2746 86.7065 56.241 86.6639 56.1985C86.6214 56.156 86.5879 56.1053 86.5653 56.0496C86.5428 55.9938 86.5317 55.9341 86.5326 55.874V52.8816C86.5317 52.8215 86.5428 52.7618 86.5653 52.706C86.5879 52.6503 86.6214 52.5996 86.6639 52.5571C86.7065 52.5146 86.7571 52.481 86.8129 52.4585C86.8686 52.4359 86.9283 52.4248 86.9884 52.4258H100.226Z" fill="#FA5A2A"/>
</g>
<rect x="141.541" width="122.73" height="120.249" rx="6.08854" fill="white"/>
<g clip-path="url(#clip1_3188_7849)">
<g clip-path="url(#clip2_3188_7849)">
<path d="M153.026 66.1042H165.053L164.362 67.0719H153.026V66.1042Z" fill="#D40511"/>
<path d="M252.214 67.0719H237.491L238.251 66.1042H252.283V67.0719H252.214Z" fill="#D40511"/>
<path d="M153.026 64.3071H166.435L165.675 65.2748H153.026V64.3071Z" fill="#D40511"/>
<path d="M153.026 62.5106H167.818L167.057 63.4783H153.026V62.5106Z" fill="#D40511"/>
<path d="M252.214 65.2748H238.874L239.634 64.3071H252.283V65.2748H252.214Z" fill="#D40511"/>
<path d="M240.947 62.5106H252.213V63.4783H240.186L240.947 62.5106Z" fill="#D40511"/>
<path d="M166.02 67.0721L172.379 58.5703C172.379 58.5703 179.43 58.5703 180.259 58.5703C181.158 58.5703 181.158 58.9159 180.674 59.4689C180.259 60.0218 179.499 61.0586 179.084 61.6116C178.877 61.9572 178.462 62.441 179.775 62.441C181.227 62.441 190.351 62.441 190.351 62.441C189.521 63.6852 186.618 67.1412 181.503 67.1412C177.356 67.0721 166.02 67.0721 166.02 67.0721Z" fill="#D40511"/>
<path d="M202.447 62.5106L198.991 67.1417H189.937L193.393 62.5106H202.447Z" fill="#D40511"/>
<path d="M215.649 62.5106L212.193 67.1417H203.069L206.525 62.5106H215.649Z" fill="#D40511"/>
<path d="M218.621 62.5106C218.621 62.5106 217.93 63.4092 217.653 63.8239C216.478 65.3445 217.515 67.1417 221.248 67.1417C225.533 67.1417 235.901 67.1417 235.901 67.1417L239.357 62.5106H218.621Z" fill="#D40511"/>
<path d="M170.514 53.3168L167.335 57.5331C167.335 57.5331 183.716 57.5331 184.615 57.5331C185.513 57.5331 185.513 57.8787 185.029 58.4317C184.615 58.9846 183.854 60.0214 183.44 60.5744C183.232 60.8509 182.818 61.4038 184.131 61.4038C185.582 61.4038 191.181 61.4038 191.181 61.4038C191.181 61.4038 192.356 59.8832 193.255 58.5699C194.568 56.8419 193.393 53.2477 188.762 53.2477C184.615 53.3168 170.514 53.3168 170.514 53.3168Z" fill="#D40511"/>
<path d="M216.41 61.4039H194.153L200.236 53.3169H209.359L205.903 57.9479H209.981L213.437 53.3169H222.561L216.41 61.4039Z" fill="#D40511"/>
<path d="M235.141 53.3169L229.058 61.4039H219.382L225.464 53.3169H235.141Z" fill="#D40511"/>
</g>
</g>
<rect x="282.27" width="122.73" height="120.249" rx="6.08854" fill="white"/>
<g clip-path="url(#clip3_3188_7849)">
<path d="M373.569 47.9969L377.499 52.3287L381.283 47.9969H389.363L381.467 56.8768L389.472 65.8293H381.065L377.172 61.4633L373.314 65.8293H365.197L373.132 56.9138L365.197 47.9969H373.569Z" fill="#FA5A2A"/>
<path d="M365.2 47.9956V54.0207H356.213V59.5495H365.2V65.8279H349.608V37.7378H365.2V43.9991H356.213V47.9956H365.2Z" fill="#FA5A2A"/>
<path d="M343.031 37.7377V49.2335H342.958C341.501 47.5599 339.682 46.9779 337.572 46.9779C333.248 46.9779 329.991 49.9185 328.848 53.8041C327.543 49.5225 324.18 46.8974 319.193 46.8974C315.144 46.8974 311.946 48.7148 310.278 51.6765V47.9955H301.907V43.999H311.042V37.7377H294.446V65.8278H301.907V54.0205H309.345C309.123 54.8877 309.004 55.8168 309.004 56.7975C309.004 62.6562 313.481 66.7689 319.193 66.7689C323.997 66.7689 327.164 64.5133 328.837 60.402H322.443C321.578 61.6386 320.922 62.0042 319.193 62.0042C317.188 62.0042 315.459 60.2554 315.459 58.182H328.48C329.045 62.8357 332.67 66.8494 337.645 66.8494C339.791 66.8494 341.756 65.7935 342.957 64.0117H343.03V65.8304H349.606V37.7377H343.031ZM315.668 54.1037C316.082 52.3193 317.467 51.1538 319.195 51.1538C321.096 51.1538 322.41 52.2836 322.756 54.1037C322.901 54.1037 315.668 54.1037 315.668 54.1037ZM339.038 61.5515C336.614 61.5515 335.107 59.292 335.107 56.9334C335.107 54.4125 336.417 51.988 339.038 51.988C341.756 51.988 342.838 54.4125 342.838 56.9334C342.838 59.3236 341.691 61.5515 339.038 61.5515Z" fill="#2A007C"/>
<path d="M349.608 79.8739V69.8075H355.17V70.5585H350.526V74.2699H354.974V75.0209H350.526V79.1203H355.377V79.8726L349.608 79.8739Z" fill="#2A007C"/>
<path d="M356.041 79.8743L358.753 76.2593L356.181 72.8396H357.223L359.323 75.6337L361.381 72.8396H362.424L359.81 76.2593L362.535 79.8743H361.479L359.226 76.8836L357.085 79.8743H356.041Z" fill="#2A007C"/>
<path d="M364.299 82.5122H363.45V74.9377C363.45 74.2421 363.45 73.5347 363.408 72.8378H364.244L364.271 73.895C364.798 73.0595 365.494 72.6715 366.538 72.6715C368.706 72.6715 369.637 74.4639 369.637 76.3539C369.637 78.2465 368.706 80.0389 366.538 80.0389C365.564 80.0389 364.799 79.664 364.299 78.8563V82.5122ZM368.734 76.3539C368.734 74.8532 368.107 73.3789 366.44 73.3789C364.869 73.3789 364.299 74.6724 364.299 76.3539C364.299 78.0367 364.869 79.3288 366.44 79.3288C368.108 79.3288 368.734 77.8558 368.734 76.3539Z" fill="#2A007C"/>
<path d="M374 73.4898C372.596 73.4898 372.108 74.6724 372.108 75.8946V79.8726H371.259V74.9073C371.259 74.2263 371.246 73.5334 371.218 72.8378H372.055L372.109 73.8528C372.526 73.0477 373.223 72.6715 374.153 72.6715C374.279 72.6715 374.417 72.6847 374.543 72.6992V73.5479C374.347 73.5175 374.194 73.4898 374 73.4898Z" fill="#2A007C"/>
<path d="M375.58 76.507C375.58 78.0908 376.329 79.3974 377.872 79.3974C379.067 79.3974 379.624 78.6055 379.832 77.8136H380.639C380.262 79.2865 379.358 80.0389 377.76 80.0389C375.619 80.0389 374.673 78.4537 374.673 76.4806C374.673 74.4652 375.66 72.6715 377.871 72.6715C380.109 72.6715 380.707 74.6302 380.707 76.507H375.58ZM375.606 75.8682H379.804C379.804 74.4916 379.152 73.3103 377.817 73.3103C376.608 73.309 375.772 74.2263 375.606 75.8682Z" fill="#2A007C"/>
<path d="M384.019 80.0389C382.574 80.0389 381.49 79.3565 381.49 77.8136H382.339C382.339 78.8695 383.033 79.3974 384.063 79.3974C385.022 79.3974 385.772 78.9381 385.772 77.9957C385.772 77.1471 384.897 76.924 383.98 76.6601C382.868 76.3407 381.658 75.9922 381.658 74.6301C381.658 73.1163 382.923 72.6715 384.105 72.6715C385.466 72.6715 386.482 73.1981 386.523 74.6579H385.674C385.633 73.825 385.036 73.3525 384.131 73.3525C383.423 73.3525 382.561 73.6297 382.561 74.547C382.561 75.3825 383.423 75.6187 384.34 75.8682C385.454 76.173 386.676 76.507 386.676 77.8704C386.675 79.4542 385.453 80.0389 384.019 80.0389Z" fill="#2A007C"/>
<path d="M389.9 80.0389C388.454 80.0389 387.37 79.3565 387.37 77.8136H388.219C388.219 78.8695 388.913 79.3974 389.944 79.3974C390.903 79.3974 391.653 78.9381 391.653 77.9957C391.653 77.1471 390.777 76.924 389.859 76.6601C388.748 76.3407 387.539 75.9922 387.539 74.6301C387.539 73.1163 388.803 72.6715 389.986 72.6715C391.347 72.6715 392.363 73.1981 392.404 74.6579H391.555C391.514 73.825 390.917 73.3525 390.012 73.3525C389.304 73.3525 388.442 73.6297 388.442 74.547C388.442 75.3825 389.304 75.6187 390.222 75.8682C391.335 76.173 392.558 76.507 392.558 77.8704C392.556 79.4542 391.332 80.0389 389.9 80.0389Z" fill="#2A007C"/>
</g>
<defs>
<clipPath id="clip0_3188_7849">
<rect width="98.313" height="35.5718" fill="white" transform="translate(13.0505 42.3384)"/>
</clipPath>
<clipPath id="clip1_3188_7849">
<rect width="98.3755" height="44.7756" fill="white" transform="translate(153.718 37.7365)"/>
</clipPath>
<clipPath id="clip2_3188_7849">
<rect width="99.1871" height="13.824" fill="white" transform="translate(153.027 53.3169)"/>
</clipPath>
<clipPath id="clip3_3188_7849">
<rect width="98.3755" height="44.7756" fill="white" transform="translate(294.447 37.7365)"/>
</clipPath>
</defs>
</svg>
