<svg width="20" height="20" viewBox="0 0 20 20" fill="none" xmlns="http://www.w3.org/2000/svg">
<path d="M3.74996 12.5559V12.2114C3.74996 12.1638 3.71265 12.1253 3.66663 12.1253H1.74996C1.70394 12.1253 1.66663 12.1638 1.66663 12.2114V17.2068C1.66663 17.2544 1.70394 17.2929 1.74996 17.2929H3.66663C3.71265 17.2929 3.74996 17.2544 3.74996 17.2068V16.8623M3.74996 12.5559V16.8623M3.74996 12.5559C4.10129 12.3945 4.53232 12.1189 4.99996 11.8348M3.74996 16.8623H6.24996L10.8771 17.4601C12.1837 17.6289 13.5021 17.2581 14.5458 16.4283L18.0251 13.6622C18.2194 13.5077 18.3333 13.2687 18.3333 13.0153C18.3333 12.4085 17.7155 12.0139 17.1904 12.2852L16.9142 12.4256M14.3388 2.5H16.4975C16.7277 2.5 16.9142 2.68655 16.9142 2.91667V12.4256M14.3388 2.5V5.93747M14.3388 2.5H5.41663C5.18651 2.5 4.99996 2.68655 4.99996 2.91667V11.8348M4.99996 11.8348C5.80395 11.3465 6.71615 10.8333 7.51764 10.8333H11.3814C11.769 10.8333 12.0833 11.1581 12.0833 11.5588C12.0833 11.8917 11.8641 12.1819 11.5516 12.2626L9.12258 12.8903C8.90359 12.9468 8.74996 13.1502 8.74996 13.3835C8.74996 13.6465 8.94397 13.866 9.19736 13.8898L12.3634 14.1873C12.9974 14.2469 13.4645 14.1841 14.034 13.8898L16.9142 12.4256" stroke="currentColor"  stroke-width="1.25" stroke-linecap="round"/>
</svg>
