<svg width="21" height="21" viewBox="0 0 21 21" fill="none" xmlns="http://www.w3.org/2000/svg">
<g clip-path="url(#clip0_3188_7913)">
<path fill-rule="evenodd" clip-rule="evenodd" d="M20.8585 10.5C20.8585 16.0228 16.3814 20.5 10.8585 20.5C5.33567 20.5 0.858521 16.0228 0.858521 10.5C0.858521 4.97715 5.33567 0.5 10.8585 0.5C16.3814 0.5 20.8585 4.97715 20.8585 10.5ZM11.2169 7.88244C10.2442 8.287 8.3003 9.12433 5.3851 10.3944C4.91171 10.5827 4.66373 10.7668 4.64116 10.9469C4.60301 11.2512 4.98411 11.3711 5.50308 11.5343C5.57367 11.5565 5.64681 11.5795 5.7218 11.6038C6.23238 11.7698 6.91921 11.964 7.27626 11.9717C7.60014 11.9787 7.96163 11.8452 8.36072 11.5711C11.0845 9.7325 12.4905 8.80317 12.5788 8.78314C12.6411 8.76901 12.7274 8.75123 12.7858 8.8032C12.8443 8.85518 12.8385 8.9536 12.8324 8.98C12.7946 9.14095 11.2986 10.5317 10.5245 11.2515C10.2831 11.4759 10.1119 11.635 10.0769 11.6714C9.99852 11.7528 9.91863 11.8298 9.84184 11.9038C9.36749 12.3611 9.01178 12.704 9.86153 13.264C10.2699 13.5331 10.5967 13.7556 10.9227 13.9776C11.2787 14.2201 11.6338 14.4619 12.0932 14.7631C12.2103 14.8398 12.322 14.9195 12.4309 14.9971C12.8452 15.2925 13.2175 15.5578 13.6773 15.5155C13.9446 15.4909 14.2206 15.2397 14.3607 14.4903C14.692 12.7193 15.3432 8.88205 15.4937 7.30081C15.5069 7.16227 15.4903 6.98498 15.477 6.90715C15.4637 6.82931 15.4358 6.71842 15.3347 6.63633C15.2148 6.53911 15.0299 6.51861 14.9472 6.52007C14.571 6.5267 13.994 6.72735 11.2169 7.88244Z" fill="#4D4D4D"/>
</g>
<defs>
<clipPath id="clip0_3188_7913">
<rect width="20" height="20" fill="white" transform="translate(0.858521 0.5)"/>
</clipPath>
</defs>
</svg>
