<svg width="17" height="17" viewBox="0 0 20 21" fill="none" xmlns="http://www.w3.org/2000/svg">
<path d="M14.5833 8.49992C14.5833 8.1169 14.5079 7.73763 14.3613 7.38376C14.2147 7.02989 13.9999 6.70836 13.729 6.43752C13.4582 6.16669 13.1367 5.95185 12.7828 5.80527C12.4289 5.65869 12.0496 5.58325 11.6666 5.58325M17.5 8.49992C17.5 7.73387 17.3491 6.97533 17.0559 6.2676C16.7628 5.55987 16.3331 4.9168 15.7914 4.37513C15.2497 3.83345 14.6067 3.40377 13.8989 3.11062C13.1912 2.81747 12.4327 2.66659 11.6666 2.66659M7.8157 5.94568L5.11547 2.26355C4.68299 1.67381 3.79583 1.69367 3.39017 2.30216L2.36966 3.83292C1.64692 4.91703 1.39369 6.23641 2.03077 7.37297C2.76161 8.67681 4.16201 10.666 6.83128 13.3353C9.50054 16.0045 11.4897 17.4049 12.7936 18.1358C13.9301 18.7729 15.2495 18.5196 16.3336 17.7969L17.8644 16.7764C18.4729 16.3707 18.4927 15.4836 17.903 15.0511L14.2209 12.3508C13.8458 12.0758 13.3171 12.1693 13.0591 12.5563C12.4569 13.4597 11.3321 13.8276 10.4365 13.2138C9.89668 12.8438 9.25022 12.3291 8.54383 11.6227C7.83744 10.9163 7.32274 10.2699 6.95273 9.73C6.33891 8.83444 6.70688 7.70969 7.61026 7.10744C7.99724 6.84946 8.09074 6.32074 7.8157 5.94568Z" stroke="currentColor" stroke-width="1.25" stroke-linecap="round"/>
</svg>
