<svg width="30" height="22" viewBox="0 0 30 22" fill="none" xmlns="http://www.w3.org/2000/svg">
<path d="M0 1.00018H30V20.9998H0V1.00018Z" fill="#D80027"/>
<path d="M14.4851 8.70233L15.516 10.123L17.1855 9.58165L16.1531 11.001L17.1838 12.4216L15.5149 11.8782L14.4824 13.2976L14.4834 11.5424L12.8145 10.999L14.484 10.4576L14.4851 8.70233Z" fill="white"/>
<path d="M11.672 14.5509C9.71094 14.5509 8.12111 12.961 8.12111 11C8.12111 9.0389 9.71094 7.44907 11.672 7.44907C12.2835 7.44907 12.8588 7.6037 13.3611 7.87587C12.5731 7.10524 11.4955 6.62964 10.3063 6.62964C7.89266 6.62964 5.93604 8.58632 5.93604 10.9999C5.93604 13.4135 7.89271 15.3702 10.3063 15.3702C11.4955 15.3702 12.5731 14.8946 13.3611 14.124C12.8588 14.3962 12.2835 14.5509 11.672 14.5509Z" fill="white"/>
</svg>
