<svg width="24" height="24" viewBox="0 0 24 24" fill="none" xmlns="http://www.w3.org/2000/svg">
<path d="M15.9364 5.88889C15.9364 8.03666 14.1738 9.77778 11.9996 9.77778C9.82532 9.77778 8.06274 8.03666 8.06274 5.88889C8.06274 3.74112 9.82532 2 11.9996 2C14.1738 2 15.9364 3.74112 15.9364 5.88889Z" stroke="#FA5A2A" stroke-width="1.5"/>
<path d="M4.60298 18.0998C4.98856 15.4608 7.05678 13.3043 9.74881 13.1106C11.2869 12.9999 12.7176 12.9997 14.2527 13.11C16.9437 13.3033 19.0104 15.4596 19.3958 18.0975L19.4708 18.6106C19.6929 20.1309 18.6238 21.55 17.0776 21.7137C13.4488 22.0981 10.5622 22.0937 6.92804 21.7108C5.37944 21.5476 4.30672 20.1273 4.5292 18.6047L4.60298 18.0998Z" stroke="#FA5A2A" stroke-width="1.5"/>
</svg>
