<svg width="21" height="21" viewBox="0 0 21 21" fill="none" xmlns="http://www.w3.org/2000/svg">
<path d="M0.787842 20.5L2.19367 15.3641C1.32617 13.8608 0.870342 12.1566 0.871175 10.4091C0.873675 4.94582 5.3195 0.5 10.782 0.5C13.4328 0.500833 15.9211 1.53333 17.7928 3.40666C19.6636 5.27999 20.6936 7.76998 20.6928 10.4183C20.6903 15.8825 16.2445 20.3283 10.782 20.3283C9.12366 20.3275 7.48949 19.9116 6.042 19.1216L0.787842 20.5ZM6.28533 17.3275C7.68199 18.1566 9.01532 18.6533 10.7787 18.6541C15.3186 18.6541 19.017 14.9591 19.0195 10.4166C19.0211 5.86499 15.3403 2.175 10.7853 2.17333C6.242 2.17333 2.54617 5.86832 2.5445 10.41C2.54367 12.2641 3.087 13.6525 3.9995 15.105L3.167 18.145L6.28533 17.3275ZM15.7745 12.7741C15.7128 12.6708 15.5478 12.6091 15.2995 12.485C15.052 12.3608 13.8345 11.7616 13.607 11.6791C13.3803 11.5966 13.2153 11.555 13.0495 11.8033C12.8845 12.0508 12.4095 12.6091 12.2653 12.7741C12.1212 12.9391 11.9762 12.96 11.7287 12.8358C11.4812 12.7116 10.6828 12.4508 9.73699 11.6066C9.00116 10.95 8.50366 10.1391 8.35949 9.89081C8.21533 9.64331 8.34449 9.50915 8.46782 9.38581C8.57949 9.27498 8.71532 9.09665 8.83949 8.95165C8.96532 8.80832 9.00616 8.70498 9.08949 8.53915C9.17199 8.37415 9.13116 8.22915 9.06866 8.10498C9.00616 7.98165 8.51116 6.76249 8.30533 6.26665C8.10366 5.78416 7.89949 5.84915 7.74783 5.84165L7.27283 5.83332C7.10783 5.83332 6.8395 5.89499 6.61283 6.14332C6.38616 6.39165 5.74616 6.98999 5.74616 8.20915C5.74616 9.42831 6.63366 10.6058 6.757 10.7708C6.88116 10.9358 8.50282 13.4375 10.987 14.51C11.5778 14.765 12.0395 14.9175 12.3986 15.0316C12.992 15.22 13.532 15.1933 13.9586 15.13C14.4345 15.0591 15.4236 14.5308 15.6303 13.9525C15.837 13.3733 15.837 12.8775 15.7745 12.7741Z" fill="#4D4D4D"/>
</svg>
