<svg width="28" height="29" viewBox="0 0 28 29" fill="none" xmlns="http://www.w3.org/2000/svg">
<path d="M0.00012207 28.0283L1.90198 21.0804C0.728396 19.0466 0.111731 16.7412 0.112858 14.3771C0.11624 6.98614 6.1307 0.97168 13.5205 0.97168C17.1067 0.972807 20.473 2.3696 23.005 4.90391C25.5359 7.43821 26.9293 10.8068 26.9282 14.3895C26.9248 21.7816 20.9104 27.7961 13.5205 27.7961C11.2771 27.7949 9.06634 27.2324 7.10812 26.1636L0.00012207 28.0283ZM7.43731 23.7364C9.32676 24.8582 11.1305 25.5301 13.516 25.5312C19.6579 25.5312 24.6611 20.5325 24.6645 14.3872C24.6667 8.22962 19.6872 3.23767 13.525 3.23542C7.37868 3.23542 2.37885 8.23413 2.37659 14.3782C2.37547 16.8866 3.11051 18.7648 4.34496 20.7298L3.21873 24.8424L7.43731 23.7364ZM20.2745 17.5765C20.1911 17.4368 19.9679 17.3533 19.632 17.1854C19.2971 17.0174 17.6501 16.2068 17.3423 16.0952C17.0356 15.9836 16.8124 15.9272 16.5881 16.2632C16.3649 16.598 15.7223 17.3533 15.5272 17.5765C15.3322 17.7998 15.136 17.8279 14.8012 17.66C14.4664 17.492 13.3864 17.1391 12.1068 15.9971C11.1114 15.1088 10.4383 14.0118 10.2433 13.6759C10.0483 13.3411 10.223 13.1596 10.3899 12.9927C10.5409 12.8428 10.7247 12.6015 10.8927 12.4054C11.0629 12.2114 11.1181 12.0717 11.2309 11.8473C11.3425 11.6241 11.2872 11.4279 11.2027 11.26C11.1181 11.0931 10.4485 9.44378 10.17 8.773C9.8972 8.12026 9.621 8.2082 9.41582 8.19805L8.77323 8.18678C8.55001 8.18678 8.187 8.2702 7.88036 8.60615C7.57372 8.94211 6.70791 9.75155 6.70791 11.4009C6.70791 13.0502 7.90854 14.6432 8.07539 14.8664C8.24337 15.0896 10.4372 18.4739 13.7979 19.9248C14.5972 20.2698 15.2217 20.4761 15.7076 20.6306C16.5103 20.8853 17.2408 20.8493 17.818 20.7636C18.4618 20.6678 19.7999 19.953 20.0795 19.1706C20.3591 18.3871 20.3591 17.7163 20.2745 17.5765Z" fill="currentColor"/>
</svg>
